G75*
G70*
%OFA0B0*%
%FSLAX24Y24*%
%IPPOS*%
%LPD*%
%AMOC8*
5,1,8,0,0,1.08239X$1,22.5*
%
%ADD10C,0.0000*%
%ADD11C,0.0000*%
%ADD12C,0.0250*%
%ADD13C,0.0098*%
%ADD14C,0.0394*%
%ADD15C,0.0177*%
%ADD16R,0.0433X0.0394*%
%ADD17R,0.0551X0.0394*%
%ADD18R,0.0787X0.0354*%
%ADD19R,0.0591X0.0591*%
D10*
X002032Y001497D02*
X002032Y001497D01*
X002032Y001497D01*
X002032Y001497D01*
X002032Y001497D01*
X002032Y001497D01*
X002032Y001497D01*
X002032Y001497D01*
X002032Y001497D01*
X002032Y001497D01*
X002032Y001497D01*
X011226Y001497D01*
X011226Y001497D01*
X011226Y001497D01*
X011226Y001497D01*
X011226Y001497D01*
X011226Y001497D01*
X011226Y001497D01*
X011226Y001497D01*
X011226Y001497D01*
X011226Y001497D01*
X011226Y001497D01*
X011226Y001635D01*
X011226Y001635D01*
X011226Y001635D01*
X011226Y001635D01*
X011226Y001635D01*
X011226Y001635D01*
X011226Y001635D01*
X011226Y001635D01*
X011226Y001635D01*
X011226Y001635D01*
X011226Y001635D01*
X011228Y001667D01*
X011233Y001698D01*
X011243Y001729D01*
X011255Y001758D01*
X011271Y001786D01*
X011290Y001812D01*
X011312Y001835D01*
X011337Y001856D01*
X011364Y001873D01*
X011392Y001888D01*
X011422Y001898D01*
X011453Y001906D01*
X011485Y001910D01*
X011517Y001910D01*
X011549Y001906D01*
X011580Y001898D01*
X011610Y001888D01*
X011639Y001873D01*
X011665Y001856D01*
X011690Y001835D01*
X011712Y001812D01*
X011731Y001786D01*
X011747Y001758D01*
X011759Y001729D01*
X011769Y001698D01*
X011774Y001667D01*
X011776Y001635D01*
X011776Y001635D01*
X011776Y001635D01*
X011776Y001635D01*
X011776Y001635D01*
X011776Y001635D01*
X011776Y001635D01*
X011776Y001635D01*
X011776Y001635D01*
X011776Y001635D01*
X011776Y001635D01*
X011776Y001497D01*
X011776Y001497D01*
X011776Y001497D01*
X011776Y001497D01*
X011776Y001497D01*
X011776Y001497D01*
X011776Y001497D01*
X011776Y001497D01*
X011776Y001497D01*
X011776Y001497D01*
X011776Y001497D01*
X016304Y001497D01*
X016304Y001497D01*
X016304Y001497D01*
X016304Y001497D01*
X016304Y001497D01*
X016304Y001497D01*
X016304Y001497D01*
X016304Y001497D01*
X016304Y001497D01*
X016304Y001497D01*
X016304Y001497D01*
X016304Y001635D01*
X016304Y001635D01*
X016304Y001635D01*
X016304Y001635D01*
X016304Y001635D01*
X016304Y001635D01*
X016304Y001635D01*
X016304Y001635D01*
X016304Y001635D01*
X016304Y001635D01*
X016304Y001635D01*
X016306Y001667D01*
X016311Y001699D01*
X016321Y001729D01*
X016333Y001759D01*
X016349Y001787D01*
X016369Y001812D01*
X016391Y001836D01*
X016415Y001856D01*
X016442Y001874D01*
X016471Y001888D01*
X016501Y001899D01*
X016532Y001907D01*
X016564Y001911D01*
X016596Y001911D01*
X016628Y001907D01*
X016659Y001899D01*
X016689Y001888D01*
X016718Y001874D01*
X016745Y001856D01*
X016769Y001836D01*
X016791Y001812D01*
X016811Y001787D01*
X016827Y001759D01*
X016839Y001729D01*
X016849Y001699D01*
X016854Y001667D01*
X016856Y001635D01*
X016856Y001497D01*
X016856Y001497D01*
X016856Y001497D01*
X016856Y001497D01*
X016856Y001497D01*
X016856Y001497D01*
X026048Y001497D01*
X026048Y001497D01*
X026048Y001497D01*
X026048Y001497D01*
X026048Y001497D01*
X026048Y001497D01*
X026048Y001497D01*
X026048Y001497D01*
X026048Y001497D01*
X026048Y001497D01*
X026048Y001497D01*
X025615Y002678D02*
X025617Y002719D01*
X025623Y002760D01*
X025633Y002800D01*
X025646Y002839D01*
X025663Y002876D01*
X025684Y002912D01*
X025708Y002946D01*
X025735Y002977D01*
X025764Y003005D01*
X025797Y003031D01*
X025831Y003053D01*
X025868Y003072D01*
X025906Y003087D01*
X025946Y003099D01*
X025986Y003107D01*
X026027Y003111D01*
X026069Y003111D01*
X026110Y003107D01*
X026150Y003099D01*
X026190Y003087D01*
X026228Y003072D01*
X026264Y003053D01*
X026299Y003031D01*
X026332Y003005D01*
X026361Y002977D01*
X026388Y002946D01*
X026412Y002912D01*
X026433Y002876D01*
X026450Y002839D01*
X026463Y002800D01*
X026473Y002760D01*
X026479Y002719D01*
X026481Y002678D01*
X026479Y002637D01*
X026473Y002596D01*
X026463Y002556D01*
X026450Y002517D01*
X026433Y002480D01*
X026412Y002444D01*
X026388Y002410D01*
X026361Y002379D01*
X026332Y002351D01*
X026299Y002325D01*
X026265Y002303D01*
X026228Y002284D01*
X026190Y002269D01*
X026150Y002257D01*
X026110Y002249D01*
X026069Y002245D01*
X026027Y002245D01*
X025986Y002249D01*
X025946Y002257D01*
X025906Y002269D01*
X025868Y002284D01*
X025832Y002303D01*
X025797Y002325D01*
X025764Y002351D01*
X025735Y002379D01*
X025708Y002410D01*
X025684Y002444D01*
X025663Y002480D01*
X025646Y002517D01*
X025633Y002556D01*
X025623Y002596D01*
X025617Y002637D01*
X025615Y002678D01*
X026048Y001497D02*
X026119Y001499D01*
X026191Y001504D01*
X026262Y001514D01*
X026332Y001527D01*
X026402Y001543D01*
X026470Y001563D01*
X026538Y001587D01*
X026604Y001614D01*
X026668Y001645D01*
X026731Y001678D01*
X026792Y001715D01*
X026852Y001756D01*
X026909Y001799D01*
X026963Y001845D01*
X027015Y001894D01*
X027065Y001945D01*
X027112Y001999D01*
X027156Y002056D01*
X027197Y002114D01*
X027235Y002175D01*
X027269Y002237D01*
X027301Y002301D01*
X027329Y002367D01*
X027354Y002434D01*
X027375Y002503D01*
X027392Y002572D01*
X027229Y002572D01*
X027229Y004268D01*
X026460Y004268D01*
X026460Y004268D01*
X026460Y004268D01*
X026460Y004268D01*
X026460Y004268D01*
X026460Y004268D01*
X026460Y004268D01*
X026460Y004268D01*
X026460Y004268D01*
X026460Y004268D01*
X026460Y004268D01*
X026438Y004270D01*
X026417Y004275D01*
X026397Y004283D01*
X026379Y004294D01*
X026362Y004308D01*
X026348Y004325D01*
X026337Y004343D01*
X026329Y004363D01*
X026324Y004384D01*
X026322Y004406D01*
X026322Y005469D01*
X026322Y005469D01*
X026322Y005469D01*
X026322Y005469D01*
X026322Y005469D01*
X026322Y005469D01*
X026322Y005469D01*
X026322Y005469D01*
X026322Y005469D01*
X026322Y005469D01*
X026322Y005469D01*
X026324Y005491D01*
X026329Y005512D01*
X026337Y005532D01*
X026348Y005550D01*
X026362Y005567D01*
X026379Y005581D01*
X026397Y005592D01*
X026417Y005600D01*
X026438Y005605D01*
X026460Y005607D01*
X026460Y005607D01*
X026460Y005607D01*
X026460Y005607D01*
X026460Y005607D01*
X026460Y005607D01*
X026460Y005607D01*
X026460Y005607D01*
X026460Y005607D01*
X026460Y005607D01*
X026460Y005607D01*
X027426Y005607D01*
X027426Y005607D01*
X027426Y005607D01*
X027426Y005607D01*
X027426Y005607D01*
X027426Y005607D01*
X027426Y011640D01*
X027426Y011640D01*
X027426Y011640D01*
X027426Y011640D01*
X027426Y011640D01*
X027426Y011640D01*
X027426Y011640D01*
X027426Y011640D01*
X027426Y011640D01*
X027426Y011640D01*
X027426Y011640D01*
X027424Y011666D01*
X027419Y011691D01*
X027411Y011715D01*
X027400Y011739D01*
X027385Y011760D01*
X027368Y011779D01*
X027349Y011796D01*
X027328Y011811D01*
X027304Y011822D01*
X027280Y011830D01*
X027255Y011835D01*
X027229Y011837D01*
X027229Y011837D01*
X027229Y011837D01*
X027229Y011837D01*
X027229Y011837D01*
X027229Y011837D01*
X027229Y011837D01*
X027229Y011837D01*
X027229Y011837D01*
X027229Y011837D01*
X027229Y011837D01*
X027150Y011837D01*
X027150Y011837D01*
X027150Y011837D01*
X027150Y011837D01*
X027150Y011837D01*
X027150Y011837D01*
X027150Y011837D01*
X027150Y011837D01*
X027150Y011837D01*
X027150Y011837D01*
X027150Y011837D01*
X027124Y011839D01*
X027099Y011844D01*
X027075Y011852D01*
X027051Y011863D01*
X027030Y011878D01*
X027011Y011895D01*
X026994Y011914D01*
X026979Y011935D01*
X026968Y011959D01*
X026960Y011983D01*
X026955Y012008D01*
X026953Y012034D01*
X026953Y012034D01*
X026953Y012034D01*
X026953Y012034D01*
X026953Y012034D01*
X026953Y012034D01*
X026953Y012034D01*
X026953Y012034D01*
X026953Y012034D01*
X026953Y012034D01*
X026953Y012034D01*
X026953Y019239D01*
X026953Y019239D01*
X026953Y019239D01*
X026953Y019239D01*
X026953Y019239D01*
X026953Y019239D01*
X026953Y019239D01*
X026953Y019239D01*
X026953Y019239D01*
X026953Y019239D01*
X026953Y019239D01*
X026955Y019265D01*
X026960Y019290D01*
X026968Y019314D01*
X026979Y019338D01*
X026994Y019359D01*
X027011Y019378D01*
X027030Y019395D01*
X027051Y019410D01*
X027075Y019421D01*
X027099Y019429D01*
X027124Y019434D01*
X027150Y019436D01*
X027229Y019436D01*
X027229Y021182D01*
X027368Y021182D01*
X027369Y021183D02*
X027346Y021253D01*
X027319Y021321D01*
X027289Y021388D01*
X027255Y021454D01*
X027218Y021517D01*
X027177Y021578D01*
X027134Y021638D01*
X027087Y021694D01*
X027037Y021748D01*
X026985Y021800D01*
X026929Y021848D01*
X026872Y021894D01*
X026811Y021936D01*
X026749Y021975D01*
X026685Y022011D01*
X026619Y022043D01*
X026551Y022072D01*
X026482Y022097D01*
X026411Y022118D01*
X026340Y022136D01*
X026268Y022149D01*
X026195Y022159D01*
X026122Y022165D01*
X026048Y022167D01*
X025764Y022167D01*
X025764Y022167D01*
X025764Y022167D01*
X025764Y022167D01*
X025764Y022167D01*
X025764Y022167D01*
X025764Y022167D01*
X025764Y022167D01*
X025764Y022167D01*
X025764Y022167D01*
X025764Y022167D01*
X025738Y022165D01*
X025712Y022160D01*
X025688Y022152D01*
X025664Y022140D01*
X025643Y022125D01*
X025623Y022108D01*
X025606Y022088D01*
X025592Y022066D01*
X025581Y022042D01*
X025573Y022017D01*
X025568Y021991D01*
X025567Y021965D01*
X025567Y021965D01*
X025567Y021965D01*
X025567Y021965D01*
X025567Y021965D01*
X025567Y021965D01*
X025567Y021965D01*
X025567Y021965D01*
X025567Y021965D01*
X025567Y021965D01*
X025567Y021965D01*
X025567Y021663D01*
X025567Y021663D01*
X025567Y021663D01*
X025567Y021663D01*
X025567Y021663D01*
X025567Y021663D01*
X025567Y021663D01*
X025567Y021663D01*
X025567Y021663D01*
X025567Y021663D01*
X025567Y021663D01*
X025566Y021637D01*
X025561Y021611D01*
X025553Y021586D01*
X025542Y021562D01*
X025528Y021540D01*
X025511Y021520D01*
X025491Y021502D01*
X025470Y021487D01*
X025447Y021475D01*
X025422Y021466D01*
X025396Y021460D01*
X025370Y021458D01*
X010583Y021458D01*
X010583Y021458D01*
X010583Y021458D01*
X010583Y021458D01*
X010583Y021458D01*
X010583Y021458D01*
X010583Y021458D01*
X010583Y021458D01*
X010583Y021458D01*
X010583Y021458D01*
X010583Y021458D01*
X010557Y021460D01*
X010532Y021465D01*
X010508Y021473D01*
X010484Y021484D01*
X010463Y021499D01*
X010444Y021516D01*
X010427Y021535D01*
X010412Y021556D01*
X010401Y021580D01*
X010393Y021604D01*
X010388Y021629D01*
X010386Y021655D01*
X010387Y021655D02*
X010387Y021970D01*
X010387Y021970D01*
X010387Y021970D01*
X010387Y021970D01*
X010387Y021970D01*
X010387Y021970D01*
X010387Y021970D01*
X010387Y021970D01*
X010387Y021970D01*
X010387Y021970D01*
X010387Y021970D01*
X010385Y021996D01*
X010380Y022021D01*
X010372Y022045D01*
X010361Y022069D01*
X010346Y022090D01*
X010329Y022109D01*
X010310Y022126D01*
X010289Y022141D01*
X010265Y022152D01*
X010241Y022160D01*
X010216Y022165D01*
X010190Y022167D01*
X001926Y022167D01*
X001924Y022167D01*
X002032Y022167D02*
X002032Y022167D01*
X002032Y022167D01*
X002032Y022167D01*
X002032Y022167D01*
X002032Y022167D01*
X002032Y022167D01*
X002032Y022167D01*
X002032Y022167D01*
X002032Y022167D01*
X002032Y022167D01*
X001599Y020789D02*
X001601Y020830D01*
X001607Y020871D01*
X001617Y020911D01*
X001630Y020950D01*
X001647Y020987D01*
X001668Y021023D01*
X001692Y021057D01*
X001719Y021088D01*
X001748Y021116D01*
X001781Y021142D01*
X001815Y021164D01*
X001852Y021183D01*
X001890Y021198D01*
X001930Y021210D01*
X001970Y021218D01*
X002011Y021222D01*
X002053Y021222D01*
X002094Y021218D01*
X002134Y021210D01*
X002174Y021198D01*
X002212Y021183D01*
X002248Y021164D01*
X002283Y021142D01*
X002316Y021116D01*
X002345Y021088D01*
X002372Y021057D01*
X002396Y021023D01*
X002417Y020987D01*
X002434Y020950D01*
X002447Y020911D01*
X002457Y020871D01*
X002463Y020830D01*
X002465Y020789D01*
X002463Y020748D01*
X002457Y020707D01*
X002447Y020667D01*
X002434Y020628D01*
X002417Y020591D01*
X002396Y020555D01*
X002372Y020521D01*
X002345Y020490D01*
X002316Y020462D01*
X002283Y020436D01*
X002249Y020414D01*
X002212Y020395D01*
X002174Y020380D01*
X002134Y020368D01*
X002094Y020360D01*
X002053Y020356D01*
X002011Y020356D01*
X001970Y020360D01*
X001930Y020368D01*
X001890Y020380D01*
X001852Y020395D01*
X001816Y020414D01*
X001781Y020436D01*
X001748Y020462D01*
X001719Y020490D01*
X001692Y020521D01*
X001668Y020555D01*
X001647Y020591D01*
X001630Y020628D01*
X001617Y020667D01*
X001607Y020707D01*
X001601Y020748D01*
X001599Y020789D01*
X000654Y020789D02*
X000656Y020863D01*
X000662Y020936D01*
X000672Y021009D01*
X000686Y021081D01*
X000703Y021153D01*
X000725Y021223D01*
X000750Y021292D01*
X000778Y021360D01*
X000811Y021426D01*
X000846Y021490D01*
X000885Y021553D01*
X000928Y021613D01*
X000973Y021671D01*
X001022Y021726D01*
X001073Y021779D01*
X001127Y021829D01*
X001183Y021876D01*
X001242Y021920D01*
X001304Y021960D01*
X001367Y021998D01*
X001432Y022032D01*
X001499Y022062D01*
X001568Y022089D01*
X001638Y022112D01*
X001708Y022132D01*
X001780Y022147D01*
X001853Y022159D01*
X001926Y022167D01*
X000851Y020789D02*
X000654Y020789D01*
X000654Y020789D01*
X000851Y020789D02*
X000851Y020789D01*
X000851Y020789D01*
X000851Y020789D01*
X000851Y020789D01*
X000851Y020789D01*
X000851Y019107D01*
X000851Y019107D01*
X000851Y019107D01*
X000851Y019107D01*
X000851Y019107D01*
X000851Y019107D01*
X000654Y019107D01*
X000654Y013202D01*
X000654Y013202D01*
X000654Y013202D01*
X000654Y013202D01*
X000654Y013202D01*
X000654Y013202D01*
X001500Y013202D01*
X001500Y013202D01*
X001500Y013202D01*
X001500Y013202D01*
X001500Y013202D01*
X001500Y013202D01*
X001500Y013202D01*
X001500Y013202D01*
X001500Y013202D01*
X001500Y013202D01*
X001500Y013202D01*
X001522Y013200D01*
X001543Y013195D01*
X001563Y013187D01*
X001581Y013176D01*
X001598Y013162D01*
X001612Y013145D01*
X001623Y013127D01*
X001631Y013107D01*
X001636Y013086D01*
X001638Y013064D01*
X001638Y012277D01*
X001638Y012277D01*
X001638Y012277D01*
X001638Y012277D01*
X001638Y012277D01*
X001638Y012277D01*
X001638Y012277D01*
X001638Y012277D01*
X001638Y012277D01*
X001638Y012277D01*
X001638Y012277D01*
X001636Y012255D01*
X001631Y012234D01*
X001623Y012214D01*
X001612Y012196D01*
X001598Y012179D01*
X001581Y012165D01*
X001563Y012154D01*
X001543Y012146D01*
X001522Y012141D01*
X001500Y012139D01*
X000654Y012139D01*
X000654Y012139D01*
X000654Y012139D01*
X000654Y012139D01*
X000654Y012139D01*
X000654Y012139D01*
X000654Y004647D01*
X000851Y004647D01*
X000851Y002966D01*
X000654Y002966D01*
X000654Y002965D02*
X000653Y002891D01*
X000657Y002816D01*
X000665Y002742D01*
X000676Y002669D01*
X000691Y002596D01*
X000710Y002524D01*
X000733Y002453D01*
X000760Y002383D01*
X000790Y002315D01*
X000823Y002249D01*
X000860Y002184D01*
X000900Y002121D01*
X000944Y002061D01*
X000991Y002003D01*
X001040Y001947D01*
X001092Y001894D01*
X001148Y001844D01*
X001205Y001797D01*
X001265Y001752D01*
X001327Y001712D01*
X001392Y001674D01*
X001458Y001640D01*
X001526Y001609D01*
X001595Y001582D01*
X001666Y001558D01*
X001737Y001538D01*
X001810Y001522D01*
X001884Y001510D01*
X001958Y001501D01*
X002032Y001497D01*
X016856Y001497D02*
X016856Y001497D01*
X016856Y001497D01*
X016856Y001497D01*
X016856Y001497D01*
X016856Y001497D01*
X016856Y001635D02*
X016856Y001635D01*
X016856Y001635D01*
X016856Y001635D01*
X016856Y001635D01*
X016856Y001635D01*
X016856Y001635D01*
X016856Y001635D01*
X016856Y001635D01*
X016856Y001635D01*
X016856Y001635D01*
X018175Y002083D02*
X018177Y002110D01*
X018183Y002137D01*
X018192Y002163D01*
X018205Y002187D01*
X018221Y002210D01*
X018240Y002229D01*
X018262Y002246D01*
X018286Y002260D01*
X018311Y002270D01*
X018338Y002277D01*
X018365Y002280D01*
X018393Y002279D01*
X018420Y002274D01*
X018446Y002266D01*
X018470Y002254D01*
X018493Y002238D01*
X018514Y002220D01*
X018531Y002199D01*
X018546Y002175D01*
X018557Y002150D01*
X018565Y002124D01*
X018569Y002097D01*
X018569Y002069D01*
X018565Y002042D01*
X018557Y002016D01*
X018546Y001991D01*
X018531Y001967D01*
X018514Y001946D01*
X018493Y001928D01*
X018471Y001912D01*
X018446Y001900D01*
X018420Y001892D01*
X018393Y001887D01*
X018365Y001886D01*
X018338Y001889D01*
X018311Y001896D01*
X018286Y001906D01*
X018262Y001920D01*
X018240Y001937D01*
X018221Y001956D01*
X018205Y001979D01*
X018192Y002003D01*
X018183Y002029D01*
X018177Y002056D01*
X018175Y002083D01*
X026322Y004406D02*
X026322Y004406D01*
X026322Y004406D01*
X026322Y004406D01*
X026322Y004406D01*
X026322Y004406D01*
X026322Y004406D01*
X026322Y004406D01*
X026322Y004406D01*
X026322Y004406D01*
X026322Y004406D01*
X027426Y005607D02*
X027426Y005607D01*
X027426Y005607D01*
X027426Y005607D01*
X027426Y005607D01*
X027426Y005607D01*
X001500Y012139D02*
X001500Y012139D01*
X001500Y012139D01*
X001500Y012139D01*
X001500Y012139D01*
X001500Y012139D01*
X001500Y012139D01*
X001500Y012139D01*
X001500Y012139D01*
X001500Y012139D01*
X001500Y012139D01*
X000654Y012139D02*
X000654Y012139D01*
X000654Y012139D01*
X000654Y012139D01*
X000654Y012139D01*
X000654Y012139D01*
X000654Y013202D02*
X000654Y013202D01*
X000654Y013202D01*
X000654Y013202D01*
X000654Y013202D01*
X000654Y013202D01*
X001638Y013064D02*
X001638Y013064D01*
X001638Y013064D01*
X001638Y013064D01*
X001638Y013064D01*
X001638Y013064D01*
X001638Y013064D01*
X001638Y013064D01*
X001638Y013064D01*
X001638Y013064D01*
X001638Y013064D01*
X000851Y019107D02*
X000851Y019107D01*
X000851Y019107D01*
X000851Y019107D01*
X000851Y019107D01*
X000851Y019107D01*
X002663Y019853D02*
X002665Y019880D01*
X002671Y019907D01*
X002680Y019933D01*
X002693Y019957D01*
X002709Y019980D01*
X002728Y019999D01*
X002750Y020016D01*
X002774Y020030D01*
X002799Y020040D01*
X002826Y020047D01*
X002853Y020050D01*
X002881Y020049D01*
X002908Y020044D01*
X002934Y020036D01*
X002958Y020024D01*
X002981Y020008D01*
X003002Y019990D01*
X003019Y019969D01*
X003034Y019945D01*
X003045Y019920D01*
X003053Y019894D01*
X003057Y019867D01*
X003057Y019839D01*
X003053Y019812D01*
X003045Y019786D01*
X003034Y019761D01*
X003019Y019737D01*
X003002Y019716D01*
X002981Y019698D01*
X002959Y019682D01*
X002934Y019670D01*
X002908Y019662D01*
X002881Y019657D01*
X002853Y019656D01*
X002826Y019659D01*
X002799Y019666D01*
X002774Y019676D01*
X002750Y019690D01*
X002728Y019707D01*
X002709Y019726D01*
X002693Y019749D01*
X002680Y019773D01*
X002671Y019799D01*
X002665Y019826D01*
X002663Y019853D01*
X000851Y020789D02*
X000851Y020789D01*
X000851Y020789D01*
X000851Y020789D01*
X000851Y020789D01*
X000851Y020789D01*
X010190Y022167D02*
X010190Y022167D01*
X010190Y022167D01*
X010190Y022167D01*
X010190Y022167D01*
X010190Y022167D01*
X010190Y022167D01*
X010190Y022167D01*
X010190Y022167D01*
X010190Y022167D01*
X010190Y022167D01*
X010387Y021655D02*
X010387Y021655D01*
X010387Y021655D01*
X010387Y021655D01*
X010387Y021655D01*
X010387Y021655D01*
X010387Y021655D01*
X010387Y021655D01*
X010387Y021655D01*
X010387Y021655D01*
X010387Y021655D01*
X025370Y021458D02*
X025370Y021458D01*
X025370Y021458D01*
X025370Y021458D01*
X025370Y021458D01*
X025370Y021458D01*
X025370Y021458D01*
X025370Y021458D01*
X025370Y021458D01*
X025370Y021458D01*
X025370Y021458D01*
X026048Y022167D02*
X026048Y022167D01*
X026048Y022167D01*
X026048Y022167D01*
X026048Y022167D01*
X026048Y022167D01*
X026048Y022167D01*
X026048Y022167D01*
X026048Y022167D01*
X026048Y022167D01*
X026048Y022167D01*
X027150Y019436D02*
X027150Y019436D01*
X027150Y019436D01*
X027150Y019436D01*
X027150Y019436D01*
X027150Y019436D01*
X027150Y019436D01*
X027150Y019436D01*
X027150Y019436D01*
X027150Y019436D01*
X027150Y019436D01*
D11*
X023674Y020965D02*
X023676Y020987D01*
X023682Y021009D01*
X023691Y021029D01*
X023704Y021047D01*
X023720Y021063D01*
X023738Y021076D01*
X023758Y021085D01*
X023780Y021091D01*
X023802Y021093D01*
X023824Y021091D01*
X023846Y021085D01*
X023866Y021076D01*
X023884Y021063D01*
X023900Y021047D01*
X023913Y021029D01*
X023922Y021009D01*
X023928Y020987D01*
X023930Y020965D01*
X023928Y020943D01*
X023922Y020921D01*
X023913Y020901D01*
X023900Y020883D01*
X023884Y020867D01*
X023866Y020854D01*
X023846Y020845D01*
X023824Y020839D01*
X023802Y020837D01*
X023780Y020839D01*
X023758Y020845D01*
X023738Y020854D01*
X023720Y020867D01*
X023704Y020883D01*
X023691Y020901D01*
X023682Y020921D01*
X023676Y020943D01*
X023674Y020965D01*
X023005Y020965D02*
X023007Y020987D01*
X023013Y021009D01*
X023022Y021029D01*
X023035Y021047D01*
X023051Y021063D01*
X023069Y021076D01*
X023089Y021085D01*
X023111Y021091D01*
X023133Y021093D01*
X023155Y021091D01*
X023177Y021085D01*
X023197Y021076D01*
X023215Y021063D01*
X023231Y021047D01*
X023244Y021029D01*
X023253Y021009D01*
X023259Y020987D01*
X023261Y020965D01*
X023259Y020943D01*
X023253Y020921D01*
X023244Y020901D01*
X023231Y020883D01*
X023215Y020867D01*
X023197Y020854D01*
X023177Y020845D01*
X023155Y020839D01*
X023133Y020837D01*
X023111Y020839D01*
X023089Y020845D01*
X023069Y020854D01*
X023051Y020867D01*
X023035Y020883D01*
X023022Y020901D01*
X023013Y020921D01*
X023007Y020943D01*
X023005Y020965D01*
X018576Y020974D02*
X018578Y020996D01*
X018584Y021018D01*
X018593Y021038D01*
X018606Y021056D01*
X018622Y021072D01*
X018640Y021085D01*
X018660Y021094D01*
X018682Y021100D01*
X018704Y021102D01*
X018726Y021100D01*
X018748Y021094D01*
X018768Y021085D01*
X018786Y021072D01*
X018802Y021056D01*
X018815Y021038D01*
X018824Y021018D01*
X018830Y020996D01*
X018832Y020974D01*
X018830Y020952D01*
X018824Y020930D01*
X018815Y020910D01*
X018802Y020892D01*
X018786Y020876D01*
X018768Y020863D01*
X018748Y020854D01*
X018726Y020848D01*
X018704Y020846D01*
X018682Y020848D01*
X018660Y020854D01*
X018640Y020863D01*
X018622Y020876D01*
X018606Y020892D01*
X018593Y020910D01*
X018584Y020930D01*
X018578Y020952D01*
X018576Y020974D01*
X017907Y020974D02*
X017909Y020996D01*
X017915Y021018D01*
X017924Y021038D01*
X017937Y021056D01*
X017953Y021072D01*
X017971Y021085D01*
X017991Y021094D01*
X018013Y021100D01*
X018035Y021102D01*
X018057Y021100D01*
X018079Y021094D01*
X018099Y021085D01*
X018117Y021072D01*
X018133Y021056D01*
X018146Y021038D01*
X018155Y021018D01*
X018161Y020996D01*
X018163Y020974D01*
X018161Y020952D01*
X018155Y020930D01*
X018146Y020910D01*
X018133Y020892D01*
X018117Y020876D01*
X018099Y020863D01*
X018079Y020854D01*
X018057Y020848D01*
X018035Y020846D01*
X018013Y020848D01*
X017991Y020854D01*
X017971Y020863D01*
X017953Y020876D01*
X017937Y020892D01*
X017924Y020910D01*
X017915Y020930D01*
X017909Y020952D01*
X017907Y020974D01*
X013458Y020976D02*
X013460Y020998D01*
X013466Y021020D01*
X013475Y021040D01*
X013488Y021058D01*
X013504Y021074D01*
X013522Y021087D01*
X013542Y021096D01*
X013564Y021102D01*
X013586Y021104D01*
X013608Y021102D01*
X013630Y021096D01*
X013650Y021087D01*
X013668Y021074D01*
X013684Y021058D01*
X013697Y021040D01*
X013706Y021020D01*
X013712Y020998D01*
X013714Y020976D01*
X013712Y020954D01*
X013706Y020932D01*
X013697Y020912D01*
X013684Y020894D01*
X013668Y020878D01*
X013650Y020865D01*
X013630Y020856D01*
X013608Y020850D01*
X013586Y020848D01*
X013564Y020850D01*
X013542Y020856D01*
X013522Y020865D01*
X013504Y020878D01*
X013488Y020894D01*
X013475Y020912D01*
X013466Y020932D01*
X013460Y020954D01*
X013458Y020976D01*
X012788Y020976D02*
X012790Y020998D01*
X012796Y021020D01*
X012805Y021040D01*
X012818Y021058D01*
X012834Y021074D01*
X012852Y021087D01*
X012872Y021096D01*
X012894Y021102D01*
X012916Y021104D01*
X012938Y021102D01*
X012960Y021096D01*
X012980Y021087D01*
X012998Y021074D01*
X013014Y021058D01*
X013027Y021040D01*
X013036Y021020D01*
X013042Y020998D01*
X013044Y020976D01*
X013042Y020954D01*
X013036Y020932D01*
X013027Y020912D01*
X013014Y020894D01*
X012998Y020878D01*
X012980Y020865D01*
X012960Y020856D01*
X012938Y020850D01*
X012916Y020848D01*
X012894Y020850D01*
X012872Y020856D01*
X012852Y020865D01*
X012834Y020878D01*
X012818Y020894D01*
X012805Y020912D01*
X012796Y020932D01*
X012790Y020954D01*
X012788Y020976D01*
X004806Y017834D02*
X004808Y017864D01*
X004814Y017894D01*
X004823Y017923D01*
X004836Y017950D01*
X004853Y017975D01*
X004872Y017998D01*
X004895Y018019D01*
X004920Y018036D01*
X004946Y018050D01*
X004975Y018060D01*
X005004Y018067D01*
X005034Y018070D01*
X005065Y018069D01*
X005095Y018064D01*
X005124Y018055D01*
X005151Y018043D01*
X005177Y018028D01*
X005201Y018009D01*
X005222Y017987D01*
X005240Y017963D01*
X005255Y017936D01*
X005266Y017908D01*
X005274Y017879D01*
X005278Y017849D01*
X005278Y017819D01*
X005274Y017789D01*
X005266Y017760D01*
X005255Y017732D01*
X005240Y017705D01*
X005222Y017681D01*
X005201Y017659D01*
X005177Y017640D01*
X005151Y017625D01*
X005124Y017613D01*
X005095Y017604D01*
X005065Y017599D01*
X005034Y017598D01*
X005004Y017601D01*
X004975Y017608D01*
X004946Y017618D01*
X004920Y017632D01*
X004895Y017649D01*
X004872Y017670D01*
X004853Y017693D01*
X004836Y017718D01*
X004823Y017745D01*
X004814Y017774D01*
X004808Y017804D01*
X004806Y017834D01*
X022806Y017834D02*
X022808Y017864D01*
X022814Y017894D01*
X022823Y017923D01*
X022836Y017950D01*
X022853Y017975D01*
X022872Y017998D01*
X022895Y018019D01*
X022920Y018036D01*
X022946Y018050D01*
X022975Y018060D01*
X023004Y018067D01*
X023034Y018070D01*
X023065Y018069D01*
X023095Y018064D01*
X023124Y018055D01*
X023151Y018043D01*
X023177Y018028D01*
X023201Y018009D01*
X023222Y017987D01*
X023240Y017963D01*
X023255Y017936D01*
X023266Y017908D01*
X023274Y017879D01*
X023278Y017849D01*
X023278Y017819D01*
X023274Y017789D01*
X023266Y017760D01*
X023255Y017732D01*
X023240Y017705D01*
X023222Y017681D01*
X023201Y017659D01*
X023177Y017640D01*
X023151Y017625D01*
X023124Y017613D01*
X023095Y017604D01*
X023065Y017599D01*
X023034Y017598D01*
X023004Y017601D01*
X022975Y017608D01*
X022946Y017618D01*
X022920Y017632D01*
X022895Y017649D01*
X022872Y017670D01*
X022853Y017693D01*
X022836Y017718D01*
X022823Y017745D01*
X022814Y017774D01*
X022808Y017804D01*
X022806Y017834D01*
X026448Y017742D02*
X026450Y017766D01*
X026456Y017789D01*
X026465Y017811D01*
X026478Y017831D01*
X026493Y017849D01*
X026512Y017864D01*
X026533Y017876D01*
X026555Y017884D01*
X026578Y017889D01*
X026602Y017890D01*
X026626Y017887D01*
X026648Y017880D01*
X026670Y017870D01*
X026690Y017857D01*
X026707Y017840D01*
X026721Y017821D01*
X026732Y017800D01*
X026740Y017777D01*
X026744Y017754D01*
X026744Y017730D01*
X026740Y017707D01*
X026732Y017684D01*
X026721Y017663D01*
X026707Y017644D01*
X026690Y017627D01*
X026670Y017614D01*
X026648Y017604D01*
X026626Y017597D01*
X026602Y017594D01*
X026578Y017595D01*
X026555Y017600D01*
X026533Y017608D01*
X026512Y017620D01*
X026493Y017635D01*
X026478Y017653D01*
X026465Y017673D01*
X026456Y017695D01*
X026450Y017718D01*
X026448Y017742D01*
X026448Y013687D02*
X026450Y013711D01*
X026456Y013734D01*
X026465Y013756D01*
X026478Y013776D01*
X026493Y013794D01*
X026512Y013809D01*
X026533Y013821D01*
X026555Y013829D01*
X026578Y013834D01*
X026602Y013835D01*
X026626Y013832D01*
X026648Y013825D01*
X026670Y013815D01*
X026690Y013802D01*
X026707Y013785D01*
X026721Y013766D01*
X026732Y013745D01*
X026740Y013722D01*
X026744Y013699D01*
X026744Y013675D01*
X026740Y013652D01*
X026732Y013629D01*
X026721Y013608D01*
X026707Y013589D01*
X026690Y013572D01*
X026670Y013559D01*
X026648Y013549D01*
X026626Y013542D01*
X026602Y013539D01*
X026578Y013540D01*
X026555Y013545D01*
X026533Y013553D01*
X026512Y013565D01*
X026493Y013580D01*
X026478Y013598D01*
X026465Y013618D01*
X026456Y013640D01*
X026450Y013663D01*
X026448Y013687D01*
X025424Y009916D02*
X025426Y009942D01*
X025432Y009968D01*
X025442Y009993D01*
X025455Y010016D01*
X025471Y010036D01*
X025491Y010054D01*
X025513Y010069D01*
X025536Y010081D01*
X025562Y010089D01*
X025588Y010093D01*
X025614Y010093D01*
X025640Y010089D01*
X025666Y010081D01*
X025690Y010069D01*
X025711Y010054D01*
X025731Y010036D01*
X025747Y010016D01*
X025760Y009993D01*
X025770Y009968D01*
X025776Y009942D01*
X025778Y009916D01*
X025776Y009890D01*
X025770Y009864D01*
X025760Y009839D01*
X025747Y009816D01*
X025731Y009796D01*
X025711Y009778D01*
X025689Y009763D01*
X025666Y009751D01*
X025640Y009743D01*
X025614Y009739D01*
X025588Y009739D01*
X025562Y009743D01*
X025536Y009751D01*
X025512Y009763D01*
X025491Y009778D01*
X025471Y009796D01*
X025455Y009816D01*
X025442Y009839D01*
X025432Y009864D01*
X025426Y009890D01*
X025424Y009916D01*
X025424Y006766D02*
X025426Y006792D01*
X025432Y006818D01*
X025442Y006843D01*
X025455Y006866D01*
X025471Y006886D01*
X025491Y006904D01*
X025513Y006919D01*
X025536Y006931D01*
X025562Y006939D01*
X025588Y006943D01*
X025614Y006943D01*
X025640Y006939D01*
X025666Y006931D01*
X025690Y006919D01*
X025711Y006904D01*
X025731Y006886D01*
X025747Y006866D01*
X025760Y006843D01*
X025770Y006818D01*
X025776Y006792D01*
X025778Y006766D01*
X025776Y006740D01*
X025770Y006714D01*
X025760Y006689D01*
X025747Y006666D01*
X025731Y006646D01*
X025711Y006628D01*
X025689Y006613D01*
X025666Y006601D01*
X025640Y006593D01*
X025614Y006589D01*
X025588Y006589D01*
X025562Y006593D01*
X025536Y006601D01*
X025512Y006613D01*
X025491Y006628D01*
X025471Y006646D01*
X025455Y006666D01*
X025442Y006689D01*
X025432Y006714D01*
X025426Y006740D01*
X025424Y006766D01*
X015077Y003475D02*
X015079Y003495D01*
X015085Y003515D01*
X015094Y003533D01*
X015107Y003550D01*
X015122Y003563D01*
X015140Y003573D01*
X015160Y003580D01*
X015180Y003583D01*
X015200Y003582D01*
X015220Y003577D01*
X015239Y003569D01*
X015256Y003557D01*
X015270Y003542D01*
X015281Y003524D01*
X015289Y003505D01*
X015293Y003485D01*
X015293Y003465D01*
X015289Y003445D01*
X015281Y003426D01*
X015270Y003408D01*
X015256Y003393D01*
X015239Y003381D01*
X015220Y003373D01*
X015200Y003368D01*
X015180Y003367D01*
X015160Y003370D01*
X015140Y003377D01*
X015122Y003387D01*
X015107Y003400D01*
X015094Y003417D01*
X015085Y003435D01*
X015079Y003455D01*
X015077Y003475D01*
X012801Y003475D02*
X012803Y003495D01*
X012809Y003515D01*
X012818Y003533D01*
X012831Y003550D01*
X012846Y003563D01*
X012864Y003573D01*
X012884Y003580D01*
X012904Y003583D01*
X012924Y003582D01*
X012944Y003577D01*
X012963Y003569D01*
X012980Y003557D01*
X012994Y003542D01*
X013005Y003524D01*
X013013Y003505D01*
X013017Y003485D01*
X013017Y003465D01*
X013013Y003445D01*
X013005Y003426D01*
X012994Y003408D01*
X012980Y003393D01*
X012963Y003381D01*
X012944Y003373D01*
X012924Y003368D01*
X012904Y003367D01*
X012884Y003370D01*
X012864Y003377D01*
X012846Y003387D01*
X012831Y003400D01*
X012818Y003417D01*
X012809Y003435D01*
X012803Y003455D01*
X012801Y003475D01*
X009753Y002315D02*
X009755Y002350D01*
X009761Y002385D01*
X009771Y002419D01*
X009784Y002452D01*
X009801Y002483D01*
X009822Y002511D01*
X009845Y002538D01*
X009872Y002561D01*
X009900Y002582D01*
X009931Y002599D01*
X009964Y002612D01*
X009998Y002622D01*
X010033Y002628D01*
X010068Y002630D01*
X010103Y002628D01*
X010138Y002622D01*
X010172Y002612D01*
X010205Y002599D01*
X010236Y002582D01*
X010264Y002561D01*
X010291Y002538D01*
X010314Y002511D01*
X010335Y002483D01*
X010352Y002452D01*
X010365Y002419D01*
X010375Y002385D01*
X010381Y002350D01*
X010383Y002315D01*
X010381Y002280D01*
X010375Y002245D01*
X010365Y002211D01*
X010352Y002178D01*
X010335Y002147D01*
X010314Y002119D01*
X010291Y002092D01*
X010264Y002069D01*
X010236Y002048D01*
X010205Y002031D01*
X010172Y002018D01*
X010138Y002008D01*
X010103Y002002D01*
X010068Y002000D01*
X010033Y002002D01*
X009998Y002008D01*
X009964Y002018D01*
X009931Y002031D01*
X009900Y002048D01*
X009872Y002069D01*
X009845Y002092D01*
X009822Y002119D01*
X009801Y002147D01*
X009784Y002178D01*
X009771Y002211D01*
X009761Y002245D01*
X009755Y002280D01*
X009753Y002315D01*
X003577Y002611D02*
X003579Y002634D01*
X003585Y002657D01*
X003595Y002678D01*
X003608Y002698D01*
X003624Y002715D01*
X003643Y002729D01*
X003664Y002739D01*
X003686Y002746D01*
X003709Y002749D01*
X003733Y002748D01*
X003755Y002743D01*
X003777Y002734D01*
X003797Y002722D01*
X003815Y002706D01*
X003829Y002688D01*
X003841Y002668D01*
X003849Y002646D01*
X003853Y002623D01*
X003853Y002599D01*
X003849Y002576D01*
X003841Y002554D01*
X003829Y002534D01*
X003815Y002516D01*
X003797Y002500D01*
X003777Y002488D01*
X003755Y002479D01*
X003733Y002474D01*
X003709Y002473D01*
X003686Y002476D01*
X003664Y002483D01*
X003643Y002493D01*
X003624Y002507D01*
X003608Y002524D01*
X003595Y002544D01*
X003585Y002565D01*
X003579Y002588D01*
X003577Y002611D01*
X002460Y003669D02*
X002462Y003696D01*
X002468Y003723D01*
X002477Y003749D01*
X002490Y003773D01*
X002506Y003796D01*
X002525Y003815D01*
X002547Y003832D01*
X002571Y003846D01*
X002596Y003856D01*
X002623Y003863D01*
X002650Y003866D01*
X002678Y003865D01*
X002705Y003860D01*
X002731Y003852D01*
X002755Y003840D01*
X002778Y003824D01*
X002799Y003806D01*
X002816Y003785D01*
X002831Y003761D01*
X002842Y003736D01*
X002850Y003710D01*
X002854Y003683D01*
X002854Y003655D01*
X002850Y003628D01*
X002842Y003602D01*
X002831Y003577D01*
X002816Y003553D01*
X002799Y003532D01*
X002778Y003514D01*
X002756Y003498D01*
X002731Y003486D01*
X002705Y003478D01*
X002678Y003473D01*
X002650Y003472D01*
X002623Y003475D01*
X002596Y003482D01*
X002571Y003492D01*
X002547Y003506D01*
X002525Y003523D01*
X002506Y003542D01*
X002490Y003565D01*
X002477Y003589D01*
X002468Y003615D01*
X002462Y003642D01*
X002460Y003669D01*
D12*
X016522Y003237D02*
X016522Y002987D01*
X016272Y002987D01*
X016272Y003237D01*
X016522Y003237D01*
X016522Y003236D02*
X016272Y003236D01*
X017309Y003237D02*
X017309Y002987D01*
X017059Y002987D01*
X017059Y003237D01*
X017309Y003237D01*
X017309Y003236D02*
X017059Y003236D01*
X018097Y003237D02*
X018097Y002987D01*
X017847Y002987D01*
X017847Y003237D01*
X018097Y003237D01*
X018097Y003236D02*
X017847Y003236D01*
X018884Y003237D02*
X018884Y002987D01*
X018634Y002987D01*
X018634Y003237D01*
X018884Y003237D01*
X018884Y003236D02*
X018634Y003236D01*
X019672Y003237D02*
X019672Y002987D01*
X019422Y002987D01*
X019422Y003237D01*
X019672Y003237D01*
X019672Y003236D02*
X019422Y003236D01*
X020459Y003237D02*
X020459Y002987D01*
X020209Y002987D01*
X020209Y003237D01*
X020459Y003237D01*
X020459Y003236D02*
X020209Y003236D01*
D13*
X020509Y010209D02*
X019623Y010209D01*
X019623Y010307D01*
X020509Y010307D01*
X020509Y010209D01*
X020509Y010306D02*
X019623Y010306D01*
X019623Y010524D02*
X020509Y010524D01*
X019623Y010524D02*
X019623Y010622D01*
X020509Y010622D01*
X020509Y010524D01*
X020509Y010621D02*
X019623Y010621D01*
X019623Y010839D02*
X020509Y010839D01*
X019623Y010839D02*
X019623Y010937D01*
X020509Y010937D01*
X020509Y010839D01*
X020509Y010936D02*
X019623Y010936D01*
X019623Y011154D02*
X020509Y011154D01*
X019623Y011154D02*
X019623Y011252D01*
X020509Y011252D01*
X020509Y011154D01*
X020509Y011251D02*
X019623Y011251D01*
X019623Y011469D02*
X020509Y011469D01*
X019623Y011469D02*
X019623Y011567D01*
X020509Y011567D01*
X020509Y011469D01*
X020509Y011566D02*
X019623Y011566D01*
X019623Y011783D02*
X020509Y011783D01*
X019623Y011783D02*
X019623Y011881D01*
X020509Y011881D01*
X020509Y011783D01*
X020509Y011880D02*
X019623Y011880D01*
X019623Y012098D02*
X020509Y012098D01*
X019623Y012098D02*
X019623Y012196D01*
X020509Y012196D01*
X020509Y012098D01*
X020509Y012195D02*
X019623Y012195D01*
X019623Y012413D02*
X020509Y012413D01*
X019623Y012413D02*
X019623Y012511D01*
X020509Y012511D01*
X020509Y012413D01*
X020509Y012510D02*
X019623Y012510D01*
X019623Y012728D02*
X020509Y012728D01*
X019623Y012728D02*
X019623Y012826D01*
X020509Y012826D01*
X020509Y012728D01*
X020509Y012825D02*
X019623Y012825D01*
X019623Y013043D02*
X020509Y013043D01*
X019623Y013043D02*
X019623Y013141D01*
X020509Y013141D01*
X020509Y013043D01*
X020509Y013140D02*
X019623Y013140D01*
X019623Y013358D02*
X020509Y013358D01*
X019623Y013358D02*
X019623Y013456D01*
X020509Y013456D01*
X020509Y013358D01*
X020509Y013455D02*
X019623Y013455D01*
X019623Y013673D02*
X020509Y013673D01*
X019623Y013673D02*
X019623Y013771D01*
X020509Y013771D01*
X020509Y013673D01*
X020509Y013770D02*
X019623Y013770D01*
X019623Y013988D02*
X020509Y013988D01*
X019623Y013988D02*
X019623Y014086D01*
X020509Y014086D01*
X020509Y013988D01*
X020509Y014085D02*
X019623Y014085D01*
X019623Y014303D02*
X020509Y014303D01*
X019623Y014303D02*
X019623Y014401D01*
X020509Y014401D01*
X020509Y014303D01*
X020509Y014400D02*
X019623Y014400D01*
X019623Y014618D02*
X020509Y014618D01*
X019623Y014618D02*
X019623Y014716D01*
X020509Y014716D01*
X020509Y014618D01*
X020509Y014715D02*
X019623Y014715D01*
X019623Y014933D02*
X020509Y014933D01*
X019623Y014933D02*
X019623Y015031D01*
X020509Y015031D01*
X020509Y014933D01*
X020509Y015030D02*
X019623Y015030D01*
X019623Y015248D02*
X020509Y015248D01*
X019623Y015248D02*
X019623Y015346D01*
X020509Y015346D01*
X020509Y015248D01*
X020509Y015345D02*
X019623Y015345D01*
X019623Y015563D02*
X020509Y015563D01*
X019623Y015563D02*
X019623Y015661D01*
X020509Y015661D01*
X020509Y015563D01*
X020509Y015660D02*
X019623Y015660D01*
D14*
X024063Y002309D03*
D15*
X023620Y002309D02*
X023622Y002350D01*
X023628Y002392D01*
X023637Y002432D01*
X023651Y002471D01*
X023668Y002509D01*
X023688Y002545D01*
X023712Y002579D01*
X023739Y002611D01*
X023769Y002640D01*
X023801Y002666D01*
X023836Y002689D01*
X023872Y002709D01*
X023910Y002725D01*
X023950Y002737D01*
X023991Y002746D01*
X024032Y002751D01*
X024073Y002752D01*
X024115Y002749D01*
X024156Y002742D01*
X024196Y002732D01*
X024235Y002717D01*
X024272Y002699D01*
X024308Y002678D01*
X024342Y002653D01*
X024373Y002626D01*
X024401Y002596D01*
X024426Y002563D01*
X024448Y002527D01*
X024467Y002490D01*
X024482Y002452D01*
X024494Y002412D01*
X024502Y002371D01*
X024506Y002330D01*
X024506Y002288D01*
X024502Y002247D01*
X024494Y002206D01*
X024482Y002166D01*
X024467Y002128D01*
X024448Y002091D01*
X024426Y002055D01*
X024401Y002022D01*
X024373Y001992D01*
X024342Y001965D01*
X024308Y001940D01*
X024272Y001919D01*
X024235Y001901D01*
X024196Y001886D01*
X024156Y001876D01*
X024115Y001869D01*
X024073Y001866D01*
X024032Y001867D01*
X023991Y001872D01*
X023950Y001881D01*
X023910Y001893D01*
X023872Y001909D01*
X023836Y001929D01*
X023801Y001952D01*
X023769Y001978D01*
X023739Y002007D01*
X023712Y002039D01*
X023688Y002073D01*
X023668Y002109D01*
X023651Y002147D01*
X023637Y002186D01*
X023628Y002226D01*
X023622Y002268D01*
X023620Y002309D01*
D16*
X020996Y001796D03*
D17*
X021055Y003174D03*
X022748Y003174D03*
D18*
G36*
X004064Y003489D02*
X004619Y004044D01*
X004870Y003793D01*
X004315Y003238D01*
X004064Y003489D01*
G37*
G36*
X003674Y003879D02*
X004229Y004434D01*
X004480Y004183D01*
X003925Y003628D01*
X003674Y003879D01*
G37*
G36*
X003284Y004268D02*
X003839Y004823D01*
X004090Y004572D01*
X003535Y004017D01*
X003284Y004268D01*
G37*
G36*
X001503Y002487D02*
X002058Y003042D01*
X002309Y002791D01*
X001754Y002236D01*
X001503Y002487D01*
G37*
G36*
X001892Y002097D02*
X002447Y002652D01*
X002698Y002401D01*
X002143Y001846D01*
X001892Y002097D01*
G37*
G36*
X002282Y001707D02*
X002837Y002262D01*
X003088Y002011D01*
X002533Y001456D01*
X002282Y001707D01*
G37*
D19*
G36*
X004300Y001609D02*
X003883Y002026D01*
X004300Y002443D01*
X004717Y002026D01*
X004300Y001609D01*
G37*
G36*
X002073Y003836D02*
X001656Y004253D01*
X002073Y004670D01*
X002490Y004253D01*
X002073Y003836D01*
G37*
M02*
