G75*
G70*
%OFA0B0*%
%FSLAX24Y24*%
%IPPOS*%
%LPD*%
%AMOC8*
5,1,8,0,0,1.08239X$1,22.5*
%
%ADD10C,0.0040*%
%ADD11C,0.0100*%
%ADD12C,0.0120*%
%ADD13C,0.0050*%
%ADD14C,0.0000*%
%ADD15C,0.0000*%
%ADD16C,0.0060*%
%ADD17C,0.0030*%
%ADD18C,0.0039*%
%ADD19C,0.0200*%
%ADD20C,0.0080*%
%ADD21R,0.0200X0.0900*%
D10*
X003271Y003335D02*
X003426Y003335D01*
X003478Y003387D01*
X003478Y003593D01*
X003426Y003645D01*
X003271Y003645D01*
X003271Y003335D01*
X003593Y003335D02*
X003800Y003645D01*
X003915Y003542D02*
X004019Y003645D01*
X004122Y003542D01*
X004122Y003335D01*
X004122Y003490D02*
X003915Y003490D01*
X003915Y003542D02*
X003915Y003335D01*
X024228Y003145D02*
X024332Y003145D01*
X024280Y003145D02*
X024280Y002835D01*
X024228Y002835D02*
X024332Y002835D01*
X024443Y002835D02*
X024650Y003042D01*
X024650Y003093D01*
X024598Y003145D01*
X024495Y003145D01*
X024443Y003093D01*
X024443Y002835D02*
X024650Y002835D01*
X024765Y002887D02*
X024817Y002835D01*
X024920Y002835D01*
X024972Y002887D01*
X024972Y003093D02*
X024920Y003145D01*
X024817Y003145D01*
X024765Y003093D01*
X024765Y002887D01*
X030388Y003035D02*
X030594Y003035D01*
X030710Y003035D02*
X030710Y003242D01*
X030813Y003345D01*
X030917Y003242D01*
X030917Y003035D01*
X030917Y003190D02*
X030710Y003190D01*
X031032Y003293D02*
X031135Y003190D01*
X031135Y003035D01*
X031135Y003190D02*
X031239Y003293D01*
X031239Y003345D01*
X031354Y003345D02*
X031354Y003035D01*
X031561Y003035D01*
X031677Y003035D02*
X031677Y003345D01*
X031832Y003345D01*
X031883Y003293D01*
X031883Y003190D01*
X031832Y003138D01*
X031677Y003138D01*
X031780Y003138D02*
X031883Y003035D01*
X032321Y003035D02*
X032528Y003242D01*
X032528Y003293D01*
X032476Y003345D01*
X032373Y003345D01*
X032321Y003293D01*
X032321Y003035D02*
X032528Y003035D01*
X032966Y003190D02*
X033173Y003190D01*
X033610Y003293D02*
X033610Y003087D01*
X033662Y003035D01*
X033765Y003035D01*
X033817Y003087D01*
X033817Y003190D01*
X033714Y003190D01*
X033817Y003293D02*
X033765Y003345D01*
X033662Y003345D01*
X033610Y003293D01*
X033933Y003345D02*
X034139Y003035D01*
X034139Y003345D01*
X034255Y003345D02*
X034410Y003345D01*
X034462Y003293D01*
X034462Y003087D01*
X034410Y003035D01*
X034255Y003035D01*
X034255Y003345D01*
X033933Y003345D02*
X033933Y003035D01*
X033984Y002595D02*
X033933Y002543D01*
X033933Y002337D01*
X033984Y002285D01*
X034088Y002285D01*
X034139Y002337D01*
X034139Y002543D01*
X034088Y002595D01*
X033984Y002595D01*
X033817Y002543D02*
X033765Y002595D01*
X033610Y002595D01*
X033610Y002285D01*
X033610Y002388D02*
X033765Y002388D01*
X033817Y002440D01*
X033817Y002543D01*
X034255Y002595D02*
X034255Y002285D01*
X034358Y002388D01*
X034462Y002285D01*
X034462Y002595D01*
X034577Y002595D02*
X034577Y002285D01*
X034784Y002285D01*
X034899Y002285D02*
X034899Y002595D01*
X035054Y002595D01*
X035106Y002543D01*
X035106Y002440D01*
X035054Y002388D01*
X034899Y002388D01*
X035003Y002388D02*
X035106Y002285D01*
X034680Y002440D02*
X034577Y002440D01*
X034577Y002595D02*
X034784Y002595D01*
X036138Y002595D02*
X036138Y002285D01*
X036138Y002440D02*
X036344Y002440D01*
X036460Y002440D02*
X036667Y002440D01*
X036667Y002492D02*
X036667Y002285D01*
X036782Y002285D02*
X036989Y002285D01*
X037104Y002285D02*
X037104Y002595D01*
X037311Y002595D01*
X037427Y002492D02*
X037633Y002492D01*
X037633Y002388D02*
X037427Y002388D01*
X037208Y002440D02*
X037104Y002440D01*
X036782Y002595D02*
X036782Y002285D01*
X036667Y002492D02*
X036563Y002595D01*
X036460Y002492D01*
X036460Y002285D01*
X036344Y002285D02*
X036344Y002595D01*
X036344Y003035D02*
X036344Y003345D01*
X036344Y003190D02*
X036138Y003190D01*
X036138Y003035D02*
X036138Y003345D01*
X036460Y003242D02*
X036563Y003345D01*
X036667Y003242D01*
X036667Y003035D01*
X036782Y003035D02*
X036989Y003035D01*
X037104Y003035D02*
X037104Y003345D01*
X037311Y003345D01*
X037427Y003242D02*
X037633Y003242D01*
X037633Y003138D02*
X037427Y003138D01*
X037208Y003190D02*
X037104Y003190D01*
X036782Y003345D02*
X036782Y003035D01*
X036667Y003190D02*
X036460Y003190D01*
X036460Y003242D02*
X036460Y003035D01*
X037749Y003087D02*
X037749Y003293D01*
X037801Y003345D01*
X037904Y003345D01*
X037956Y003293D01*
X037749Y003087D01*
X037801Y003035D01*
X037904Y003035D01*
X037956Y003087D01*
X037956Y003293D01*
X038071Y003087D02*
X038123Y003087D01*
X038123Y003035D01*
X038071Y003035D01*
X038071Y003087D01*
X038232Y003087D02*
X038284Y003035D01*
X038387Y003035D01*
X038439Y003087D01*
X038439Y003190D01*
X038387Y003242D01*
X038336Y003242D01*
X038232Y003190D01*
X038232Y003345D01*
X038439Y003345D01*
X038555Y003293D02*
X038555Y003087D01*
X038606Y003035D01*
X038710Y003035D01*
X038761Y003087D01*
X038761Y003293D01*
X038710Y003345D01*
X038606Y003345D01*
X038555Y003293D01*
X038877Y003345D02*
X039084Y003345D01*
X039084Y003293D01*
X038877Y003087D01*
X038877Y003035D01*
X039084Y003035D01*
X039084Y002595D02*
X039084Y002543D01*
X038877Y002337D01*
X038877Y002285D01*
X039084Y002285D01*
X038761Y002337D02*
X038710Y002285D01*
X038606Y002285D01*
X038555Y002337D01*
X038555Y002543D01*
X038606Y002595D01*
X038710Y002595D01*
X038761Y002543D01*
X038761Y002337D01*
X038877Y002595D02*
X039084Y002595D01*
X038439Y002595D02*
X038232Y002595D01*
X038232Y002440D01*
X038336Y002492D01*
X038387Y002492D01*
X038439Y002440D01*
X038439Y002337D01*
X038387Y002285D01*
X038284Y002285D01*
X038232Y002337D01*
X038123Y002337D02*
X038123Y002285D01*
X038071Y002285D01*
X038071Y002337D01*
X038123Y002337D01*
X037956Y002337D02*
X037904Y002285D01*
X037801Y002285D01*
X037749Y002337D01*
X037956Y002543D01*
X037956Y002337D01*
X037956Y002543D02*
X037904Y002595D01*
X037801Y002595D01*
X037749Y002543D01*
X037749Y002337D01*
X037749Y001795D02*
X037904Y001795D01*
X037956Y001743D01*
X037956Y001640D01*
X037904Y001588D01*
X037749Y001588D01*
X037749Y001485D02*
X037749Y001795D01*
X037633Y001640D02*
X037427Y001640D01*
X037530Y001743D02*
X037530Y001537D01*
X037208Y001640D02*
X037104Y001640D01*
X037104Y001795D02*
X037311Y001795D01*
X037104Y001795D02*
X037104Y001485D01*
X036989Y001485D02*
X036782Y001485D01*
X036782Y001795D01*
X036667Y001692D02*
X036667Y001485D01*
X036667Y001640D02*
X036460Y001640D01*
X036460Y001692D02*
X036563Y001795D01*
X036667Y001692D01*
X036460Y001692D02*
X036460Y001485D01*
X036344Y001485D02*
X036344Y001795D01*
X036344Y001640D02*
X036138Y001640D01*
X036138Y001485D02*
X036138Y001795D01*
X034462Y001485D02*
X034255Y001485D01*
X034255Y001795D01*
X034139Y001743D02*
X034139Y001692D01*
X034088Y001640D01*
X033933Y001640D01*
X033817Y001640D02*
X033714Y001640D01*
X033817Y001640D02*
X033817Y001537D01*
X033765Y001485D01*
X033662Y001485D01*
X033610Y001537D01*
X033610Y001743D01*
X033662Y001795D01*
X033765Y001795D01*
X033817Y001743D01*
X033933Y001795D02*
X034088Y001795D01*
X034139Y001743D01*
X034088Y001640D02*
X034139Y001588D01*
X034139Y001537D01*
X034088Y001485D01*
X033933Y001485D01*
X033933Y001795D01*
X033173Y001640D02*
X032966Y001640D01*
X032528Y001640D02*
X032321Y001640D01*
X032476Y001795D01*
X032476Y001485D01*
X031883Y001485D02*
X031780Y001588D01*
X031832Y001588D02*
X031677Y001588D01*
X031677Y001485D02*
X031677Y001795D01*
X031832Y001795D01*
X031883Y001743D01*
X031883Y001640D01*
X031832Y001588D01*
X031561Y001485D02*
X031354Y001485D01*
X031354Y001795D01*
X031561Y001795D01*
X031458Y001640D02*
X031354Y001640D01*
X031239Y001743D02*
X031239Y001795D01*
X031239Y001743D02*
X031135Y001640D01*
X031135Y001485D01*
X031135Y001640D02*
X031032Y001743D01*
X031032Y001795D01*
X030917Y001692D02*
X030917Y001485D01*
X030917Y001640D02*
X030710Y001640D01*
X030710Y001692D02*
X030813Y001795D01*
X030917Y001692D01*
X030710Y001692D02*
X030710Y001485D01*
X030594Y001485D02*
X030388Y001485D01*
X030388Y001795D01*
X030388Y002285D02*
X030594Y002285D01*
X030710Y002285D02*
X030710Y002492D01*
X030813Y002595D01*
X030917Y002492D01*
X030917Y002285D01*
X030917Y002440D02*
X030710Y002440D01*
X031032Y002543D02*
X031135Y002440D01*
X031135Y002285D01*
X031135Y002440D02*
X031239Y002543D01*
X031239Y002595D01*
X031354Y002595D02*
X031354Y002285D01*
X031561Y002285D01*
X031677Y002285D02*
X031677Y002595D01*
X031832Y002595D01*
X031883Y002543D01*
X031883Y002440D01*
X031832Y002388D01*
X031677Y002388D01*
X031780Y002388D02*
X031883Y002285D01*
X032321Y002337D02*
X032373Y002285D01*
X032476Y002285D01*
X032528Y002337D01*
X032528Y002388D01*
X032476Y002440D01*
X032425Y002440D01*
X032476Y002440D02*
X032528Y002492D01*
X032528Y002543D01*
X032476Y002595D01*
X032373Y002595D01*
X032321Y002543D01*
X032966Y002440D02*
X033173Y002440D01*
X031561Y002595D02*
X031354Y002595D01*
X031354Y002440D02*
X031458Y002440D01*
X031032Y002543D02*
X031032Y002595D01*
X030388Y002595D02*
X030388Y002285D01*
X030388Y003035D02*
X030388Y003345D01*
X031032Y003345D02*
X031032Y003293D01*
X031354Y003345D02*
X031561Y003345D01*
X031458Y003190D02*
X031354Y003190D01*
X031354Y003785D02*
X031561Y003785D01*
X031677Y003785D02*
X031677Y004095D01*
X031832Y004095D01*
X031883Y004043D01*
X031883Y003940D01*
X031832Y003888D01*
X031677Y003888D01*
X031780Y003888D02*
X031883Y003785D01*
X032321Y003785D02*
X032528Y003785D01*
X032425Y003785D02*
X032425Y004095D01*
X032321Y003992D01*
X032966Y003940D02*
X033173Y003940D01*
X033610Y004043D02*
X033610Y003837D01*
X033662Y003785D01*
X033765Y003785D01*
X033817Y003837D01*
X033817Y003940D01*
X033714Y003940D01*
X033817Y004043D02*
X033765Y004095D01*
X033662Y004095D01*
X033610Y004043D01*
X033933Y004095D02*
X034139Y004095D01*
X034036Y004095D02*
X034036Y003785D01*
X034255Y003785D02*
X034462Y003785D01*
X034255Y003785D02*
X034255Y004095D01*
X036138Y004095D02*
X036138Y003785D01*
X036138Y003940D02*
X036344Y003940D01*
X036460Y003940D02*
X036667Y003940D01*
X036667Y003992D02*
X036667Y003785D01*
X036782Y003785D02*
X036989Y003785D01*
X037104Y003785D02*
X037104Y004095D01*
X037311Y004095D01*
X037208Y003940D02*
X037104Y003940D01*
X037427Y003940D02*
X037633Y003940D01*
X037749Y003888D02*
X037904Y003888D01*
X037956Y003940D01*
X037956Y004043D01*
X037904Y004095D01*
X037749Y004095D01*
X037749Y003785D01*
X037530Y003837D02*
X037530Y004043D01*
X038071Y004095D02*
X038071Y003785D01*
X038278Y003785D01*
X038393Y003785D02*
X038393Y003992D01*
X038497Y004095D01*
X038600Y003992D01*
X038600Y003785D01*
X038600Y003940D02*
X038393Y003940D01*
X038716Y004095D02*
X038923Y004095D01*
X038819Y004095D02*
X038819Y003785D01*
X039038Y003785D02*
X039141Y003785D01*
X039090Y003785D02*
X039090Y004095D01*
X039141Y004095D02*
X039038Y004095D01*
X039253Y004095D02*
X039460Y003785D01*
X039460Y004095D01*
X039575Y004043D02*
X039575Y003837D01*
X039627Y003785D01*
X039730Y003785D01*
X039782Y003837D01*
X039782Y003940D01*
X039679Y003940D01*
X039782Y004043D02*
X039730Y004095D01*
X039627Y004095D01*
X039575Y004043D01*
X039253Y004095D02*
X039253Y003785D01*
X039897Y003888D02*
X040104Y003888D01*
X040104Y003992D02*
X039897Y003992D01*
X040220Y003992D02*
X040323Y004095D01*
X040323Y003785D01*
X040220Y003785D02*
X040426Y003785D01*
X040542Y003837D02*
X040542Y004043D01*
X040594Y004095D01*
X040697Y004095D01*
X040749Y004043D01*
X040749Y003837D01*
X040697Y003785D01*
X040594Y003785D01*
X040542Y003837D01*
X040864Y003837D02*
X040864Y003785D01*
X041071Y003785D01*
X040864Y003837D02*
X041071Y004043D01*
X041071Y004095D01*
X040864Y004095D01*
X042138Y004095D02*
X042138Y003940D01*
X042241Y003992D01*
X042293Y003992D01*
X042344Y003940D01*
X042344Y003837D01*
X042293Y003785D01*
X042189Y003785D01*
X042138Y003837D01*
X042138Y004095D02*
X042344Y004095D01*
X042621Y004095D02*
X042828Y004095D01*
X042828Y004043D01*
X042621Y003837D01*
X042621Y003785D01*
X042511Y003785D02*
X042460Y003785D01*
X042460Y003837D01*
X042511Y003837D01*
X042511Y003785D01*
X042460Y005035D02*
X042460Y005345D01*
X042615Y005345D01*
X042667Y005293D01*
X042667Y005190D01*
X042615Y005138D01*
X042460Y005138D01*
X042563Y005138D02*
X042667Y005035D01*
X042782Y005035D02*
X042782Y005242D01*
X042885Y005345D01*
X042989Y005242D01*
X042989Y005035D01*
X043104Y005087D02*
X043156Y005035D01*
X043259Y005035D01*
X043311Y005087D01*
X043427Y005035D02*
X043633Y005035D01*
X043530Y005190D02*
X043427Y005190D01*
X043427Y005345D02*
X043427Y005035D01*
X043311Y005293D02*
X043259Y005345D01*
X043156Y005345D01*
X043104Y005293D01*
X043104Y005087D01*
X042989Y005190D02*
X042782Y005190D01*
X042344Y005345D02*
X042138Y005345D01*
X042241Y005345D02*
X042241Y005035D01*
X043427Y005345D02*
X043633Y005345D01*
X044071Y005345D02*
X044071Y005035D01*
X044175Y005138D01*
X044278Y005035D01*
X044278Y005345D01*
X044393Y005345D02*
X044497Y005345D01*
X044445Y005345D02*
X044445Y005035D01*
X044393Y005035D02*
X044497Y005035D01*
X044608Y005035D02*
X044608Y005345D01*
X044763Y005345D01*
X044815Y005293D01*
X044815Y005087D01*
X044763Y005035D01*
X044608Y005035D01*
X045034Y005035D02*
X045034Y005345D01*
X044931Y005345D02*
X045137Y005345D01*
X045253Y005345D02*
X045253Y005035D01*
X045253Y005190D02*
X045460Y005190D01*
X045460Y005345D02*
X045460Y005035D01*
X045408Y006285D02*
X045460Y006337D01*
X045408Y006285D02*
X045305Y006285D01*
X045253Y006337D01*
X045253Y006543D01*
X045305Y006595D01*
X045408Y006595D01*
X045460Y006543D01*
X045575Y006543D02*
X045575Y006337D01*
X045627Y006285D01*
X045730Y006285D01*
X045782Y006337D01*
X045782Y006543D01*
X045730Y006595D01*
X045627Y006595D01*
X045575Y006543D01*
X045575Y006810D02*
X045782Y006810D01*
X045679Y006965D02*
X045575Y006965D01*
X045575Y007120D02*
X045575Y006810D01*
X045460Y006810D02*
X045253Y006810D01*
X045253Y007120D01*
X045137Y007068D02*
X045086Y007120D01*
X044982Y007120D01*
X044931Y007068D01*
X044931Y006862D01*
X044982Y006810D01*
X045086Y006810D01*
X045137Y006862D01*
X045137Y006965D01*
X045034Y006965D01*
X044815Y006810D02*
X044815Y007120D01*
X044608Y007120D02*
X044815Y006810D01*
X044608Y006810D02*
X044608Y007120D01*
X044497Y007120D02*
X044393Y007120D01*
X044445Y007120D02*
X044445Y006810D01*
X044393Y006810D02*
X044497Y006810D01*
X044441Y006595D02*
X044338Y006595D01*
X044286Y006543D01*
X044286Y006337D01*
X044338Y006285D01*
X044441Y006285D01*
X044493Y006337D01*
X044608Y006285D02*
X044815Y006285D01*
X044712Y006440D02*
X044608Y006440D01*
X044493Y006543D02*
X044441Y006595D01*
X044608Y006595D02*
X044608Y006285D01*
X044171Y006285D02*
X044171Y006595D01*
X043964Y006595D02*
X044171Y006285D01*
X043964Y006285D02*
X043964Y006595D01*
X043848Y006492D02*
X043848Y006285D01*
X043848Y006440D02*
X043641Y006440D01*
X043641Y006492D02*
X043745Y006595D01*
X043848Y006492D01*
X043641Y006492D02*
X043641Y006285D01*
X043526Y006337D02*
X043474Y006285D01*
X043319Y006285D01*
X043319Y006595D01*
X043474Y006595D01*
X043526Y006543D01*
X043526Y006337D01*
X043204Y006285D02*
X042997Y006285D01*
X042997Y006595D01*
X043204Y006595D01*
X043100Y006440D02*
X042997Y006440D01*
X042881Y006440D02*
X042830Y006388D01*
X042675Y006388D01*
X042675Y006285D02*
X042675Y006595D01*
X042830Y006595D01*
X042881Y006543D01*
X042881Y006440D01*
X042559Y006595D02*
X042559Y006285D01*
X042352Y006285D02*
X042352Y006595D01*
X042456Y006492D01*
X042559Y006595D01*
X042511Y006810D02*
X042460Y006862D01*
X042667Y007068D01*
X042667Y006862D01*
X042615Y006810D01*
X042511Y006810D01*
X042460Y006862D02*
X042460Y007068D01*
X042511Y007120D01*
X042615Y007120D01*
X042667Y007068D01*
X042782Y006965D02*
X042834Y007017D01*
X042937Y007017D01*
X042989Y006965D01*
X042989Y006862D01*
X042937Y006810D01*
X042834Y006810D01*
X042782Y006862D01*
X042782Y006965D01*
X043104Y006965D02*
X043156Y007017D01*
X043259Y007017D01*
X043311Y006965D01*
X043311Y006810D01*
X043427Y006810D02*
X043427Y007017D01*
X043478Y007017D01*
X043530Y006965D01*
X043582Y007017D01*
X043633Y006965D01*
X043633Y006810D01*
X043530Y006810D02*
X043530Y006965D01*
X043104Y007120D02*
X043104Y006810D01*
X042344Y006862D02*
X042293Y006810D01*
X042189Y006810D01*
X042138Y006862D01*
X042138Y006965D02*
X042241Y007017D01*
X042293Y007017D01*
X042344Y006965D01*
X042344Y006862D01*
X042138Y006965D02*
X042138Y007120D01*
X042344Y007120D01*
X042241Y006595D02*
X042138Y006595D01*
X042189Y006595D02*
X042189Y006285D01*
X042138Y006285D02*
X042241Y006285D01*
X044071Y006862D02*
X044123Y006810D01*
X044226Y006810D01*
X044278Y006862D01*
X044278Y006913D01*
X044226Y006965D01*
X044123Y006965D01*
X044071Y007017D01*
X044071Y007068D01*
X044123Y007120D01*
X044226Y007120D01*
X044278Y007068D01*
X044608Y006595D02*
X044815Y006595D01*
X045575Y007120D02*
X045782Y007120D01*
X046220Y007120D02*
X046220Y006810D01*
X046426Y006810D01*
X046542Y006810D02*
X046542Y007120D01*
X046749Y006810D01*
X046749Y007120D01*
X046864Y007120D02*
X047019Y007120D01*
X047071Y007068D01*
X047071Y006862D01*
X047019Y006810D01*
X046864Y006810D01*
X046864Y007120D01*
X047186Y007120D02*
X047186Y006810D01*
X047393Y006810D01*
X047509Y006810D02*
X047664Y006810D01*
X047716Y006862D01*
X047716Y007068D01*
X047664Y007120D01*
X047509Y007120D01*
X047509Y006810D01*
X047290Y006965D02*
X047186Y006965D01*
X047186Y007120D02*
X047393Y007120D01*
X047186Y006595D02*
X047186Y006285D01*
X047393Y006285D01*
X047071Y006337D02*
X047071Y006543D01*
X047019Y006595D01*
X046916Y006595D01*
X046864Y006543D01*
X046864Y006337D01*
X046916Y006285D01*
X047019Y006285D01*
X047071Y006337D01*
X046749Y006285D02*
X046645Y006388D01*
X046697Y006388D02*
X046542Y006388D01*
X046542Y006285D02*
X046542Y006595D01*
X046697Y006595D01*
X046749Y006543D01*
X046749Y006440D01*
X046697Y006388D01*
X046426Y006595D02*
X046220Y006595D01*
X046323Y006595D02*
X046323Y006285D01*
X046104Y006285D02*
X046104Y006595D01*
X045897Y006595D02*
X046104Y006285D01*
X045897Y006285D02*
X045897Y006595D01*
X046220Y006965D02*
X046323Y006965D01*
X046426Y007120D02*
X046220Y007120D01*
X047831Y006440D02*
X048038Y006440D01*
X047934Y006543D02*
X047934Y006337D01*
X048153Y006285D02*
X048360Y006595D01*
X048476Y006440D02*
X048682Y006440D01*
X048798Y006492D02*
X048901Y006595D01*
X048901Y006285D01*
X048798Y006285D02*
X049005Y006285D01*
X049120Y006337D02*
X049172Y006285D01*
X049275Y006285D01*
X049327Y006337D01*
X049327Y006543D01*
X049120Y006337D01*
X049120Y006543D01*
X049172Y006595D01*
X049275Y006595D01*
X049327Y006543D01*
X049442Y006543D02*
X049442Y006595D01*
X049494Y006595D01*
X049494Y006543D01*
X049442Y006543D01*
X049442Y006285D02*
X049701Y006595D01*
X049701Y006337D02*
X049701Y006285D01*
X049649Y006285D01*
X049649Y006337D01*
X049701Y006337D01*
X050888Y006285D02*
X050991Y006285D01*
X050939Y006285D02*
X050939Y006595D01*
X050888Y006595D02*
X050991Y006595D01*
X051102Y006595D02*
X051206Y006492D01*
X051309Y006595D01*
X051309Y006285D01*
X051425Y006285D02*
X051425Y006595D01*
X051580Y006595D01*
X051631Y006543D01*
X051631Y006440D01*
X051580Y006388D01*
X051425Y006388D01*
X051747Y006440D02*
X051850Y006440D01*
X051747Y006595D02*
X051747Y006285D01*
X051954Y006285D01*
X052069Y006285D02*
X052224Y006285D01*
X052276Y006337D01*
X052276Y006543D01*
X052224Y006595D01*
X052069Y006595D01*
X052069Y006285D01*
X052391Y006285D02*
X052391Y006492D01*
X052495Y006595D01*
X052598Y006492D01*
X052598Y006285D01*
X052714Y006285D02*
X052714Y006595D01*
X052921Y006285D01*
X052921Y006595D01*
X053036Y006543D02*
X053036Y006337D01*
X053088Y006285D01*
X053191Y006285D01*
X053243Y006337D01*
X053358Y006285D02*
X053565Y006285D01*
X053462Y006440D02*
X053358Y006440D01*
X053243Y006543D02*
X053191Y006595D01*
X053088Y006595D01*
X053036Y006543D01*
X052976Y006810D02*
X052873Y006810D01*
X052821Y006862D01*
X052873Y006965D02*
X052976Y006965D01*
X053028Y006913D01*
X053028Y006862D01*
X052976Y006810D01*
X053143Y006810D02*
X053247Y006810D01*
X053195Y006810D02*
X053195Y007120D01*
X053143Y007120D02*
X053247Y007120D01*
X053358Y007120D02*
X053565Y006810D01*
X053565Y007120D01*
X053681Y007068D02*
X053681Y006862D01*
X053732Y006810D01*
X053836Y006810D01*
X053887Y006862D01*
X053887Y006965D01*
X053784Y006965D01*
X053887Y007068D02*
X053836Y007120D01*
X053732Y007120D01*
X053681Y007068D01*
X054003Y007120D02*
X054003Y006810D01*
X054210Y006810D01*
X054325Y006810D02*
X054532Y006810D01*
X054429Y006965D02*
X054325Y006965D01*
X054325Y007120D02*
X054325Y006810D01*
X054377Y006595D02*
X054325Y006543D01*
X054325Y006337D01*
X054377Y006285D01*
X054480Y006285D01*
X054532Y006337D01*
X054532Y006543D01*
X054480Y006595D01*
X054377Y006595D01*
X054210Y006543D02*
X054158Y006595D01*
X054055Y006595D01*
X054003Y006543D01*
X054003Y006337D01*
X054055Y006285D01*
X054158Y006285D01*
X054210Y006337D01*
X054647Y006285D02*
X054647Y006595D01*
X054854Y006285D01*
X054854Y006595D01*
X054970Y006595D02*
X055176Y006595D01*
X055073Y006595D02*
X055073Y006285D01*
X055292Y006285D02*
X055292Y006595D01*
X055447Y006595D01*
X055499Y006543D01*
X055499Y006440D01*
X055447Y006388D01*
X055292Y006388D01*
X055395Y006388D02*
X055499Y006285D01*
X055614Y006337D02*
X055666Y006285D01*
X055769Y006285D01*
X055821Y006337D01*
X055821Y006543D01*
X055769Y006595D01*
X055666Y006595D01*
X055614Y006543D01*
X055614Y006337D01*
X055936Y006285D02*
X056143Y006285D01*
X055936Y006285D02*
X055936Y006595D01*
X055936Y006810D02*
X056143Y006810D01*
X056259Y006810D02*
X056414Y006810D01*
X056466Y006862D01*
X056466Y007068D01*
X056414Y007120D01*
X056259Y007120D01*
X056259Y006810D01*
X056040Y006965D02*
X055936Y006965D01*
X055821Y006862D02*
X055821Y007068D01*
X055769Y007120D01*
X055614Y007120D01*
X055614Y006810D01*
X055769Y006810D01*
X055821Y006862D01*
X055936Y006810D02*
X055936Y007120D01*
X056143Y007120D01*
X055499Y007120D02*
X055499Y006810D01*
X055292Y007120D01*
X055292Y006810D01*
X055176Y006810D02*
X054970Y006810D01*
X054970Y007120D01*
X055176Y007120D01*
X055073Y006965D02*
X054970Y006965D01*
X054532Y007120D02*
X054325Y007120D01*
X053358Y007120D02*
X053358Y006810D01*
X053358Y006595D02*
X053358Y006285D01*
X053358Y006595D02*
X053565Y006595D01*
X052873Y006965D02*
X052821Y007017D01*
X052821Y007068D01*
X052873Y007120D01*
X052976Y007120D01*
X053028Y007068D01*
X052383Y006965D02*
X052383Y006810D01*
X052280Y006810D02*
X052280Y006965D01*
X052332Y007017D01*
X052383Y006965D01*
X052280Y006965D02*
X052228Y007017D01*
X052177Y007017D01*
X052177Y006810D01*
X052061Y006810D02*
X052061Y006965D01*
X052009Y007017D01*
X051906Y007017D01*
X051854Y006965D01*
X051739Y006965D02*
X051687Y007017D01*
X051584Y007017D01*
X051532Y006965D01*
X051532Y006862D01*
X051584Y006810D01*
X051687Y006810D01*
X051739Y006862D01*
X051739Y006965D01*
X051854Y007120D02*
X051854Y006810D01*
X051954Y006595D02*
X051747Y006595D01*
X051417Y006862D02*
X051365Y006810D01*
X051261Y006810D01*
X051210Y006862D01*
X051417Y007068D01*
X051417Y006862D01*
X051417Y007068D02*
X051365Y007120D01*
X051261Y007120D01*
X051210Y007068D01*
X051210Y006862D01*
X051094Y006862D02*
X051094Y007068D01*
X051043Y007120D01*
X050939Y007120D01*
X050888Y007068D01*
X050888Y007017D01*
X050939Y006965D01*
X051094Y006965D01*
X051094Y006862D02*
X051043Y006810D01*
X050939Y006810D01*
X050888Y006862D01*
X051102Y006595D02*
X051102Y006285D01*
X052391Y006440D02*
X052598Y006440D01*
X052383Y005345D02*
X052177Y005345D01*
X052177Y005035D01*
X052383Y005035D01*
X052280Y005190D02*
X052177Y005190D01*
X052061Y005293D02*
X052009Y005345D01*
X051906Y005345D01*
X051854Y005293D01*
X051854Y005087D01*
X051906Y005035D01*
X052009Y005035D01*
X052061Y005087D01*
X051739Y005035D02*
X051739Y005242D01*
X051635Y005345D01*
X051532Y005242D01*
X051532Y005035D01*
X051417Y005035D02*
X051313Y005138D01*
X051365Y005138D02*
X051210Y005138D01*
X051210Y005035D02*
X051210Y005345D01*
X051365Y005345D01*
X051417Y005293D01*
X051417Y005190D01*
X051365Y005138D01*
X051532Y005190D02*
X051739Y005190D01*
X051094Y005345D02*
X050888Y005345D01*
X050991Y005345D02*
X050991Y005035D01*
X052821Y005035D02*
X052925Y005138D01*
X053028Y005035D01*
X053028Y005345D01*
X053143Y005345D02*
X053247Y005345D01*
X053195Y005345D02*
X053195Y005035D01*
X053143Y005035D02*
X053247Y005035D01*
X053358Y005035D02*
X053358Y005345D01*
X053513Y005345D01*
X053565Y005293D01*
X053565Y005087D01*
X053513Y005035D01*
X053358Y005035D01*
X053784Y005035D02*
X053784Y005345D01*
X053681Y005345D02*
X053887Y005345D01*
X054003Y005345D02*
X054003Y005035D01*
X054003Y005190D02*
X054210Y005190D01*
X054210Y005345D02*
X054210Y005035D01*
X054647Y005035D02*
X054854Y005345D01*
X055292Y005293D02*
X055292Y005242D01*
X055344Y005190D01*
X055447Y005190D01*
X055499Y005138D01*
X055499Y005087D01*
X055447Y005035D01*
X055344Y005035D01*
X055292Y005087D01*
X055292Y005293D02*
X055344Y005345D01*
X055447Y005345D01*
X055499Y005293D01*
X055614Y005345D02*
X055769Y005345D01*
X055821Y005293D01*
X055821Y005190D01*
X055769Y005138D01*
X055614Y005138D01*
X055614Y005035D02*
X055614Y005345D01*
X055936Y005242D02*
X056040Y005345D01*
X056143Y005242D01*
X056143Y005035D01*
X056259Y005087D02*
X056310Y005035D01*
X056414Y005035D01*
X056466Y005087D01*
X056581Y005035D02*
X056788Y005035D01*
X056684Y005190D02*
X056581Y005190D01*
X056466Y005293D02*
X056414Y005345D01*
X056310Y005345D01*
X056259Y005293D01*
X056259Y005087D01*
X056143Y005190D02*
X055936Y005190D01*
X055936Y005242D02*
X055936Y005035D01*
X056581Y005035D02*
X056581Y005345D01*
X056788Y005345D01*
X059388Y005345D02*
X059594Y005345D01*
X059491Y005345D02*
X059491Y005035D01*
X059710Y005035D02*
X059710Y005345D01*
X059865Y005345D01*
X059917Y005293D01*
X059917Y005190D01*
X059865Y005138D01*
X059710Y005138D01*
X059813Y005138D02*
X059917Y005035D01*
X060032Y005035D02*
X060032Y005242D01*
X060135Y005345D01*
X060239Y005242D01*
X060239Y005035D01*
X060354Y005087D02*
X060406Y005035D01*
X060509Y005035D01*
X060561Y005087D01*
X060677Y005035D02*
X060883Y005035D01*
X060780Y005190D02*
X060677Y005190D01*
X060677Y005345D02*
X060677Y005035D01*
X060561Y005293D02*
X060509Y005345D01*
X060406Y005345D01*
X060354Y005293D01*
X060354Y005087D01*
X060239Y005190D02*
X060032Y005190D01*
X060677Y005345D02*
X060883Y005345D01*
X061321Y005345D02*
X061321Y005035D01*
X061425Y005138D01*
X061528Y005035D01*
X061528Y005345D01*
X061643Y005345D02*
X061747Y005345D01*
X061695Y005345D02*
X061695Y005035D01*
X061643Y005035D02*
X061747Y005035D01*
X061858Y005035D02*
X062013Y005035D01*
X062065Y005087D01*
X062065Y005293D01*
X062013Y005345D01*
X061858Y005345D01*
X061858Y005035D01*
X062284Y005035D02*
X062284Y005345D01*
X062181Y005345D02*
X062387Y005345D01*
X062503Y005345D02*
X062503Y005035D01*
X062503Y005190D02*
X062710Y005190D01*
X062710Y005345D02*
X062710Y005035D01*
X063147Y005035D02*
X063354Y005345D01*
X063792Y005293D02*
X063792Y005242D01*
X063844Y005190D01*
X063947Y005190D01*
X063999Y005138D01*
X063999Y005087D01*
X063947Y005035D01*
X063844Y005035D01*
X063792Y005087D01*
X063792Y005293D02*
X063844Y005345D01*
X063947Y005345D01*
X063999Y005293D01*
X064114Y005345D02*
X064269Y005345D01*
X064321Y005293D01*
X064321Y005190D01*
X064269Y005138D01*
X064114Y005138D01*
X064114Y005035D02*
X064114Y005345D01*
X064436Y005242D02*
X064436Y005035D01*
X064436Y005190D02*
X064643Y005190D01*
X064643Y005242D02*
X064643Y005035D01*
X064759Y005087D02*
X064810Y005035D01*
X064914Y005035D01*
X064966Y005087D01*
X065081Y005035D02*
X065288Y005035D01*
X065184Y005190D02*
X065081Y005190D01*
X064966Y005293D02*
X064914Y005345D01*
X064810Y005345D01*
X064759Y005293D01*
X064759Y005087D01*
X064643Y005242D02*
X064540Y005345D01*
X064436Y005242D01*
X065081Y005345D02*
X065081Y005035D01*
X065081Y005345D02*
X065288Y005345D01*
X065403Y006285D02*
X065610Y006595D01*
X065726Y006440D02*
X065932Y006440D01*
X066048Y006492D02*
X066151Y006595D01*
X066151Y006285D01*
X066048Y006285D02*
X066255Y006285D01*
X066370Y006337D02*
X066422Y006285D01*
X066525Y006285D01*
X066577Y006337D01*
X066577Y006543D01*
X066370Y006337D01*
X066370Y006543D01*
X066422Y006595D01*
X066525Y006595D01*
X066577Y006543D01*
X066692Y006543D02*
X066692Y006595D01*
X066744Y006595D01*
X066744Y006543D01*
X066692Y006543D01*
X066692Y006285D02*
X066951Y006595D01*
X066951Y006337D02*
X066951Y006285D01*
X066899Y006285D01*
X066899Y006337D01*
X066951Y006337D01*
X065288Y006440D02*
X065081Y006440D01*
X065184Y006543D02*
X065184Y006337D01*
X064643Y006285D02*
X064436Y006285D01*
X064436Y006595D01*
X064321Y006543D02*
X064269Y006595D01*
X064166Y006595D01*
X064114Y006543D01*
X064114Y006337D01*
X064166Y006285D01*
X064269Y006285D01*
X064321Y006337D01*
X064321Y006543D01*
X064321Y006810D02*
X064321Y007120D01*
X064436Y007120D02*
X064592Y007120D01*
X064643Y007068D01*
X064643Y006862D01*
X064592Y006810D01*
X064436Y006810D01*
X064436Y007120D01*
X064114Y007120D02*
X064114Y006810D01*
X063999Y006810D02*
X063792Y006810D01*
X063792Y007120D01*
X063999Y007120D01*
X064114Y007120D02*
X064321Y006810D01*
X063999Y006543D02*
X063999Y006440D01*
X063947Y006388D01*
X063792Y006388D01*
X063792Y006285D02*
X063792Y006595D01*
X063947Y006595D01*
X063999Y006543D01*
X063895Y006388D02*
X063999Y006285D01*
X063573Y006285D02*
X063573Y006595D01*
X063470Y006595D02*
X063676Y006595D01*
X063354Y006595D02*
X063354Y006285D01*
X063147Y006595D01*
X063147Y006285D01*
X063032Y006337D02*
X062980Y006285D01*
X062877Y006285D01*
X062825Y006337D01*
X062825Y006543D01*
X062877Y006595D01*
X062980Y006595D01*
X063032Y006543D01*
X063032Y006337D01*
X062710Y006337D02*
X062658Y006285D01*
X062555Y006285D01*
X062503Y006337D01*
X062503Y006543D01*
X062555Y006595D01*
X062658Y006595D01*
X062710Y006543D01*
X062658Y006810D02*
X062710Y006862D01*
X062710Y006965D01*
X062606Y006965D01*
X062503Y007068D02*
X062503Y006862D01*
X062555Y006810D01*
X062658Y006810D01*
X062825Y006810D02*
X062825Y007120D01*
X062710Y007068D02*
X062658Y007120D01*
X062555Y007120D01*
X062503Y007068D01*
X062387Y007120D02*
X062387Y006810D01*
X062181Y007120D01*
X062181Y006810D01*
X062069Y006810D02*
X061966Y006810D01*
X062017Y006810D02*
X062017Y007120D01*
X061966Y007120D02*
X062069Y007120D01*
X061850Y007068D02*
X061799Y007120D01*
X061695Y007120D01*
X061643Y007068D01*
X061643Y007017D01*
X061695Y006965D01*
X061799Y006965D01*
X061850Y006913D01*
X061850Y006862D01*
X061799Y006810D01*
X061695Y006810D01*
X061643Y006862D01*
X061691Y006595D02*
X061588Y006595D01*
X061536Y006543D01*
X061536Y006337D01*
X061588Y006285D01*
X061691Y006285D01*
X061743Y006337D01*
X061858Y006285D02*
X062065Y006285D01*
X061962Y006440D02*
X061858Y006440D01*
X061743Y006543D02*
X061691Y006595D01*
X061858Y006595D02*
X061858Y006285D01*
X061421Y006285D02*
X061421Y006595D01*
X061214Y006595D02*
X061421Y006285D01*
X061214Y006285D02*
X061214Y006595D01*
X061098Y006492D02*
X060995Y006595D01*
X060891Y006492D01*
X060891Y006285D01*
X060776Y006337D02*
X060776Y006543D01*
X060724Y006595D01*
X060569Y006595D01*
X060569Y006285D01*
X060724Y006285D01*
X060776Y006337D01*
X060891Y006440D02*
X061098Y006440D01*
X061098Y006492D02*
X061098Y006285D01*
X060454Y006285D02*
X060247Y006285D01*
X060247Y006595D01*
X060454Y006595D01*
X060350Y006440D02*
X060247Y006440D01*
X060131Y006440D02*
X060080Y006388D01*
X059925Y006388D01*
X059925Y006285D02*
X059925Y006595D01*
X060080Y006595D01*
X060131Y006543D01*
X060131Y006440D01*
X059809Y006595D02*
X059809Y006285D01*
X059602Y006285D02*
X059602Y006595D01*
X059706Y006492D01*
X059809Y006595D01*
X059761Y006810D02*
X059710Y006862D01*
X059917Y007068D01*
X059917Y006862D01*
X059865Y006810D01*
X059761Y006810D01*
X059710Y006862D02*
X059710Y007068D01*
X059761Y007120D01*
X059865Y007120D01*
X059917Y007068D01*
X060032Y007068D02*
X060084Y007120D01*
X060187Y007120D01*
X060239Y007068D01*
X060032Y006862D01*
X060084Y006810D01*
X060187Y006810D01*
X060239Y006862D01*
X060239Y007068D01*
X060354Y006965D02*
X060406Y007017D01*
X060509Y007017D01*
X060561Y006965D01*
X060561Y006862D01*
X060509Y006810D01*
X060406Y006810D01*
X060354Y006862D01*
X060354Y006965D01*
X060677Y006965D02*
X060728Y007017D01*
X060832Y007017D01*
X060883Y006965D01*
X060883Y006810D01*
X060999Y006810D02*
X060999Y007017D01*
X061051Y007017D01*
X061102Y006965D01*
X061154Y007017D01*
X061206Y006965D01*
X061206Y006810D01*
X061102Y006810D02*
X061102Y006965D01*
X060677Y007120D02*
X060677Y006810D01*
X060032Y006862D02*
X060032Y007068D01*
X059594Y006810D02*
X059388Y006810D01*
X059491Y006810D02*
X059491Y007120D01*
X059388Y007017D01*
X059388Y006595D02*
X059491Y006595D01*
X059439Y006595D02*
X059439Y006285D01*
X059388Y006285D02*
X059491Y006285D01*
X058451Y006285D02*
X058399Y006285D01*
X058399Y006337D01*
X058451Y006337D01*
X058451Y006285D01*
X058192Y006285D02*
X058451Y006595D01*
X058244Y006595D02*
X058244Y006543D01*
X058192Y006543D01*
X058192Y006595D01*
X058244Y006595D01*
X058077Y006543D02*
X057870Y006337D01*
X057922Y006285D01*
X058025Y006285D01*
X058077Y006337D01*
X058077Y006543D01*
X058025Y006595D01*
X057922Y006595D01*
X057870Y006543D01*
X057870Y006337D01*
X057755Y006285D02*
X057548Y006285D01*
X057651Y006285D02*
X057651Y006595D01*
X057548Y006492D01*
X057432Y006440D02*
X057226Y006440D01*
X057110Y006595D02*
X056903Y006285D01*
X056788Y006440D02*
X056581Y006440D01*
X056684Y006543D02*
X056684Y006337D01*
X052821Y005345D02*
X052821Y005035D01*
X052222Y004095D02*
X052119Y004043D01*
X052015Y003940D01*
X052171Y003940D01*
X052222Y003888D01*
X052222Y003837D01*
X052171Y003785D01*
X052067Y003785D01*
X052015Y003837D01*
X052015Y003940D01*
X051900Y004095D02*
X051693Y003785D01*
X051578Y003837D02*
X051578Y003888D01*
X051526Y003940D01*
X051371Y003940D01*
X051371Y003837D01*
X051423Y003785D01*
X051526Y003785D01*
X051578Y003837D01*
X051474Y004043D02*
X051371Y003940D01*
X051474Y004043D02*
X051578Y004095D01*
X051261Y003837D02*
X051261Y003785D01*
X051210Y003785D01*
X051210Y003837D01*
X051261Y003837D01*
X051094Y003837D02*
X051043Y003785D01*
X050939Y003785D01*
X050888Y003837D01*
X050888Y003940D02*
X050991Y003992D01*
X051043Y003992D01*
X051094Y003940D01*
X051094Y003837D01*
X050888Y003940D02*
X050888Y004095D01*
X051094Y004095D01*
X041071Y001795D02*
X041071Y001743D01*
X040864Y001537D01*
X040864Y001485D01*
X041071Y001485D01*
X041071Y001795D02*
X040864Y001795D01*
X040749Y001743D02*
X040697Y001795D01*
X040594Y001795D01*
X040542Y001743D01*
X040542Y001537D01*
X040594Y001485D01*
X040697Y001485D01*
X040749Y001537D01*
X040749Y001743D01*
X040426Y001485D02*
X040220Y001485D01*
X040323Y001485D02*
X040323Y001795D01*
X040220Y001692D01*
X040104Y001692D02*
X039897Y001692D01*
X039897Y001588D02*
X040104Y001588D01*
X039782Y001537D02*
X039782Y001640D01*
X039679Y001640D01*
X039782Y001743D02*
X039730Y001795D01*
X039627Y001795D01*
X039575Y001743D01*
X039575Y001537D01*
X039627Y001485D01*
X039730Y001485D01*
X039782Y001537D01*
X039460Y001485D02*
X039460Y001795D01*
X039253Y001795D02*
X039460Y001485D01*
X039253Y001485D02*
X039253Y001795D01*
X039141Y001795D02*
X039038Y001795D01*
X039090Y001795D02*
X039090Y001485D01*
X039141Y001485D02*
X039038Y001485D01*
X038819Y001485D02*
X038819Y001795D01*
X038716Y001795D02*
X038923Y001795D01*
X038600Y001692D02*
X038600Y001485D01*
X038600Y001640D02*
X038393Y001640D01*
X038393Y001692D02*
X038497Y001795D01*
X038600Y001692D01*
X038393Y001692D02*
X038393Y001485D01*
X038278Y001485D02*
X038071Y001485D01*
X038071Y001795D01*
X036782Y003785D02*
X036782Y004095D01*
X036667Y003992D02*
X036563Y004095D01*
X036460Y003992D01*
X036460Y003785D01*
X036344Y003785D02*
X036344Y004095D01*
X036404Y004535D02*
X036507Y004535D01*
X036559Y004587D01*
X036559Y004793D01*
X036507Y004845D01*
X036404Y004845D01*
X036352Y004793D01*
X036352Y004587D01*
X036404Y004535D01*
X036241Y004535D02*
X036138Y004638D01*
X036138Y004742D01*
X036241Y004845D01*
X036293Y005060D02*
X036344Y005112D01*
X036293Y005060D02*
X036189Y005060D01*
X036138Y005112D01*
X036138Y005318D01*
X036189Y005370D01*
X036293Y005370D01*
X036344Y005318D01*
X036460Y005318D02*
X036460Y005112D01*
X036511Y005060D01*
X036615Y005060D01*
X036667Y005112D01*
X036667Y005318D01*
X036615Y005370D01*
X036511Y005370D01*
X036460Y005318D01*
X036782Y005370D02*
X036782Y005060D01*
X036782Y005163D02*
X036937Y005163D01*
X036989Y005215D01*
X036989Y005318D01*
X036937Y005370D01*
X036782Y005370D01*
X037104Y005370D02*
X037259Y005370D01*
X037311Y005318D01*
X037311Y005215D01*
X037259Y005163D01*
X037104Y005163D01*
X037104Y005060D02*
X037104Y005370D01*
X037427Y005370D02*
X037427Y005060D01*
X037633Y005060D01*
X037749Y005060D02*
X037749Y005370D01*
X037904Y005370D01*
X037956Y005318D01*
X037956Y005215D01*
X037904Y005163D01*
X037749Y005163D01*
X037852Y005163D02*
X037956Y005060D01*
X038393Y005060D02*
X038497Y005163D01*
X038600Y005060D01*
X038600Y005370D01*
X038716Y005370D02*
X038716Y005060D01*
X038923Y005060D01*
X039038Y005060D02*
X039141Y005060D01*
X039090Y005060D02*
X039090Y005370D01*
X039141Y005370D02*
X039038Y005370D01*
X038923Y005370D02*
X038716Y005370D01*
X038716Y005215D02*
X038819Y005215D01*
X039253Y005318D02*
X039253Y005112D01*
X039305Y005060D01*
X039408Y005060D01*
X039460Y005112D01*
X039460Y005215D01*
X039356Y005215D01*
X039253Y005318D02*
X039305Y005370D01*
X039408Y005370D01*
X039460Y005318D01*
X039575Y005370D02*
X039575Y005060D01*
X039575Y005215D02*
X039782Y005215D01*
X039782Y005370D02*
X039782Y005060D01*
X040001Y005060D02*
X040001Y005370D01*
X040104Y005370D02*
X039897Y005370D01*
X038393Y005370D02*
X038393Y005060D01*
X037530Y005215D02*
X037427Y005215D01*
X037427Y005370D02*
X037633Y005370D01*
X037100Y004742D02*
X036997Y004845D01*
X036881Y004845D02*
X036881Y004793D01*
X036675Y004587D01*
X036675Y004535D01*
X036881Y004535D01*
X036997Y004535D02*
X037100Y004638D01*
X037100Y004742D01*
X036881Y004845D02*
X036675Y004845D01*
X032206Y004888D02*
X031999Y004888D01*
X031999Y004992D02*
X032154Y004992D01*
X032206Y004992D01*
X032154Y005095D02*
X032154Y004785D01*
X032051Y004785D02*
X032051Y005095D01*
X031883Y005043D02*
X031883Y004940D01*
X031832Y004888D01*
X031677Y004888D01*
X031780Y004888D02*
X031883Y004785D01*
X031677Y004785D02*
X031677Y005095D01*
X031832Y005095D01*
X031883Y005043D01*
X031561Y005095D02*
X031354Y005095D01*
X031354Y004785D01*
X031561Y004785D01*
X031458Y004940D02*
X031354Y004940D01*
X031239Y005043D02*
X031239Y005095D01*
X031239Y005043D02*
X031135Y004940D01*
X031135Y004785D01*
X031135Y004940D02*
X031032Y005043D01*
X031032Y005095D01*
X030917Y004992D02*
X030917Y004785D01*
X030917Y004940D02*
X030710Y004940D01*
X030710Y004992D02*
X030813Y005095D01*
X030917Y004992D01*
X030710Y004992D02*
X030710Y004785D01*
X030594Y004785D02*
X030388Y004785D01*
X030388Y005095D01*
X030388Y004095D02*
X030388Y003785D01*
X030594Y003785D01*
X030710Y003785D02*
X030710Y003992D01*
X030813Y004095D01*
X030917Y003992D01*
X030917Y003785D01*
X030917Y003940D02*
X030710Y003940D01*
X031032Y004043D02*
X031135Y003940D01*
X031135Y003785D01*
X031135Y003940D02*
X031239Y004043D01*
X031239Y004095D01*
X031354Y004095D02*
X031354Y003785D01*
X031354Y003940D02*
X031458Y003940D01*
X031561Y004095D02*
X031354Y004095D01*
X031032Y004095D02*
X031032Y004043D01*
X025227Y013385D02*
X025227Y013645D01*
X025313Y013645D02*
X025140Y013645D01*
X025037Y013602D02*
X024994Y013645D01*
X024907Y013645D01*
X024864Y013602D01*
X024864Y013558D01*
X024907Y013515D01*
X024994Y013515D01*
X025037Y013472D01*
X025037Y013428D01*
X024994Y013385D01*
X024907Y013385D01*
X024864Y013428D01*
X024761Y013385D02*
X024674Y013472D01*
X024718Y013472D02*
X024588Y013472D01*
X024588Y013385D02*
X024588Y013645D01*
X024718Y013645D01*
X024761Y013602D01*
X024761Y013515D01*
X024718Y013472D01*
X024668Y015585D02*
X024711Y015628D01*
X024711Y015802D01*
X024668Y015845D01*
X024581Y015845D01*
X024538Y015802D01*
X024538Y015628D01*
X024581Y015585D01*
X024668Y015585D01*
X024814Y015585D02*
X024814Y015845D01*
X024987Y015585D01*
X024987Y015845D01*
X024864Y017835D02*
X024864Y018095D01*
X025037Y018095D01*
X025140Y018095D02*
X025313Y018095D01*
X025227Y017965D02*
X025140Y017965D01*
X025140Y017835D02*
X025140Y018095D01*
X024950Y017965D02*
X024864Y017965D01*
X024761Y018052D02*
X024718Y018095D01*
X024631Y018095D01*
X024588Y018052D01*
X024588Y017878D01*
X024631Y017835D01*
X024718Y017835D01*
X024761Y017878D01*
X024761Y018052D01*
X007337Y021878D02*
X007294Y021835D01*
X007207Y021835D01*
X007164Y021878D01*
X007337Y022052D01*
X007337Y021878D01*
X007164Y021878D02*
X007164Y022052D01*
X007207Y022095D01*
X007294Y022095D01*
X007337Y022052D01*
X007061Y021835D02*
X006888Y021835D01*
X006974Y021835D02*
X006974Y022095D01*
X006888Y022008D01*
X005061Y022008D02*
X004888Y021835D01*
X005061Y021835D01*
X005061Y022008D02*
X005061Y022052D01*
X005018Y022095D01*
X004931Y022095D01*
X004888Y022052D01*
X004724Y019895D02*
X004724Y019635D01*
X004638Y019635D02*
X004811Y019635D01*
X004638Y019808D02*
X004724Y019895D01*
X006638Y019852D02*
X006638Y019808D01*
X006681Y019765D01*
X006811Y019765D01*
X006811Y019678D02*
X006811Y019852D01*
X006768Y019895D01*
X006681Y019895D01*
X006638Y019852D01*
X006638Y019678D02*
X006681Y019635D01*
X006768Y019635D01*
X006811Y019678D01*
X003241Y014045D02*
X003285Y014002D01*
X003111Y013828D01*
X003155Y013785D01*
X003241Y013785D01*
X003285Y013828D01*
X003285Y014002D01*
X003241Y014045D02*
X003155Y014045D01*
X003111Y014002D01*
X003111Y013828D01*
X003009Y013785D02*
X002835Y013785D01*
X003009Y013958D01*
X003009Y014002D01*
X002965Y014045D01*
X002878Y014045D01*
X002835Y014002D01*
X061858Y006595D02*
X062065Y006595D01*
X062825Y006810D02*
X063032Y006810D01*
X063147Y006810D02*
X063354Y006810D01*
X063251Y006965D02*
X063147Y006965D01*
X063147Y007120D02*
X063147Y006810D01*
X063147Y007120D02*
X063354Y007120D01*
X063792Y006965D02*
X063895Y006965D01*
X064759Y006965D02*
X064862Y006965D01*
X064759Y007120D02*
X064759Y006810D01*
X064966Y006810D01*
X065081Y006810D02*
X065236Y006810D01*
X065288Y006862D01*
X065288Y007068D01*
X065236Y007120D01*
X065081Y007120D01*
X065081Y006810D01*
X064966Y007120D02*
X064759Y007120D01*
D11*
X035304Y006649D02*
X035304Y006532D01*
X035188Y006415D01*
X035304Y006298D01*
X035304Y006182D01*
X035188Y006065D01*
X034954Y006065D01*
X034837Y006182D01*
X034568Y006065D02*
X034101Y006065D01*
X034334Y006065D02*
X034334Y006765D01*
X034101Y006532D01*
X033831Y006532D02*
X033714Y006415D01*
X033831Y006298D01*
X033831Y006182D01*
X033714Y006065D01*
X033481Y006065D01*
X033364Y006182D01*
X033094Y006065D02*
X032627Y006065D01*
X033094Y006532D01*
X033094Y006649D01*
X032978Y006765D01*
X032744Y006765D01*
X032627Y006649D01*
X032358Y006649D02*
X032241Y006765D01*
X032008Y006765D01*
X031891Y006649D01*
X031891Y006182D01*
X032008Y006065D01*
X032241Y006065D01*
X032358Y006182D01*
X031621Y006065D02*
X031154Y006065D01*
X031154Y006765D01*
X030885Y006765D02*
X030651Y006765D01*
X030768Y006765D02*
X030768Y006182D01*
X030651Y006065D01*
X030534Y006065D01*
X030418Y006182D01*
X033364Y006649D02*
X033481Y006765D01*
X033714Y006765D01*
X033831Y006649D01*
X033831Y006532D01*
X033714Y006415D02*
X033598Y006415D01*
X034837Y006649D02*
X034954Y006765D01*
X035188Y006765D01*
X035304Y006649D01*
X035188Y006415D02*
X035071Y006415D01*
X023631Y004364D02*
X023631Y003774D01*
X023631Y002213D01*
X022568Y001136D02*
X019891Y001136D01*
X019891Y000742D01*
X018828Y000742D01*
X018828Y002213D02*
X018828Y003774D01*
X018828Y004364D01*
X019261Y004364D01*
X019261Y003774D01*
X023198Y003774D01*
X023198Y004364D01*
X023631Y004364D01*
X023631Y003774D02*
X023198Y003774D01*
X019261Y003774D02*
X018828Y003774D01*
X022568Y001136D02*
X022568Y000742D01*
X023631Y000742D01*
X009273Y000734D02*
X008210Y000734D01*
X008210Y001128D01*
X005533Y001128D01*
X005533Y000734D01*
X004470Y000734D01*
X004470Y002205D02*
X004470Y003766D01*
X004470Y004356D01*
X004903Y004356D01*
X004903Y003766D01*
X008840Y003766D01*
X008840Y004356D01*
X009273Y004356D01*
X009273Y003766D01*
X009273Y002205D01*
X009273Y003766D02*
X008840Y003766D01*
X004903Y003766D02*
X004470Y003766D01*
X003268Y018365D02*
X003168Y018515D01*
X003418Y018515D01*
X003318Y018415D01*
X003268Y018465D01*
X003318Y018415D02*
X003268Y018365D01*
D12*
X032378Y009156D02*
X032378Y008275D01*
X032965Y008275D01*
X033298Y008275D02*
X033298Y008862D01*
X033592Y009156D01*
X033885Y008862D01*
X033885Y008275D01*
X034513Y008275D02*
X034513Y008715D01*
X034806Y009009D01*
X034806Y009156D01*
X035140Y009156D02*
X035140Y008275D01*
X035727Y008275D01*
X036061Y008275D02*
X036061Y009156D01*
X036501Y009156D01*
X036648Y009009D01*
X036648Y008715D01*
X036501Y008568D01*
X036061Y008568D01*
X036354Y008568D02*
X036648Y008275D01*
X037902Y008422D02*
X038049Y008275D01*
X038343Y008275D01*
X038489Y008422D01*
X038489Y008568D01*
X038343Y008715D01*
X038049Y008715D01*
X037902Y008862D01*
X037902Y009009D01*
X038049Y009156D01*
X038343Y009156D01*
X038489Y009009D01*
X038823Y009156D02*
X039410Y009156D01*
X039117Y009156D02*
X039117Y008275D01*
X039744Y008275D02*
X039744Y008862D01*
X040037Y009156D01*
X040331Y008862D01*
X040331Y008275D01*
X040665Y008422D02*
X040811Y008275D01*
X041105Y008275D01*
X041252Y008422D01*
X041585Y008568D02*
X042173Y009156D01*
X041585Y009156D02*
X041585Y008275D01*
X041732Y008715D02*
X042173Y008275D01*
X042506Y008715D02*
X043093Y008715D01*
X043427Y008422D02*
X043574Y008275D01*
X043867Y008275D01*
X044014Y008422D01*
X044014Y009156D01*
X044348Y009156D02*
X044788Y009156D01*
X044935Y009009D01*
X044935Y008715D01*
X044788Y008568D01*
X044348Y008568D01*
X044348Y008275D02*
X044348Y009156D01*
X043427Y009156D02*
X043427Y008422D01*
X041252Y009009D02*
X041105Y009156D01*
X040811Y009156D01*
X040665Y009009D01*
X040665Y008422D01*
X040331Y008715D02*
X039744Y008715D01*
X035727Y009156D02*
X035140Y009156D01*
X035140Y008715D02*
X035433Y008715D01*
X034513Y008715D02*
X034219Y009009D01*
X034219Y009156D01*
X033885Y008715D02*
X033298Y008715D01*
X046189Y008715D02*
X046776Y008715D01*
X048031Y008715D02*
X048618Y008715D01*
X048618Y008862D02*
X048618Y008275D01*
X048952Y008275D02*
X049539Y008275D01*
X049872Y008275D02*
X050460Y008275D01*
X049872Y008275D02*
X049872Y009156D01*
X048952Y009156D02*
X048952Y008275D01*
X048031Y008275D02*
X048031Y008862D01*
X048324Y009156D01*
X048618Y008862D01*
X051714Y009156D02*
X051714Y008275D01*
X052154Y008275D01*
X052301Y008422D01*
X052301Y009009D01*
X052154Y009156D01*
X051714Y009156D01*
X052635Y009156D02*
X052928Y009156D01*
X052782Y009156D02*
X052782Y008275D01*
X052928Y008275D02*
X052635Y008275D01*
X053249Y008275D02*
X053249Y009156D01*
X053542Y008862D01*
X053836Y009156D01*
X053836Y008275D01*
X054169Y008275D02*
X054757Y008275D01*
X055090Y008275D02*
X055090Y009156D01*
X055677Y008275D01*
X055677Y009156D01*
X056011Y009009D02*
X056011Y008862D01*
X056158Y008715D01*
X056451Y008715D01*
X056598Y008568D01*
X056598Y008422D01*
X056451Y008275D01*
X056158Y008275D01*
X056011Y008422D01*
X056011Y009009D02*
X056158Y009156D01*
X056451Y009156D01*
X056598Y009009D01*
X056932Y009156D02*
X057225Y009156D01*
X057079Y009156D02*
X057079Y008275D01*
X057225Y008275D02*
X056932Y008275D01*
X057546Y008422D02*
X057692Y008275D01*
X057986Y008275D01*
X058133Y008422D01*
X058133Y009009D01*
X057986Y009156D01*
X057692Y009156D01*
X057546Y009009D01*
X057546Y008422D01*
X058466Y008275D02*
X058466Y009156D01*
X059054Y008275D01*
X059054Y009156D01*
X059387Y009009D02*
X059387Y008862D01*
X059534Y008715D01*
X059828Y008715D01*
X059974Y008568D01*
X059974Y008422D01*
X059828Y008275D01*
X059534Y008275D01*
X059387Y008422D01*
X059387Y009009D02*
X059534Y009156D01*
X059828Y009156D01*
X059974Y009009D01*
X061229Y009156D02*
X061522Y009156D01*
X061376Y009156D02*
X061376Y008275D01*
X061522Y008275D02*
X061229Y008275D01*
X061843Y008275D02*
X061843Y009156D01*
X062430Y008275D01*
X062430Y009156D01*
X063684Y009156D02*
X063978Y008862D01*
X064271Y009156D01*
X064271Y008275D01*
X064605Y008275D02*
X064899Y008275D01*
X064752Y008275D02*
X064752Y009156D01*
X064605Y009156D02*
X064899Y009156D01*
X065219Y009156D02*
X065219Y008275D01*
X065806Y008275D01*
X063684Y008275D02*
X063684Y009156D01*
X054757Y009156D02*
X054169Y009156D01*
X054169Y008275D01*
X054169Y008715D02*
X054463Y008715D01*
D13*
X050118Y007765D02*
X050118Y001265D01*
X041368Y001265D01*
X041368Y007765D01*
X050118Y007765D01*
X058868Y007765D01*
X058868Y001265D01*
X050118Y001265D01*
X058868Y001265D02*
X067368Y001265D01*
X067368Y002015D01*
X029868Y002015D01*
X029868Y002765D01*
X067368Y002765D01*
X067368Y002015D01*
X067368Y002765D02*
X067368Y003515D01*
X029868Y003515D01*
X029868Y004265D01*
X067368Y004265D01*
X067368Y003515D01*
X067368Y004265D02*
X067368Y005765D01*
X035618Y005765D01*
X035618Y001265D01*
X029868Y001265D01*
X029868Y002015D01*
X029868Y002765D02*
X029868Y003515D01*
X029868Y004265D02*
X029868Y005765D01*
X035618Y005765D01*
X029868Y005765D02*
X029868Y007765D01*
X041368Y007765D01*
X027295Y010249D02*
X027218Y010035D01*
X027152Y009817D01*
X027096Y009597D01*
X027050Y009374D01*
X027014Y009149D01*
X026988Y008923D01*
X026972Y008696D01*
X026967Y008469D01*
X026968Y008469D02*
X026968Y005740D01*
X021468Y005740D01*
X021468Y011090D01*
X021918Y011090D01*
X021918Y011640D01*
X027368Y011640D01*
X027368Y010643D01*
X027367Y010586D01*
X027362Y010528D01*
X027355Y010471D01*
X027344Y010415D01*
X027331Y010359D01*
X027315Y010304D01*
X027296Y010249D01*
X029868Y009765D02*
X029868Y007765D01*
X029868Y009765D02*
X067368Y009765D01*
X067368Y007765D01*
X058868Y007765D01*
X067368Y007765D02*
X067368Y005765D01*
X041368Y001265D02*
X035618Y001265D01*
X018858Y005845D02*
X018858Y005904D01*
X018858Y005845D02*
X017677Y005845D01*
X017677Y005904D01*
X016790Y005623D02*
X016356Y005623D01*
X015943Y005289D02*
X015943Y004974D01*
X016356Y004639D02*
X016790Y004639D01*
X017203Y004974D02*
X017203Y005289D01*
X015819Y003909D02*
X015819Y001015D01*
X012275Y001015D01*
X012275Y003909D01*
X015819Y003909D01*
X016681Y003591D02*
X017232Y003591D01*
X017232Y002292D01*
X017082Y002142D01*
X016831Y002142D01*
X016681Y002292D01*
X016681Y003591D01*
X016681Y003178D02*
X016602Y003178D01*
X016524Y003178D02*
X016445Y003178D01*
X016445Y003099D01*
X016445Y002981D02*
X016445Y002902D01*
X016445Y002784D02*
X016445Y002705D01*
X016524Y002705D01*
X016602Y002705D02*
X016681Y002705D01*
X011523Y002292D02*
X011373Y002142D01*
X011122Y002142D01*
X010972Y002292D01*
X010972Y003591D01*
X011523Y003591D01*
X011523Y002292D01*
X010972Y002705D02*
X010893Y002705D01*
X010814Y002705D02*
X010735Y002705D01*
X010735Y002784D01*
X010735Y002902D02*
X010735Y002981D01*
X010735Y003099D02*
X010735Y003178D01*
X010814Y003178D01*
X010893Y003178D02*
X010972Y003178D01*
X011467Y005089D02*
X012267Y005089D01*
X012267Y006789D01*
X011467Y006789D01*
X011467Y005089D01*
X010113Y005333D02*
X010113Y005683D01*
X009813Y005683D01*
X009263Y005683D02*
X008963Y005683D01*
X008963Y005333D01*
X008843Y005215D02*
X008693Y005065D01*
X008493Y005065D01*
X008343Y005215D01*
X008343Y006615D01*
X008843Y006615D01*
X008843Y005215D01*
X009463Y005183D02*
X009613Y005183D01*
X008168Y005815D02*
X008168Y006165D01*
X007868Y006165D01*
X007318Y006165D02*
X007018Y006165D01*
X007018Y005815D01*
X007518Y005665D02*
X007668Y005665D01*
X009011Y006560D02*
X009311Y006560D01*
X009011Y006560D02*
X009011Y006910D01*
X009511Y007060D02*
X009661Y007060D01*
X010161Y006910D02*
X010161Y006560D01*
X009861Y006560D01*
X010484Y007670D02*
X010484Y008162D01*
X011272Y008162D02*
X011272Y007670D01*
X013199Y007595D02*
X013199Y010744D01*
X016349Y010744D01*
X016349Y007595D01*
X013199Y007595D01*
X010567Y009236D02*
X010412Y009082D01*
X009937Y009082D01*
X009937Y010263D01*
X010567Y010263D01*
X010567Y009236D01*
X009030Y010190D02*
X008805Y009965D01*
X004305Y009965D01*
X004305Y015477D01*
X009030Y015477D01*
X009030Y010190D01*
X009588Y010696D02*
X009588Y012396D01*
X010238Y012396D01*
X010238Y010696D01*
X010088Y010546D01*
X009738Y010546D01*
X009588Y010696D01*
X011430Y010540D02*
X011614Y010540D01*
X011614Y011327D02*
X011430Y011327D01*
X014777Y012743D02*
X014777Y013050D01*
X015249Y013050D02*
X015249Y012743D01*
X017073Y012500D02*
X017073Y012219D01*
X017154Y012219D01*
X018173Y012219D02*
X018254Y012219D01*
X018254Y012501D01*
X018653Y012811D02*
X018653Y013161D01*
X018953Y013161D01*
X019503Y013161D02*
X019803Y013161D01*
X019803Y012811D01*
X019303Y012661D02*
X019153Y012661D01*
X018254Y013119D02*
X018254Y013301D01*
X018155Y013400D01*
X017155Y013400D02*
X017073Y013400D01*
X017073Y013119D01*
X020218Y012215D02*
X020568Y012215D01*
X020568Y011915D01*
X020068Y011715D02*
X020068Y011565D01*
X020568Y011365D02*
X020568Y011065D01*
X020218Y011065D01*
X020593Y010965D02*
X019593Y010965D01*
X019443Y010815D01*
X019443Y010615D01*
X019593Y010465D01*
X020593Y010465D01*
X020593Y010965D01*
X021550Y012108D02*
X022810Y012108D01*
X022810Y013171D02*
X021550Y013171D01*
X023193Y013515D02*
X023193Y013865D01*
X023493Y013865D01*
X024043Y013865D02*
X024343Y013865D01*
X024343Y013515D01*
X023843Y013365D02*
X023693Y013365D01*
X025470Y013215D02*
X026612Y013215D01*
X026612Y014947D01*
X027443Y014947D01*
X027443Y015459D01*
X026612Y015459D01*
X026612Y014947D01*
X026612Y015459D02*
X026612Y015971D01*
X027443Y015971D01*
X027443Y016483D01*
X026612Y016483D01*
X026612Y015971D01*
X026612Y016483D02*
X026612Y018215D01*
X025470Y018215D01*
X025470Y013215D01*
X023843Y014865D02*
X023693Y014865D01*
X023193Y015015D02*
X023193Y015365D01*
X023493Y015365D01*
X023043Y015365D02*
X022743Y015365D01*
X023043Y015365D02*
X023043Y015015D01*
X022543Y014865D02*
X022393Y014865D01*
X021893Y015015D02*
X021893Y015365D01*
X022193Y015365D01*
X021661Y015361D02*
X021661Y014869D01*
X020874Y014869D02*
X020874Y015361D01*
X024043Y015365D02*
X024343Y015365D01*
X024343Y015015D01*
X024042Y016384D02*
X023892Y016534D01*
X024042Y016684D01*
X024042Y016384D01*
X024042Y016850D02*
X024042Y018818D01*
X004042Y018818D01*
X004042Y016850D01*
X024042Y016850D01*
X025368Y018690D02*
X025718Y018690D01*
X025368Y018690D02*
X025368Y018990D01*
X025868Y019190D02*
X025868Y019340D01*
X025368Y019540D02*
X025368Y019840D01*
X025718Y019840D01*
X025718Y020040D02*
X025368Y020040D01*
X025368Y020340D01*
X025868Y020540D02*
X025868Y020690D01*
X025368Y020890D02*
X025368Y021190D01*
X025718Y021190D01*
X024393Y020915D02*
X024318Y020840D01*
X024318Y020493D01*
X023968Y020493D02*
X022968Y020493D01*
X022618Y020493D02*
X022618Y020840D01*
X022542Y020915D01*
X022680Y021379D02*
X022680Y021438D01*
X022877Y021438D01*
X022877Y021379D01*
X022680Y021379D01*
X022700Y021418D02*
X022857Y021418D01*
X022877Y021379D02*
X023074Y021379D01*
X023074Y021831D01*
X023075Y021841D01*
X023079Y021851D01*
X023085Y021859D01*
X023094Y021865D01*
X023103Y021869D01*
X023113Y021870D01*
X023113Y021871D02*
X023822Y021871D01*
X023822Y021870D02*
X023832Y021869D01*
X023842Y021865D01*
X023850Y021859D01*
X023856Y021851D01*
X023860Y021841D01*
X023861Y021831D01*
X023861Y021379D01*
X024058Y021379D01*
X024058Y021438D01*
X024255Y021438D01*
X024255Y021379D01*
X024058Y021379D01*
X024078Y021418D02*
X024235Y021418D01*
X023861Y021379D02*
X023074Y021379D01*
X021768Y020415D02*
X020368Y020415D01*
X020218Y020265D01*
X020218Y020065D01*
X020368Y019915D01*
X021768Y019915D01*
X021768Y020415D01*
X019295Y020924D02*
X019219Y020848D01*
X019219Y020501D01*
X018869Y020501D02*
X017869Y020501D01*
X017519Y020501D02*
X017519Y020848D01*
X017444Y020924D01*
X017582Y021387D02*
X017582Y021446D01*
X017779Y021446D01*
X017779Y021387D01*
X017582Y021387D01*
X017602Y021426D02*
X017759Y021426D01*
X017779Y021387D02*
X017976Y021387D01*
X017976Y021840D01*
X017977Y021850D01*
X017981Y021860D01*
X017987Y021868D01*
X017996Y021874D01*
X018005Y021878D01*
X018015Y021879D01*
X018724Y021879D01*
X018734Y021878D01*
X018744Y021874D01*
X018752Y021868D01*
X018758Y021860D01*
X018762Y021850D01*
X018763Y021840D01*
X018763Y021387D01*
X018960Y021387D01*
X018960Y021446D01*
X019157Y021446D01*
X019157Y021387D01*
X018960Y021387D01*
X018980Y021426D02*
X019137Y021426D01*
X018763Y021387D02*
X017976Y021387D01*
X014176Y020926D02*
X014101Y020850D01*
X014101Y020503D01*
X013751Y020503D02*
X012751Y020503D01*
X012401Y020503D02*
X012401Y020850D01*
X012326Y020926D01*
X012464Y021389D02*
X012464Y021448D01*
X012660Y021448D01*
X012660Y021389D01*
X012464Y021389D01*
X012483Y021428D02*
X012641Y021428D01*
X012660Y021389D02*
X012857Y021389D01*
X012857Y021842D01*
X012858Y021842D02*
X012859Y021852D01*
X012863Y021862D01*
X012869Y021870D01*
X012878Y021876D01*
X012887Y021880D01*
X012897Y021881D01*
X013605Y021881D01*
X013615Y021880D01*
X013625Y021876D01*
X013633Y021870D01*
X013639Y021862D01*
X013643Y021852D01*
X013644Y021842D01*
X013645Y021842D02*
X013645Y021389D01*
X013841Y021389D01*
X013841Y021448D01*
X014038Y021448D01*
X014038Y021389D01*
X013841Y021389D01*
X013861Y021428D02*
X014019Y021428D01*
X013645Y021389D02*
X012857Y021389D01*
X011443Y020615D02*
X011293Y020615D01*
X010793Y020465D02*
X010793Y020115D01*
X011093Y020115D01*
X010693Y020115D02*
X010693Y020465D01*
X010693Y020115D02*
X010393Y020115D01*
X009843Y020115D02*
X009543Y020115D01*
X009543Y020465D01*
X009443Y020465D02*
X009443Y020115D01*
X009143Y020115D01*
X008593Y020115D02*
X008293Y020115D01*
X008293Y020465D01*
X007924Y020296D02*
X007072Y020296D01*
X007924Y020296D02*
X007924Y021674D01*
X007018Y021674D01*
X004853Y021674D02*
X003751Y021674D01*
X003751Y020296D01*
X004356Y020296D01*
X002791Y018999D02*
X000744Y018999D01*
X000744Y013330D01*
X002791Y013330D01*
X002791Y018999D01*
X008793Y020615D02*
X008943Y020615D01*
X010043Y020615D02*
X010193Y020615D01*
X011643Y020115D02*
X011943Y020115D01*
X011943Y020465D01*
X016724Y015705D02*
X016724Y014524D01*
X017511Y014524D02*
X017511Y015705D01*
X013257Y015604D02*
X013257Y013781D01*
X013001Y013525D01*
X011178Y013525D01*
X011178Y015604D01*
X013257Y015604D01*
X017549Y009761D02*
X017549Y009577D01*
X018337Y009577D02*
X018337Y009761D01*
X020213Y009204D02*
X020744Y009204D01*
X020744Y007826D01*
X020213Y007826D01*
X020213Y009204D01*
X018858Y007026D02*
X017677Y007026D01*
X017677Y006967D01*
X018858Y006967D02*
X018858Y007026D01*
D14*
X002032Y001497D02*
X002032Y001497D01*
X002032Y001497D01*
X002032Y001497D01*
X002032Y001497D01*
X002032Y001497D01*
X002032Y001497D01*
X002032Y001497D01*
X002032Y001497D01*
X002032Y001497D01*
X002032Y001497D01*
X011226Y001497D01*
X011226Y001497D01*
X011226Y001497D01*
X011226Y001497D01*
X011226Y001497D01*
X011226Y001497D01*
X011226Y001497D01*
X011226Y001497D01*
X011226Y001497D01*
X011226Y001497D01*
X011226Y001497D01*
X011226Y001635D01*
X011226Y001635D01*
X011226Y001635D01*
X011226Y001635D01*
X011226Y001635D01*
X011226Y001635D01*
X011226Y001635D01*
X011226Y001635D01*
X011226Y001635D01*
X011226Y001635D01*
X011226Y001635D01*
X011228Y001667D01*
X011233Y001698D01*
X011243Y001729D01*
X011255Y001758D01*
X011271Y001786D01*
X011290Y001812D01*
X011312Y001835D01*
X011337Y001856D01*
X011364Y001873D01*
X011392Y001888D01*
X011422Y001898D01*
X011453Y001906D01*
X011485Y001910D01*
X011517Y001910D01*
X011549Y001906D01*
X011580Y001898D01*
X011610Y001888D01*
X011639Y001873D01*
X011665Y001856D01*
X011690Y001835D01*
X011712Y001812D01*
X011731Y001786D01*
X011747Y001758D01*
X011759Y001729D01*
X011769Y001698D01*
X011774Y001667D01*
X011776Y001635D01*
X011776Y001635D01*
X011776Y001635D01*
X011776Y001635D01*
X011776Y001635D01*
X011776Y001635D01*
X011776Y001635D01*
X011776Y001635D01*
X011776Y001635D01*
X011776Y001635D01*
X011776Y001635D01*
X011776Y001497D01*
X011776Y001497D01*
X011776Y001497D01*
X011776Y001497D01*
X011776Y001497D01*
X011776Y001497D01*
X011776Y001497D01*
X011776Y001497D01*
X011776Y001497D01*
X011776Y001497D01*
X011776Y001497D01*
X016304Y001497D01*
X016304Y001497D01*
X016304Y001497D01*
X016304Y001497D01*
X016304Y001497D01*
X016304Y001497D01*
X016304Y001497D01*
X016304Y001497D01*
X016304Y001497D01*
X016304Y001497D01*
X016304Y001497D01*
X016304Y001635D01*
X016304Y001635D01*
X016304Y001635D01*
X016304Y001635D01*
X016304Y001635D01*
X016304Y001635D01*
X016304Y001635D01*
X016304Y001635D01*
X016304Y001635D01*
X016304Y001635D01*
X016304Y001635D01*
X016306Y001667D01*
X016311Y001699D01*
X016321Y001729D01*
X016333Y001759D01*
X016349Y001787D01*
X016369Y001812D01*
X016391Y001836D01*
X016415Y001856D01*
X016442Y001874D01*
X016471Y001888D01*
X016501Y001899D01*
X016532Y001907D01*
X016564Y001911D01*
X016596Y001911D01*
X016628Y001907D01*
X016659Y001899D01*
X016689Y001888D01*
X016718Y001874D01*
X016745Y001856D01*
X016769Y001836D01*
X016791Y001812D01*
X016811Y001787D01*
X016827Y001759D01*
X016839Y001729D01*
X016849Y001699D01*
X016854Y001667D01*
X016856Y001635D01*
X016856Y001497D01*
X016856Y001497D01*
X016856Y001497D01*
X016856Y001497D01*
X016856Y001497D01*
X016856Y001497D01*
X026048Y001497D01*
X026048Y001497D01*
X026048Y001497D01*
X026048Y001497D01*
X026048Y001497D01*
X026048Y001497D01*
X026048Y001497D01*
X026048Y001497D01*
X026048Y001497D01*
X026048Y001497D01*
X026048Y001497D01*
X025615Y002678D02*
X025617Y002719D01*
X025623Y002760D01*
X025633Y002800D01*
X025646Y002839D01*
X025663Y002876D01*
X025684Y002912D01*
X025708Y002946D01*
X025735Y002977D01*
X025764Y003005D01*
X025797Y003031D01*
X025831Y003053D01*
X025868Y003072D01*
X025906Y003087D01*
X025946Y003099D01*
X025986Y003107D01*
X026027Y003111D01*
X026069Y003111D01*
X026110Y003107D01*
X026150Y003099D01*
X026190Y003087D01*
X026228Y003072D01*
X026264Y003053D01*
X026299Y003031D01*
X026332Y003005D01*
X026361Y002977D01*
X026388Y002946D01*
X026412Y002912D01*
X026433Y002876D01*
X026450Y002839D01*
X026463Y002800D01*
X026473Y002760D01*
X026479Y002719D01*
X026481Y002678D01*
X026479Y002637D01*
X026473Y002596D01*
X026463Y002556D01*
X026450Y002517D01*
X026433Y002480D01*
X026412Y002444D01*
X026388Y002410D01*
X026361Y002379D01*
X026332Y002351D01*
X026299Y002325D01*
X026265Y002303D01*
X026228Y002284D01*
X026190Y002269D01*
X026150Y002257D01*
X026110Y002249D01*
X026069Y002245D01*
X026027Y002245D01*
X025986Y002249D01*
X025946Y002257D01*
X025906Y002269D01*
X025868Y002284D01*
X025832Y002303D01*
X025797Y002325D01*
X025764Y002351D01*
X025735Y002379D01*
X025708Y002410D01*
X025684Y002444D01*
X025663Y002480D01*
X025646Y002517D01*
X025633Y002556D01*
X025623Y002596D01*
X025617Y002637D01*
X025615Y002678D01*
X026048Y001497D02*
X026119Y001499D01*
X026191Y001504D01*
X026262Y001514D01*
X026332Y001527D01*
X026402Y001543D01*
X026470Y001563D01*
X026538Y001587D01*
X026604Y001614D01*
X026668Y001645D01*
X026731Y001678D01*
X026792Y001715D01*
X026852Y001756D01*
X026909Y001799D01*
X026963Y001845D01*
X027015Y001894D01*
X027065Y001945D01*
X027112Y001999D01*
X027156Y002056D01*
X027197Y002114D01*
X027235Y002175D01*
X027269Y002237D01*
X027301Y002301D01*
X027329Y002367D01*
X027354Y002434D01*
X027375Y002503D01*
X027392Y002572D01*
X027229Y002572D01*
X027229Y004268D01*
X026460Y004268D01*
X026460Y004268D01*
X026460Y004268D01*
X026460Y004268D01*
X026460Y004268D01*
X026460Y004268D01*
X026460Y004268D01*
X026460Y004268D01*
X026460Y004268D01*
X026460Y004268D01*
X026460Y004268D01*
X026438Y004270D01*
X026417Y004275D01*
X026397Y004283D01*
X026379Y004294D01*
X026362Y004308D01*
X026348Y004325D01*
X026337Y004343D01*
X026329Y004363D01*
X026324Y004384D01*
X026322Y004406D01*
X026322Y005469D01*
X026322Y005469D01*
X026322Y005469D01*
X026322Y005469D01*
X026322Y005469D01*
X026322Y005469D01*
X026322Y005469D01*
X026322Y005469D01*
X026322Y005469D01*
X026322Y005469D01*
X026322Y005469D01*
X026324Y005491D01*
X026329Y005512D01*
X026337Y005532D01*
X026348Y005550D01*
X026362Y005567D01*
X026379Y005581D01*
X026397Y005592D01*
X026417Y005600D01*
X026438Y005605D01*
X026460Y005607D01*
X026460Y005607D01*
X026460Y005607D01*
X026460Y005607D01*
X026460Y005607D01*
X026460Y005607D01*
X026460Y005607D01*
X026460Y005607D01*
X026460Y005607D01*
X026460Y005607D01*
X026460Y005607D01*
X027426Y005607D01*
X027426Y005607D01*
X027426Y005607D01*
X027426Y005607D01*
X027426Y005607D01*
X027426Y005607D01*
X027426Y011640D01*
X027426Y011640D01*
X027426Y011640D01*
X027426Y011640D01*
X027426Y011640D01*
X027426Y011640D01*
X027426Y011640D01*
X027426Y011640D01*
X027426Y011640D01*
X027426Y011640D01*
X027426Y011640D01*
X027424Y011666D01*
X027419Y011691D01*
X027411Y011715D01*
X027400Y011739D01*
X027385Y011760D01*
X027368Y011779D01*
X027349Y011796D01*
X027328Y011811D01*
X027304Y011822D01*
X027280Y011830D01*
X027255Y011835D01*
X027229Y011837D01*
X027229Y011837D01*
X027229Y011837D01*
X027229Y011837D01*
X027229Y011837D01*
X027229Y011837D01*
X027229Y011837D01*
X027229Y011837D01*
X027229Y011837D01*
X027229Y011837D01*
X027229Y011837D01*
X027150Y011837D01*
X027150Y011837D01*
X027150Y011837D01*
X027150Y011837D01*
X027150Y011837D01*
X027150Y011837D01*
X027150Y011837D01*
X027150Y011837D01*
X027150Y011837D01*
X027150Y011837D01*
X027150Y011837D01*
X027124Y011839D01*
X027099Y011844D01*
X027075Y011852D01*
X027051Y011863D01*
X027030Y011878D01*
X027011Y011895D01*
X026994Y011914D01*
X026979Y011935D01*
X026968Y011959D01*
X026960Y011983D01*
X026955Y012008D01*
X026953Y012034D01*
X026953Y012034D01*
X026953Y012034D01*
X026953Y012034D01*
X026953Y012034D01*
X026953Y012034D01*
X026953Y012034D01*
X026953Y012034D01*
X026953Y012034D01*
X026953Y012034D01*
X026953Y012034D01*
X026953Y019239D01*
X026953Y019239D01*
X026953Y019239D01*
X026953Y019239D01*
X026953Y019239D01*
X026953Y019239D01*
X026953Y019239D01*
X026953Y019239D01*
X026953Y019239D01*
X026953Y019239D01*
X026953Y019239D01*
X026955Y019265D01*
X026960Y019290D01*
X026968Y019314D01*
X026979Y019338D01*
X026994Y019359D01*
X027011Y019378D01*
X027030Y019395D01*
X027051Y019410D01*
X027075Y019421D01*
X027099Y019429D01*
X027124Y019434D01*
X027150Y019436D01*
X027229Y019436D01*
X027229Y021182D01*
X027368Y021182D01*
X027369Y021183D02*
X027346Y021253D01*
X027319Y021321D01*
X027289Y021388D01*
X027255Y021454D01*
X027218Y021517D01*
X027177Y021578D01*
X027134Y021638D01*
X027087Y021694D01*
X027037Y021748D01*
X026985Y021800D01*
X026929Y021848D01*
X026872Y021894D01*
X026811Y021936D01*
X026749Y021975D01*
X026685Y022011D01*
X026619Y022043D01*
X026551Y022072D01*
X026482Y022097D01*
X026411Y022118D01*
X026340Y022136D01*
X026268Y022149D01*
X026195Y022159D01*
X026122Y022165D01*
X026048Y022167D01*
X025764Y022167D01*
X025764Y022167D01*
X025764Y022167D01*
X025764Y022167D01*
X025764Y022167D01*
X025764Y022167D01*
X025764Y022167D01*
X025764Y022167D01*
X025764Y022167D01*
X025764Y022167D01*
X025764Y022167D01*
X025738Y022165D01*
X025712Y022160D01*
X025688Y022152D01*
X025664Y022140D01*
X025643Y022125D01*
X025623Y022108D01*
X025606Y022088D01*
X025592Y022066D01*
X025581Y022042D01*
X025573Y022017D01*
X025568Y021991D01*
X025567Y021965D01*
X025567Y021965D01*
X025567Y021965D01*
X025567Y021965D01*
X025567Y021965D01*
X025567Y021965D01*
X025567Y021965D01*
X025567Y021965D01*
X025567Y021965D01*
X025567Y021965D01*
X025567Y021965D01*
X025567Y021663D01*
X025567Y021663D01*
X025567Y021663D01*
X025567Y021663D01*
X025567Y021663D01*
X025567Y021663D01*
X025567Y021663D01*
X025567Y021663D01*
X025567Y021663D01*
X025567Y021663D01*
X025567Y021663D01*
X025566Y021637D01*
X025561Y021611D01*
X025553Y021586D01*
X025542Y021562D01*
X025528Y021540D01*
X025511Y021520D01*
X025491Y021502D01*
X025470Y021487D01*
X025447Y021475D01*
X025422Y021466D01*
X025396Y021460D01*
X025370Y021458D01*
X010583Y021458D01*
X010583Y021458D01*
X010583Y021458D01*
X010583Y021458D01*
X010583Y021458D01*
X010583Y021458D01*
X010583Y021458D01*
X010583Y021458D01*
X010583Y021458D01*
X010583Y021458D01*
X010583Y021458D01*
X010557Y021460D01*
X010532Y021465D01*
X010508Y021473D01*
X010484Y021484D01*
X010463Y021499D01*
X010444Y021516D01*
X010427Y021535D01*
X010412Y021556D01*
X010401Y021580D01*
X010393Y021604D01*
X010388Y021629D01*
X010386Y021655D01*
X010387Y021655D02*
X010387Y021970D01*
X010387Y021970D01*
X010387Y021970D01*
X010387Y021970D01*
X010387Y021970D01*
X010387Y021970D01*
X010387Y021970D01*
X010387Y021970D01*
X010387Y021970D01*
X010387Y021970D01*
X010387Y021970D01*
X010385Y021996D01*
X010380Y022021D01*
X010372Y022045D01*
X010361Y022069D01*
X010346Y022090D01*
X010329Y022109D01*
X010310Y022126D01*
X010289Y022141D01*
X010265Y022152D01*
X010241Y022160D01*
X010216Y022165D01*
X010190Y022167D01*
X001926Y022167D01*
X001924Y022167D01*
X002032Y022167D02*
X002032Y022167D01*
X002032Y022167D01*
X002032Y022167D01*
X002032Y022167D01*
X002032Y022167D01*
X002032Y022167D01*
X002032Y022167D01*
X002032Y022167D01*
X002032Y022167D01*
X002032Y022167D01*
X001599Y020789D02*
X001601Y020830D01*
X001607Y020871D01*
X001617Y020911D01*
X001630Y020950D01*
X001647Y020987D01*
X001668Y021023D01*
X001692Y021057D01*
X001719Y021088D01*
X001748Y021116D01*
X001781Y021142D01*
X001815Y021164D01*
X001852Y021183D01*
X001890Y021198D01*
X001930Y021210D01*
X001970Y021218D01*
X002011Y021222D01*
X002053Y021222D01*
X002094Y021218D01*
X002134Y021210D01*
X002174Y021198D01*
X002212Y021183D01*
X002248Y021164D01*
X002283Y021142D01*
X002316Y021116D01*
X002345Y021088D01*
X002372Y021057D01*
X002396Y021023D01*
X002417Y020987D01*
X002434Y020950D01*
X002447Y020911D01*
X002457Y020871D01*
X002463Y020830D01*
X002465Y020789D01*
X002463Y020748D01*
X002457Y020707D01*
X002447Y020667D01*
X002434Y020628D01*
X002417Y020591D01*
X002396Y020555D01*
X002372Y020521D01*
X002345Y020490D01*
X002316Y020462D01*
X002283Y020436D01*
X002249Y020414D01*
X002212Y020395D01*
X002174Y020380D01*
X002134Y020368D01*
X002094Y020360D01*
X002053Y020356D01*
X002011Y020356D01*
X001970Y020360D01*
X001930Y020368D01*
X001890Y020380D01*
X001852Y020395D01*
X001816Y020414D01*
X001781Y020436D01*
X001748Y020462D01*
X001719Y020490D01*
X001692Y020521D01*
X001668Y020555D01*
X001647Y020591D01*
X001630Y020628D01*
X001617Y020667D01*
X001607Y020707D01*
X001601Y020748D01*
X001599Y020789D01*
X000654Y020789D02*
X000656Y020863D01*
X000662Y020936D01*
X000672Y021009D01*
X000686Y021081D01*
X000703Y021153D01*
X000725Y021223D01*
X000750Y021292D01*
X000778Y021360D01*
X000811Y021426D01*
X000846Y021490D01*
X000885Y021553D01*
X000928Y021613D01*
X000973Y021671D01*
X001022Y021726D01*
X001073Y021779D01*
X001127Y021829D01*
X001183Y021876D01*
X001242Y021920D01*
X001304Y021960D01*
X001367Y021998D01*
X001432Y022032D01*
X001499Y022062D01*
X001568Y022089D01*
X001638Y022112D01*
X001708Y022132D01*
X001780Y022147D01*
X001853Y022159D01*
X001926Y022167D01*
X000851Y020789D02*
X000654Y020789D01*
X000654Y020789D01*
X000851Y020789D02*
X000851Y020789D01*
X000851Y020789D01*
X000851Y020789D01*
X000851Y020789D01*
X000851Y020789D01*
X000851Y019107D01*
X000851Y019107D01*
X000851Y019107D01*
X000851Y019107D01*
X000851Y019107D01*
X000851Y019107D01*
X000654Y019107D01*
X000654Y013202D01*
X000654Y013202D01*
X000654Y013202D01*
X000654Y013202D01*
X000654Y013202D01*
X000654Y013202D01*
X001500Y013202D01*
X001500Y013202D01*
X001500Y013202D01*
X001500Y013202D01*
X001500Y013202D01*
X001500Y013202D01*
X001500Y013202D01*
X001500Y013202D01*
X001500Y013202D01*
X001500Y013202D01*
X001500Y013202D01*
X001522Y013200D01*
X001543Y013195D01*
X001563Y013187D01*
X001581Y013176D01*
X001598Y013162D01*
X001612Y013145D01*
X001623Y013127D01*
X001631Y013107D01*
X001636Y013086D01*
X001638Y013064D01*
X001638Y012277D01*
X001638Y012277D01*
X001638Y012277D01*
X001638Y012277D01*
X001638Y012277D01*
X001638Y012277D01*
X001638Y012277D01*
X001638Y012277D01*
X001638Y012277D01*
X001638Y012277D01*
X001638Y012277D01*
X001636Y012255D01*
X001631Y012234D01*
X001623Y012214D01*
X001612Y012196D01*
X001598Y012179D01*
X001581Y012165D01*
X001563Y012154D01*
X001543Y012146D01*
X001522Y012141D01*
X001500Y012139D01*
X000654Y012139D01*
X000654Y012139D01*
X000654Y012139D01*
X000654Y012139D01*
X000654Y012139D01*
X000654Y012139D01*
X000654Y004647D01*
X000851Y004647D01*
X000851Y002966D01*
X000654Y002966D01*
X000654Y002965D02*
X000653Y002891D01*
X000657Y002816D01*
X000665Y002742D01*
X000676Y002669D01*
X000691Y002596D01*
X000710Y002524D01*
X000733Y002453D01*
X000760Y002383D01*
X000790Y002315D01*
X000823Y002249D01*
X000860Y002184D01*
X000900Y002121D01*
X000944Y002061D01*
X000991Y002003D01*
X001040Y001947D01*
X001092Y001894D01*
X001148Y001844D01*
X001205Y001797D01*
X001265Y001752D01*
X001327Y001712D01*
X001392Y001674D01*
X001458Y001640D01*
X001526Y001609D01*
X001595Y001582D01*
X001666Y001558D01*
X001737Y001538D01*
X001810Y001522D01*
X001884Y001510D01*
X001958Y001501D01*
X002032Y001497D01*
X016856Y001497D02*
X016856Y001497D01*
X016856Y001497D01*
X016856Y001497D01*
X016856Y001497D01*
X016856Y001497D01*
X016856Y001635D02*
X016856Y001635D01*
X016856Y001635D01*
X016856Y001635D01*
X016856Y001635D01*
X016856Y001635D01*
X016856Y001635D01*
X016856Y001635D01*
X016856Y001635D01*
X016856Y001635D01*
X016856Y001635D01*
X018175Y002083D02*
X018177Y002110D01*
X018183Y002137D01*
X018192Y002163D01*
X018205Y002187D01*
X018221Y002210D01*
X018240Y002229D01*
X018262Y002246D01*
X018286Y002260D01*
X018311Y002270D01*
X018338Y002277D01*
X018365Y002280D01*
X018393Y002279D01*
X018420Y002274D01*
X018446Y002266D01*
X018470Y002254D01*
X018493Y002238D01*
X018514Y002220D01*
X018531Y002199D01*
X018546Y002175D01*
X018557Y002150D01*
X018565Y002124D01*
X018569Y002097D01*
X018569Y002069D01*
X018565Y002042D01*
X018557Y002016D01*
X018546Y001991D01*
X018531Y001967D01*
X018514Y001946D01*
X018493Y001928D01*
X018471Y001912D01*
X018446Y001900D01*
X018420Y001892D01*
X018393Y001887D01*
X018365Y001886D01*
X018338Y001889D01*
X018311Y001896D01*
X018286Y001906D01*
X018262Y001920D01*
X018240Y001937D01*
X018221Y001956D01*
X018205Y001979D01*
X018192Y002003D01*
X018183Y002029D01*
X018177Y002056D01*
X018175Y002083D01*
X026322Y004406D02*
X026322Y004406D01*
X026322Y004406D01*
X026322Y004406D01*
X026322Y004406D01*
X026322Y004406D01*
X026322Y004406D01*
X026322Y004406D01*
X026322Y004406D01*
X026322Y004406D01*
X026322Y004406D01*
X027426Y005607D02*
X027426Y005607D01*
X027426Y005607D01*
X027426Y005607D01*
X027426Y005607D01*
X027426Y005607D01*
X001500Y012139D02*
X001500Y012139D01*
X001500Y012139D01*
X001500Y012139D01*
X001500Y012139D01*
X001500Y012139D01*
X001500Y012139D01*
X001500Y012139D01*
X001500Y012139D01*
X001500Y012139D01*
X001500Y012139D01*
X000654Y012139D02*
X000654Y012139D01*
X000654Y012139D01*
X000654Y012139D01*
X000654Y012139D01*
X000654Y012139D01*
X000654Y013202D02*
X000654Y013202D01*
X000654Y013202D01*
X000654Y013202D01*
X000654Y013202D01*
X000654Y013202D01*
X001638Y013064D02*
X001638Y013064D01*
X001638Y013064D01*
X001638Y013064D01*
X001638Y013064D01*
X001638Y013064D01*
X001638Y013064D01*
X001638Y013064D01*
X001638Y013064D01*
X001638Y013064D01*
X001638Y013064D01*
X000851Y019107D02*
X000851Y019107D01*
X000851Y019107D01*
X000851Y019107D01*
X000851Y019107D01*
X000851Y019107D01*
X002663Y019853D02*
X002665Y019880D01*
X002671Y019907D01*
X002680Y019933D01*
X002693Y019957D01*
X002709Y019980D01*
X002728Y019999D01*
X002750Y020016D01*
X002774Y020030D01*
X002799Y020040D01*
X002826Y020047D01*
X002853Y020050D01*
X002881Y020049D01*
X002908Y020044D01*
X002934Y020036D01*
X002958Y020024D01*
X002981Y020008D01*
X003002Y019990D01*
X003019Y019969D01*
X003034Y019945D01*
X003045Y019920D01*
X003053Y019894D01*
X003057Y019867D01*
X003057Y019839D01*
X003053Y019812D01*
X003045Y019786D01*
X003034Y019761D01*
X003019Y019737D01*
X003002Y019716D01*
X002981Y019698D01*
X002959Y019682D01*
X002934Y019670D01*
X002908Y019662D01*
X002881Y019657D01*
X002853Y019656D01*
X002826Y019659D01*
X002799Y019666D01*
X002774Y019676D01*
X002750Y019690D01*
X002728Y019707D01*
X002709Y019726D01*
X002693Y019749D01*
X002680Y019773D01*
X002671Y019799D01*
X002665Y019826D01*
X002663Y019853D01*
X000851Y020789D02*
X000851Y020789D01*
X000851Y020789D01*
X000851Y020789D01*
X000851Y020789D01*
X000851Y020789D01*
X010190Y022167D02*
X010190Y022167D01*
X010190Y022167D01*
X010190Y022167D01*
X010190Y022167D01*
X010190Y022167D01*
X010190Y022167D01*
X010190Y022167D01*
X010190Y022167D01*
X010190Y022167D01*
X010190Y022167D01*
X010387Y021655D02*
X010387Y021655D01*
X010387Y021655D01*
X010387Y021655D01*
X010387Y021655D01*
X010387Y021655D01*
X010387Y021655D01*
X010387Y021655D01*
X010387Y021655D01*
X010387Y021655D01*
X010387Y021655D01*
X025370Y021458D02*
X025370Y021458D01*
X025370Y021458D01*
X025370Y021458D01*
X025370Y021458D01*
X025370Y021458D01*
X025370Y021458D01*
X025370Y021458D01*
X025370Y021458D01*
X025370Y021458D01*
X025370Y021458D01*
X026048Y022167D02*
X026048Y022167D01*
X026048Y022167D01*
X026048Y022167D01*
X026048Y022167D01*
X026048Y022167D01*
X026048Y022167D01*
X026048Y022167D01*
X026048Y022167D01*
X026048Y022167D01*
X026048Y022167D01*
X027150Y019436D02*
X027150Y019436D01*
X027150Y019436D01*
X027150Y019436D01*
X027150Y019436D01*
X027150Y019436D01*
X027150Y019436D01*
X027150Y019436D01*
X027150Y019436D01*
X027150Y019436D01*
X027150Y019436D01*
D15*
X023674Y020965D02*
X023676Y020987D01*
X023682Y021009D01*
X023691Y021029D01*
X023704Y021047D01*
X023720Y021063D01*
X023738Y021076D01*
X023758Y021085D01*
X023780Y021091D01*
X023802Y021093D01*
X023824Y021091D01*
X023846Y021085D01*
X023866Y021076D01*
X023884Y021063D01*
X023900Y021047D01*
X023913Y021029D01*
X023922Y021009D01*
X023928Y020987D01*
X023930Y020965D01*
X023928Y020943D01*
X023922Y020921D01*
X023913Y020901D01*
X023900Y020883D01*
X023884Y020867D01*
X023866Y020854D01*
X023846Y020845D01*
X023824Y020839D01*
X023802Y020837D01*
X023780Y020839D01*
X023758Y020845D01*
X023738Y020854D01*
X023720Y020867D01*
X023704Y020883D01*
X023691Y020901D01*
X023682Y020921D01*
X023676Y020943D01*
X023674Y020965D01*
X023005Y020965D02*
X023007Y020987D01*
X023013Y021009D01*
X023022Y021029D01*
X023035Y021047D01*
X023051Y021063D01*
X023069Y021076D01*
X023089Y021085D01*
X023111Y021091D01*
X023133Y021093D01*
X023155Y021091D01*
X023177Y021085D01*
X023197Y021076D01*
X023215Y021063D01*
X023231Y021047D01*
X023244Y021029D01*
X023253Y021009D01*
X023259Y020987D01*
X023261Y020965D01*
X023259Y020943D01*
X023253Y020921D01*
X023244Y020901D01*
X023231Y020883D01*
X023215Y020867D01*
X023197Y020854D01*
X023177Y020845D01*
X023155Y020839D01*
X023133Y020837D01*
X023111Y020839D01*
X023089Y020845D01*
X023069Y020854D01*
X023051Y020867D01*
X023035Y020883D01*
X023022Y020901D01*
X023013Y020921D01*
X023007Y020943D01*
X023005Y020965D01*
X018576Y020974D02*
X018578Y020996D01*
X018584Y021018D01*
X018593Y021038D01*
X018606Y021056D01*
X018622Y021072D01*
X018640Y021085D01*
X018660Y021094D01*
X018682Y021100D01*
X018704Y021102D01*
X018726Y021100D01*
X018748Y021094D01*
X018768Y021085D01*
X018786Y021072D01*
X018802Y021056D01*
X018815Y021038D01*
X018824Y021018D01*
X018830Y020996D01*
X018832Y020974D01*
X018830Y020952D01*
X018824Y020930D01*
X018815Y020910D01*
X018802Y020892D01*
X018786Y020876D01*
X018768Y020863D01*
X018748Y020854D01*
X018726Y020848D01*
X018704Y020846D01*
X018682Y020848D01*
X018660Y020854D01*
X018640Y020863D01*
X018622Y020876D01*
X018606Y020892D01*
X018593Y020910D01*
X018584Y020930D01*
X018578Y020952D01*
X018576Y020974D01*
X017907Y020974D02*
X017909Y020996D01*
X017915Y021018D01*
X017924Y021038D01*
X017937Y021056D01*
X017953Y021072D01*
X017971Y021085D01*
X017991Y021094D01*
X018013Y021100D01*
X018035Y021102D01*
X018057Y021100D01*
X018079Y021094D01*
X018099Y021085D01*
X018117Y021072D01*
X018133Y021056D01*
X018146Y021038D01*
X018155Y021018D01*
X018161Y020996D01*
X018163Y020974D01*
X018161Y020952D01*
X018155Y020930D01*
X018146Y020910D01*
X018133Y020892D01*
X018117Y020876D01*
X018099Y020863D01*
X018079Y020854D01*
X018057Y020848D01*
X018035Y020846D01*
X018013Y020848D01*
X017991Y020854D01*
X017971Y020863D01*
X017953Y020876D01*
X017937Y020892D01*
X017924Y020910D01*
X017915Y020930D01*
X017909Y020952D01*
X017907Y020974D01*
X013458Y020976D02*
X013460Y020998D01*
X013466Y021020D01*
X013475Y021040D01*
X013488Y021058D01*
X013504Y021074D01*
X013522Y021087D01*
X013542Y021096D01*
X013564Y021102D01*
X013586Y021104D01*
X013608Y021102D01*
X013630Y021096D01*
X013650Y021087D01*
X013668Y021074D01*
X013684Y021058D01*
X013697Y021040D01*
X013706Y021020D01*
X013712Y020998D01*
X013714Y020976D01*
X013712Y020954D01*
X013706Y020932D01*
X013697Y020912D01*
X013684Y020894D01*
X013668Y020878D01*
X013650Y020865D01*
X013630Y020856D01*
X013608Y020850D01*
X013586Y020848D01*
X013564Y020850D01*
X013542Y020856D01*
X013522Y020865D01*
X013504Y020878D01*
X013488Y020894D01*
X013475Y020912D01*
X013466Y020932D01*
X013460Y020954D01*
X013458Y020976D01*
X012788Y020976D02*
X012790Y020998D01*
X012796Y021020D01*
X012805Y021040D01*
X012818Y021058D01*
X012834Y021074D01*
X012852Y021087D01*
X012872Y021096D01*
X012894Y021102D01*
X012916Y021104D01*
X012938Y021102D01*
X012960Y021096D01*
X012980Y021087D01*
X012998Y021074D01*
X013014Y021058D01*
X013027Y021040D01*
X013036Y021020D01*
X013042Y020998D01*
X013044Y020976D01*
X013042Y020954D01*
X013036Y020932D01*
X013027Y020912D01*
X013014Y020894D01*
X012998Y020878D01*
X012980Y020865D01*
X012960Y020856D01*
X012938Y020850D01*
X012916Y020848D01*
X012894Y020850D01*
X012872Y020856D01*
X012852Y020865D01*
X012834Y020878D01*
X012818Y020894D01*
X012805Y020912D01*
X012796Y020932D01*
X012790Y020954D01*
X012788Y020976D01*
X004806Y017834D02*
X004808Y017864D01*
X004814Y017894D01*
X004823Y017923D01*
X004836Y017950D01*
X004853Y017975D01*
X004872Y017998D01*
X004895Y018019D01*
X004920Y018036D01*
X004946Y018050D01*
X004975Y018060D01*
X005004Y018067D01*
X005034Y018070D01*
X005065Y018069D01*
X005095Y018064D01*
X005124Y018055D01*
X005151Y018043D01*
X005177Y018028D01*
X005201Y018009D01*
X005222Y017987D01*
X005240Y017963D01*
X005255Y017936D01*
X005266Y017908D01*
X005274Y017879D01*
X005278Y017849D01*
X005278Y017819D01*
X005274Y017789D01*
X005266Y017760D01*
X005255Y017732D01*
X005240Y017705D01*
X005222Y017681D01*
X005201Y017659D01*
X005177Y017640D01*
X005151Y017625D01*
X005124Y017613D01*
X005095Y017604D01*
X005065Y017599D01*
X005034Y017598D01*
X005004Y017601D01*
X004975Y017608D01*
X004946Y017618D01*
X004920Y017632D01*
X004895Y017649D01*
X004872Y017670D01*
X004853Y017693D01*
X004836Y017718D01*
X004823Y017745D01*
X004814Y017774D01*
X004808Y017804D01*
X004806Y017834D01*
X022806Y017834D02*
X022808Y017864D01*
X022814Y017894D01*
X022823Y017923D01*
X022836Y017950D01*
X022853Y017975D01*
X022872Y017998D01*
X022895Y018019D01*
X022920Y018036D01*
X022946Y018050D01*
X022975Y018060D01*
X023004Y018067D01*
X023034Y018070D01*
X023065Y018069D01*
X023095Y018064D01*
X023124Y018055D01*
X023151Y018043D01*
X023177Y018028D01*
X023201Y018009D01*
X023222Y017987D01*
X023240Y017963D01*
X023255Y017936D01*
X023266Y017908D01*
X023274Y017879D01*
X023278Y017849D01*
X023278Y017819D01*
X023274Y017789D01*
X023266Y017760D01*
X023255Y017732D01*
X023240Y017705D01*
X023222Y017681D01*
X023201Y017659D01*
X023177Y017640D01*
X023151Y017625D01*
X023124Y017613D01*
X023095Y017604D01*
X023065Y017599D01*
X023034Y017598D01*
X023004Y017601D01*
X022975Y017608D01*
X022946Y017618D01*
X022920Y017632D01*
X022895Y017649D01*
X022872Y017670D01*
X022853Y017693D01*
X022836Y017718D01*
X022823Y017745D01*
X022814Y017774D01*
X022808Y017804D01*
X022806Y017834D01*
X026448Y017742D02*
X026450Y017766D01*
X026456Y017789D01*
X026465Y017811D01*
X026478Y017831D01*
X026493Y017849D01*
X026512Y017864D01*
X026533Y017876D01*
X026555Y017884D01*
X026578Y017889D01*
X026602Y017890D01*
X026626Y017887D01*
X026648Y017880D01*
X026670Y017870D01*
X026690Y017857D01*
X026707Y017840D01*
X026721Y017821D01*
X026732Y017800D01*
X026740Y017777D01*
X026744Y017754D01*
X026744Y017730D01*
X026740Y017707D01*
X026732Y017684D01*
X026721Y017663D01*
X026707Y017644D01*
X026690Y017627D01*
X026670Y017614D01*
X026648Y017604D01*
X026626Y017597D01*
X026602Y017594D01*
X026578Y017595D01*
X026555Y017600D01*
X026533Y017608D01*
X026512Y017620D01*
X026493Y017635D01*
X026478Y017653D01*
X026465Y017673D01*
X026456Y017695D01*
X026450Y017718D01*
X026448Y017742D01*
X026448Y013687D02*
X026450Y013711D01*
X026456Y013734D01*
X026465Y013756D01*
X026478Y013776D01*
X026493Y013794D01*
X026512Y013809D01*
X026533Y013821D01*
X026555Y013829D01*
X026578Y013834D01*
X026602Y013835D01*
X026626Y013832D01*
X026648Y013825D01*
X026670Y013815D01*
X026690Y013802D01*
X026707Y013785D01*
X026721Y013766D01*
X026732Y013745D01*
X026740Y013722D01*
X026744Y013699D01*
X026744Y013675D01*
X026740Y013652D01*
X026732Y013629D01*
X026721Y013608D01*
X026707Y013589D01*
X026690Y013572D01*
X026670Y013559D01*
X026648Y013549D01*
X026626Y013542D01*
X026602Y013539D01*
X026578Y013540D01*
X026555Y013545D01*
X026533Y013553D01*
X026512Y013565D01*
X026493Y013580D01*
X026478Y013598D01*
X026465Y013618D01*
X026456Y013640D01*
X026450Y013663D01*
X026448Y013687D01*
X025424Y009916D02*
X025426Y009942D01*
X025432Y009968D01*
X025442Y009993D01*
X025455Y010016D01*
X025471Y010036D01*
X025491Y010054D01*
X025513Y010069D01*
X025536Y010081D01*
X025562Y010089D01*
X025588Y010093D01*
X025614Y010093D01*
X025640Y010089D01*
X025666Y010081D01*
X025690Y010069D01*
X025711Y010054D01*
X025731Y010036D01*
X025747Y010016D01*
X025760Y009993D01*
X025770Y009968D01*
X025776Y009942D01*
X025778Y009916D01*
X025776Y009890D01*
X025770Y009864D01*
X025760Y009839D01*
X025747Y009816D01*
X025731Y009796D01*
X025711Y009778D01*
X025689Y009763D01*
X025666Y009751D01*
X025640Y009743D01*
X025614Y009739D01*
X025588Y009739D01*
X025562Y009743D01*
X025536Y009751D01*
X025512Y009763D01*
X025491Y009778D01*
X025471Y009796D01*
X025455Y009816D01*
X025442Y009839D01*
X025432Y009864D01*
X025426Y009890D01*
X025424Y009916D01*
X025424Y006766D02*
X025426Y006792D01*
X025432Y006818D01*
X025442Y006843D01*
X025455Y006866D01*
X025471Y006886D01*
X025491Y006904D01*
X025513Y006919D01*
X025536Y006931D01*
X025562Y006939D01*
X025588Y006943D01*
X025614Y006943D01*
X025640Y006939D01*
X025666Y006931D01*
X025690Y006919D01*
X025711Y006904D01*
X025731Y006886D01*
X025747Y006866D01*
X025760Y006843D01*
X025770Y006818D01*
X025776Y006792D01*
X025778Y006766D01*
X025776Y006740D01*
X025770Y006714D01*
X025760Y006689D01*
X025747Y006666D01*
X025731Y006646D01*
X025711Y006628D01*
X025689Y006613D01*
X025666Y006601D01*
X025640Y006593D01*
X025614Y006589D01*
X025588Y006589D01*
X025562Y006593D01*
X025536Y006601D01*
X025512Y006613D01*
X025491Y006628D01*
X025471Y006646D01*
X025455Y006666D01*
X025442Y006689D01*
X025432Y006714D01*
X025426Y006740D01*
X025424Y006766D01*
X015077Y003475D02*
X015079Y003495D01*
X015085Y003515D01*
X015094Y003533D01*
X015107Y003550D01*
X015122Y003563D01*
X015140Y003573D01*
X015160Y003580D01*
X015180Y003583D01*
X015200Y003582D01*
X015220Y003577D01*
X015239Y003569D01*
X015256Y003557D01*
X015270Y003542D01*
X015281Y003524D01*
X015289Y003505D01*
X015293Y003485D01*
X015293Y003465D01*
X015289Y003445D01*
X015281Y003426D01*
X015270Y003408D01*
X015256Y003393D01*
X015239Y003381D01*
X015220Y003373D01*
X015200Y003368D01*
X015180Y003367D01*
X015160Y003370D01*
X015140Y003377D01*
X015122Y003387D01*
X015107Y003400D01*
X015094Y003417D01*
X015085Y003435D01*
X015079Y003455D01*
X015077Y003475D01*
X012801Y003475D02*
X012803Y003495D01*
X012809Y003515D01*
X012818Y003533D01*
X012831Y003550D01*
X012846Y003563D01*
X012864Y003573D01*
X012884Y003580D01*
X012904Y003583D01*
X012924Y003582D01*
X012944Y003577D01*
X012963Y003569D01*
X012980Y003557D01*
X012994Y003542D01*
X013005Y003524D01*
X013013Y003505D01*
X013017Y003485D01*
X013017Y003465D01*
X013013Y003445D01*
X013005Y003426D01*
X012994Y003408D01*
X012980Y003393D01*
X012963Y003381D01*
X012944Y003373D01*
X012924Y003368D01*
X012904Y003367D01*
X012884Y003370D01*
X012864Y003377D01*
X012846Y003387D01*
X012831Y003400D01*
X012818Y003417D01*
X012809Y003435D01*
X012803Y003455D01*
X012801Y003475D01*
X009753Y002315D02*
X009755Y002350D01*
X009761Y002385D01*
X009771Y002419D01*
X009784Y002452D01*
X009801Y002483D01*
X009822Y002511D01*
X009845Y002538D01*
X009872Y002561D01*
X009900Y002582D01*
X009931Y002599D01*
X009964Y002612D01*
X009998Y002622D01*
X010033Y002628D01*
X010068Y002630D01*
X010103Y002628D01*
X010138Y002622D01*
X010172Y002612D01*
X010205Y002599D01*
X010236Y002582D01*
X010264Y002561D01*
X010291Y002538D01*
X010314Y002511D01*
X010335Y002483D01*
X010352Y002452D01*
X010365Y002419D01*
X010375Y002385D01*
X010381Y002350D01*
X010383Y002315D01*
X010381Y002280D01*
X010375Y002245D01*
X010365Y002211D01*
X010352Y002178D01*
X010335Y002147D01*
X010314Y002119D01*
X010291Y002092D01*
X010264Y002069D01*
X010236Y002048D01*
X010205Y002031D01*
X010172Y002018D01*
X010138Y002008D01*
X010103Y002002D01*
X010068Y002000D01*
X010033Y002002D01*
X009998Y002008D01*
X009964Y002018D01*
X009931Y002031D01*
X009900Y002048D01*
X009872Y002069D01*
X009845Y002092D01*
X009822Y002119D01*
X009801Y002147D01*
X009784Y002178D01*
X009771Y002211D01*
X009761Y002245D01*
X009755Y002280D01*
X009753Y002315D01*
X003577Y002611D02*
X003579Y002634D01*
X003585Y002657D01*
X003595Y002678D01*
X003608Y002698D01*
X003624Y002715D01*
X003643Y002729D01*
X003664Y002739D01*
X003686Y002746D01*
X003709Y002749D01*
X003733Y002748D01*
X003755Y002743D01*
X003777Y002734D01*
X003797Y002722D01*
X003815Y002706D01*
X003829Y002688D01*
X003841Y002668D01*
X003849Y002646D01*
X003853Y002623D01*
X003853Y002599D01*
X003849Y002576D01*
X003841Y002554D01*
X003829Y002534D01*
X003815Y002516D01*
X003797Y002500D01*
X003777Y002488D01*
X003755Y002479D01*
X003733Y002474D01*
X003709Y002473D01*
X003686Y002476D01*
X003664Y002483D01*
X003643Y002493D01*
X003624Y002507D01*
X003608Y002524D01*
X003595Y002544D01*
X003585Y002565D01*
X003579Y002588D01*
X003577Y002611D01*
X002460Y003669D02*
X002462Y003696D01*
X002468Y003723D01*
X002477Y003749D01*
X002490Y003773D01*
X002506Y003796D01*
X002525Y003815D01*
X002547Y003832D01*
X002571Y003846D01*
X002596Y003856D01*
X002623Y003863D01*
X002650Y003866D01*
X002678Y003865D01*
X002705Y003860D01*
X002731Y003852D01*
X002755Y003840D01*
X002778Y003824D01*
X002799Y003806D01*
X002816Y003785D01*
X002831Y003761D01*
X002842Y003736D01*
X002850Y003710D01*
X002854Y003683D01*
X002854Y003655D01*
X002850Y003628D01*
X002842Y003602D01*
X002831Y003577D01*
X002816Y003553D01*
X002799Y003532D01*
X002778Y003514D01*
X002756Y003498D01*
X002731Y003486D01*
X002705Y003478D01*
X002678Y003473D01*
X002650Y003472D01*
X002623Y003475D01*
X002596Y003482D01*
X002571Y003492D01*
X002547Y003506D01*
X002525Y003523D01*
X002506Y003542D01*
X002490Y003565D01*
X002477Y003589D01*
X002468Y003615D01*
X002462Y003642D01*
X002460Y003669D01*
D16*
X009868Y003315D02*
X010068Y003115D01*
X010268Y003315D01*
X010068Y003115D02*
X010068Y003715D01*
X007703Y008362D02*
X007703Y009000D01*
X007288Y009000D02*
X006977Y009000D01*
X006562Y009000D02*
X006562Y008362D01*
D17*
X006163Y008031D02*
X006163Y007881D01*
X006161Y007868D01*
X006156Y007856D01*
X006148Y007846D01*
X006138Y007838D01*
X006126Y007833D01*
X006113Y007831D01*
X005663Y007831D01*
X005650Y007833D01*
X005638Y007838D01*
X005628Y007846D01*
X005620Y007856D01*
X005615Y007868D01*
X005613Y007881D01*
X005613Y008031D01*
X005615Y008044D01*
X005620Y008056D01*
X005628Y008066D01*
X005638Y008074D01*
X005650Y008079D01*
X005663Y008081D01*
X006113Y008081D01*
X006126Y008079D01*
X006138Y008074D01*
X006148Y008066D01*
X006156Y008056D01*
X006161Y008044D01*
X006163Y008031D01*
X006143Y007690D02*
X005593Y007690D01*
X005593Y007440D01*
X006143Y007440D01*
X006143Y007690D01*
X006143Y007290D02*
X005593Y007290D01*
X005593Y007040D01*
X006143Y007040D01*
X006143Y007290D01*
X006718Y006940D02*
X006968Y006940D01*
X006968Y006390D01*
X006718Y006390D01*
X006718Y006940D01*
X007063Y006940D02*
X007313Y006940D01*
X007313Y006390D01*
X007063Y006390D01*
X007063Y006940D01*
X007718Y006940D02*
X007718Y006690D01*
X008268Y006690D01*
X008268Y006940D01*
X007718Y006940D01*
X009614Y007639D02*
X009614Y008189D01*
X009864Y008189D01*
X009864Y007639D01*
X009614Y007639D01*
X009976Y007640D02*
X010226Y007640D01*
X010226Y008190D01*
X009976Y008190D01*
X009976Y007640D01*
X009159Y007946D02*
X008609Y007946D01*
X008609Y008196D01*
X009159Y008196D01*
X009159Y007946D01*
X009218Y008380D02*
X008968Y008380D01*
X008968Y008930D01*
X009218Y008930D01*
X009218Y008380D01*
X008818Y008387D02*
X008568Y008387D01*
X008568Y008937D01*
X008818Y008937D01*
X008818Y008387D01*
X008403Y008406D02*
X008153Y008406D01*
X008153Y008956D01*
X008403Y008956D01*
X008403Y008406D01*
X009934Y008615D02*
X009934Y008865D01*
X010484Y008865D01*
X010484Y008615D01*
X009934Y008615D01*
X009198Y009188D02*
X009198Y009638D01*
X009196Y009651D01*
X009191Y009663D01*
X009183Y009673D01*
X009173Y009681D01*
X009161Y009686D01*
X009148Y009688D01*
X008998Y009688D01*
X008985Y009686D01*
X008973Y009681D01*
X008963Y009673D01*
X008955Y009663D01*
X008950Y009651D01*
X008948Y009638D01*
X008948Y009188D01*
X008950Y009175D01*
X008955Y009163D01*
X008963Y009153D01*
X008973Y009145D01*
X008985Y009140D01*
X008998Y009138D01*
X009148Y009138D01*
X009161Y009140D01*
X009173Y009145D01*
X009183Y009153D01*
X009191Y009163D01*
X009196Y009175D01*
X009198Y009188D01*
X008806Y009177D02*
X008806Y009627D01*
X008804Y009640D01*
X008799Y009652D01*
X008791Y009662D01*
X008781Y009670D01*
X008769Y009675D01*
X008756Y009677D01*
X008606Y009677D01*
X008593Y009675D01*
X008581Y009670D01*
X008571Y009662D01*
X008563Y009652D01*
X008558Y009640D01*
X008556Y009627D01*
X008556Y009177D01*
X008558Y009164D01*
X008563Y009152D01*
X008571Y009142D01*
X008581Y009134D01*
X008593Y009129D01*
X008606Y009127D01*
X008756Y009127D01*
X008769Y009129D01*
X008781Y009134D01*
X008791Y009142D01*
X008799Y009152D01*
X008804Y009164D01*
X008806Y009177D01*
X006163Y009431D02*
X006163Y009581D01*
X006161Y009594D01*
X006156Y009606D01*
X006148Y009616D01*
X006138Y009624D01*
X006126Y009629D01*
X006113Y009631D01*
X005663Y009631D01*
X005650Y009629D01*
X005638Y009624D01*
X005628Y009616D01*
X005620Y009606D01*
X005615Y009594D01*
X005613Y009581D01*
X005613Y009431D01*
X005615Y009418D01*
X005620Y009406D01*
X005628Y009396D01*
X005638Y009388D01*
X005650Y009383D01*
X005663Y009381D01*
X006113Y009381D01*
X006126Y009383D01*
X006138Y009388D01*
X006148Y009396D01*
X006156Y009406D01*
X006161Y009418D01*
X006163Y009431D01*
X003943Y009515D02*
X003943Y009965D01*
X003941Y009978D01*
X003936Y009990D01*
X003928Y010000D01*
X003918Y010008D01*
X003906Y010013D01*
X003893Y010015D01*
X003743Y010015D01*
X003730Y010013D01*
X003718Y010008D01*
X003708Y010000D01*
X003700Y009990D01*
X003695Y009978D01*
X003693Y009965D01*
X003693Y009515D01*
X003695Y009502D01*
X003700Y009490D01*
X003708Y009480D01*
X003718Y009472D01*
X003730Y009467D01*
X003743Y009465D01*
X003893Y009465D01*
X003906Y009467D01*
X003918Y009472D01*
X003928Y009480D01*
X003936Y009490D01*
X003941Y009502D01*
X003943Y009515D01*
X003893Y010240D02*
X003743Y010240D01*
X003693Y010290D01*
X003693Y010740D01*
X003743Y010790D01*
X003893Y010790D01*
X003943Y010740D01*
X003943Y010290D01*
X003893Y010240D01*
X003893Y010965D02*
X003743Y010965D01*
X003730Y010967D01*
X003718Y010972D01*
X003708Y010980D01*
X003700Y010990D01*
X003695Y011002D01*
X003693Y011015D01*
X003693Y011465D01*
X003695Y011478D01*
X003700Y011490D01*
X003708Y011500D01*
X003718Y011508D01*
X003730Y011513D01*
X003743Y011515D01*
X003893Y011515D01*
X003906Y011513D01*
X003918Y011508D01*
X003928Y011500D01*
X003936Y011490D01*
X003941Y011478D01*
X003943Y011465D01*
X003943Y011015D01*
X003941Y011002D01*
X003936Y010990D01*
X003928Y010980D01*
X003918Y010972D01*
X003906Y010967D01*
X003893Y010965D01*
X003922Y012234D02*
X003372Y012234D01*
X003372Y012484D01*
X003922Y012484D01*
X003922Y012234D01*
X003922Y012634D02*
X003372Y012634D01*
X003372Y012884D01*
X003922Y012884D01*
X003922Y012634D01*
X003918Y013040D02*
X003368Y013040D01*
X003368Y013290D01*
X003918Y013290D01*
X003918Y013040D01*
X003918Y013440D02*
X003368Y013440D01*
X003368Y013690D01*
X003918Y013690D01*
X003918Y013440D01*
X009443Y013340D02*
X009443Y013590D01*
X009993Y013590D01*
X009993Y013340D01*
X009443Y013340D01*
X009443Y013240D02*
X009443Y012990D01*
X009993Y012990D01*
X009993Y013240D01*
X009443Y013240D01*
X009443Y012890D02*
X009443Y012640D01*
X009993Y012640D01*
X009993Y012890D01*
X009443Y012890D01*
X010686Y012985D02*
X010686Y013135D01*
X010688Y013148D01*
X010693Y013160D01*
X010701Y013170D01*
X010711Y013178D01*
X010723Y013183D01*
X010736Y013185D01*
X011186Y013185D01*
X011199Y013183D01*
X011211Y013178D01*
X011221Y013170D01*
X011229Y013160D01*
X011234Y013148D01*
X011236Y013135D01*
X011236Y012985D01*
X011234Y012972D01*
X011229Y012960D01*
X011221Y012950D01*
X011211Y012942D01*
X011199Y012937D01*
X011186Y012935D01*
X010736Y012935D01*
X010723Y012937D01*
X010711Y012942D01*
X010701Y012950D01*
X010693Y012960D01*
X010688Y012972D01*
X010686Y012985D01*
X010729Y012679D02*
X011179Y012679D01*
X011192Y012677D01*
X011204Y012672D01*
X011214Y012664D01*
X011222Y012654D01*
X011227Y012642D01*
X011229Y012629D01*
X011229Y012479D01*
X011227Y012466D01*
X011222Y012454D01*
X011214Y012444D01*
X011204Y012436D01*
X011192Y012431D01*
X011179Y012429D01*
X010729Y012429D01*
X010716Y012431D01*
X010704Y012436D01*
X010694Y012444D01*
X010686Y012454D01*
X010681Y012466D01*
X010679Y012479D01*
X010679Y012629D01*
X010681Y012642D01*
X010686Y012654D01*
X010694Y012664D01*
X010704Y012672D01*
X010716Y012677D01*
X010729Y012679D01*
X011386Y012935D02*
X011386Y013185D01*
X011936Y013185D01*
X011936Y012935D01*
X011386Y012935D01*
X011901Y012175D02*
X012051Y012175D01*
X012064Y012173D01*
X012076Y012168D01*
X012086Y012160D01*
X012094Y012150D01*
X012099Y012138D01*
X012101Y012125D01*
X012101Y011675D01*
X012099Y011662D01*
X012094Y011650D01*
X012086Y011640D01*
X012076Y011632D01*
X012064Y011627D01*
X012051Y011625D01*
X011901Y011625D01*
X011888Y011627D01*
X011876Y011632D01*
X011866Y011640D01*
X011858Y011650D01*
X011853Y011662D01*
X011851Y011675D01*
X011851Y012125D01*
X011853Y012138D01*
X011858Y012150D01*
X011866Y012160D01*
X011876Y012168D01*
X011888Y012173D01*
X011901Y012175D01*
X013943Y012240D02*
X013943Y011990D01*
X014493Y011990D01*
X014493Y012240D01*
X013943Y012240D01*
X013938Y012351D02*
X013938Y012601D01*
X014488Y012601D01*
X014488Y012351D01*
X013938Y012351D01*
X013989Y012714D02*
X014439Y012714D01*
X014452Y012716D01*
X014464Y012721D01*
X014474Y012729D01*
X014482Y012739D01*
X014487Y012751D01*
X014489Y012764D01*
X014489Y012914D01*
X014487Y012927D01*
X014482Y012939D01*
X014474Y012949D01*
X014464Y012957D01*
X014452Y012962D01*
X014439Y012964D01*
X013989Y012964D01*
X013976Y012962D01*
X013964Y012957D01*
X013954Y012949D01*
X013946Y012939D01*
X013941Y012927D01*
X013939Y012914D01*
X013939Y012764D01*
X013941Y012751D01*
X013946Y012739D01*
X013954Y012729D01*
X013964Y012721D01*
X013976Y012716D01*
X013989Y012714D01*
X013986Y013075D02*
X014436Y013075D01*
X014449Y013077D01*
X014461Y013082D01*
X014471Y013090D01*
X014479Y013100D01*
X014484Y013112D01*
X014486Y013125D01*
X014486Y013275D01*
X014484Y013288D01*
X014479Y013300D01*
X014471Y013310D01*
X014461Y013318D01*
X014449Y013323D01*
X014436Y013325D01*
X013986Y013325D01*
X013973Y013323D01*
X013961Y013318D01*
X013951Y013310D01*
X013943Y013300D01*
X013938Y013288D01*
X013936Y013275D01*
X013936Y013125D01*
X013938Y013112D01*
X013943Y013100D01*
X013951Y013090D01*
X013961Y013082D01*
X013973Y013077D01*
X013986Y013075D01*
X014237Y013574D02*
X014487Y013574D01*
X014487Y014124D01*
X014237Y014124D01*
X014237Y013574D01*
X016036Y013785D02*
X016036Y014035D01*
X016586Y014035D01*
X016586Y013785D01*
X016036Y013785D01*
X016738Y013786D02*
X016738Y014036D01*
X017288Y014036D01*
X017288Y013786D01*
X016738Y013786D01*
X017447Y013784D02*
X017447Y014034D01*
X017997Y014034D01*
X017997Y013784D01*
X017447Y013784D01*
X017752Y014299D02*
X017902Y014299D01*
X017915Y014301D01*
X017927Y014306D01*
X017937Y014314D01*
X017945Y014324D01*
X017950Y014336D01*
X017952Y014349D01*
X017952Y014799D01*
X017950Y014812D01*
X017945Y014824D01*
X017937Y014834D01*
X017927Y014842D01*
X017915Y014847D01*
X017902Y014849D01*
X017752Y014849D01*
X017739Y014847D01*
X017727Y014842D01*
X017717Y014834D01*
X017709Y014824D01*
X017704Y014812D01*
X017702Y014799D01*
X017702Y014349D01*
X017704Y014336D01*
X017709Y014324D01*
X017717Y014314D01*
X017727Y014306D01*
X017739Y014301D01*
X017752Y014299D01*
X018097Y014334D02*
X018097Y014484D01*
X018099Y014497D01*
X018104Y014509D01*
X018112Y014519D01*
X018122Y014527D01*
X018134Y014532D01*
X018147Y014534D01*
X018597Y014534D01*
X018610Y014532D01*
X018622Y014527D01*
X018632Y014519D01*
X018640Y014509D01*
X018645Y014497D01*
X018647Y014484D01*
X018647Y014334D01*
X018645Y014321D01*
X018640Y014309D01*
X018632Y014299D01*
X018622Y014291D01*
X018610Y014286D01*
X018597Y014284D01*
X018147Y014284D01*
X018134Y014286D01*
X018122Y014291D01*
X018112Y014299D01*
X018104Y014309D01*
X018099Y014321D01*
X018097Y014334D01*
X018147Y014634D02*
X018597Y014634D01*
X018610Y014636D01*
X018622Y014641D01*
X018632Y014649D01*
X018640Y014659D01*
X018645Y014671D01*
X018647Y014684D01*
X018647Y014834D01*
X018645Y014847D01*
X018640Y014859D01*
X018632Y014869D01*
X018622Y014877D01*
X018610Y014882D01*
X018597Y014884D01*
X018147Y014884D01*
X018134Y014882D01*
X018122Y014877D01*
X018112Y014869D01*
X018104Y014859D01*
X018099Y014847D01*
X018097Y014834D01*
X018097Y014684D01*
X018099Y014671D01*
X018104Y014659D01*
X018112Y014649D01*
X018122Y014641D01*
X018134Y014636D01*
X018147Y014634D01*
X018147Y014984D02*
X018597Y014984D01*
X018610Y014986D01*
X018622Y014991D01*
X018632Y014999D01*
X018640Y015009D01*
X018645Y015021D01*
X018647Y015034D01*
X018647Y015184D01*
X018645Y015197D01*
X018640Y015209D01*
X018632Y015219D01*
X018622Y015227D01*
X018610Y015232D01*
X018597Y015234D01*
X018147Y015234D01*
X018134Y015232D01*
X018122Y015227D01*
X018112Y015219D01*
X018104Y015209D01*
X018099Y015197D01*
X018097Y015184D01*
X018097Y015034D01*
X018099Y015021D01*
X018104Y015009D01*
X018112Y014999D01*
X018122Y014991D01*
X018134Y014986D01*
X018147Y014984D01*
X017953Y015060D02*
X017953Y015510D01*
X017951Y015523D01*
X017946Y015535D01*
X017938Y015545D01*
X017928Y015553D01*
X017916Y015558D01*
X017903Y015560D01*
X017753Y015560D01*
X017740Y015558D01*
X017728Y015553D01*
X017718Y015545D01*
X017710Y015535D01*
X017705Y015523D01*
X017703Y015510D01*
X017703Y015060D01*
X017705Y015047D01*
X017710Y015035D01*
X017718Y015025D01*
X017728Y015017D01*
X017740Y015012D01*
X017753Y015010D01*
X017903Y015010D01*
X017916Y015012D01*
X017928Y015017D01*
X017938Y015025D01*
X017946Y015035D01*
X017951Y015047D01*
X017953Y015060D01*
X018092Y015332D02*
X018092Y015582D01*
X018642Y015582D01*
X018642Y015332D01*
X018092Y015332D01*
X018943Y015340D02*
X018943Y015590D01*
X019493Y015590D01*
X019493Y015340D01*
X018943Y015340D01*
X018943Y015240D02*
X019493Y015240D01*
X019493Y014990D01*
X018943Y014990D01*
X018943Y015240D01*
X019743Y015390D02*
X019743Y015540D01*
X019745Y015553D01*
X019750Y015565D01*
X019758Y015575D01*
X019768Y015583D01*
X019780Y015588D01*
X019793Y015590D01*
X020243Y015590D01*
X020256Y015588D01*
X020268Y015583D01*
X020278Y015575D01*
X020286Y015565D01*
X020291Y015553D01*
X020293Y015540D01*
X020293Y015390D01*
X020291Y015377D01*
X020286Y015365D01*
X020278Y015355D01*
X020268Y015347D01*
X020256Y015342D01*
X020243Y015340D01*
X019793Y015340D01*
X019780Y015342D01*
X019768Y015347D01*
X019758Y015355D01*
X019750Y015365D01*
X019745Y015377D01*
X019743Y015390D01*
X019793Y015690D02*
X020243Y015690D01*
X020256Y015692D01*
X020268Y015697D01*
X020278Y015705D01*
X020286Y015715D01*
X020291Y015727D01*
X020293Y015740D01*
X020293Y015890D01*
X020291Y015903D01*
X020286Y015915D01*
X020278Y015925D01*
X020268Y015933D01*
X020256Y015938D01*
X020243Y015940D01*
X019793Y015940D01*
X019780Y015938D01*
X019768Y015933D01*
X019758Y015925D01*
X019750Y015915D01*
X019745Y015903D01*
X019743Y015890D01*
X019743Y015740D01*
X019745Y015727D01*
X019750Y015715D01*
X019758Y015705D01*
X019768Y015697D01*
X019780Y015692D01*
X019793Y015690D01*
X019493Y015690D02*
X019493Y015940D01*
X018943Y015940D01*
X018943Y015690D01*
X019493Y015690D01*
X019493Y014890D02*
X019493Y014640D01*
X018943Y014640D01*
X018943Y014890D01*
X019493Y014890D01*
X019743Y014840D02*
X019743Y014690D01*
X019745Y014677D01*
X019750Y014665D01*
X019758Y014655D01*
X019768Y014647D01*
X019780Y014642D01*
X019793Y014640D01*
X020243Y014640D01*
X020256Y014642D01*
X020268Y014647D01*
X020278Y014655D01*
X020286Y014665D01*
X020291Y014677D01*
X020293Y014690D01*
X020293Y014840D01*
X020291Y014853D01*
X020286Y014865D01*
X020278Y014875D01*
X020268Y014883D01*
X020256Y014888D01*
X020243Y014890D01*
X019793Y014890D01*
X019780Y014888D01*
X019768Y014883D01*
X019758Y014875D01*
X019750Y014865D01*
X019745Y014853D01*
X019743Y014840D01*
X019793Y014540D02*
X020243Y014540D01*
X020256Y014538D01*
X020268Y014533D01*
X020278Y014525D01*
X020286Y014515D01*
X020291Y014503D01*
X020293Y014490D01*
X020293Y014340D01*
X020291Y014327D01*
X020286Y014315D01*
X020278Y014305D01*
X020268Y014297D01*
X020256Y014292D01*
X020243Y014290D01*
X019793Y014290D01*
X019780Y014292D01*
X019768Y014297D01*
X019758Y014305D01*
X019750Y014315D01*
X019745Y014327D01*
X019743Y014340D01*
X019743Y014490D01*
X019745Y014503D01*
X019750Y014515D01*
X019758Y014525D01*
X019768Y014533D01*
X019780Y014538D01*
X019793Y014540D01*
X019493Y014540D02*
X019493Y014290D01*
X018943Y014290D01*
X018943Y014540D01*
X019493Y014540D01*
X018897Y014009D02*
X018897Y013859D01*
X018895Y013846D01*
X018890Y013834D01*
X018882Y013824D01*
X018872Y013816D01*
X018860Y013811D01*
X018847Y013809D01*
X018397Y013809D01*
X018384Y013811D01*
X018372Y013816D01*
X018362Y013824D01*
X018354Y013834D01*
X018349Y013846D01*
X018347Y013859D01*
X018347Y014009D01*
X018349Y014022D01*
X018354Y014034D01*
X018362Y014044D01*
X018372Y014052D01*
X018384Y014057D01*
X018397Y014059D01*
X018847Y014059D01*
X018860Y014057D01*
X018872Y014052D01*
X018882Y014044D01*
X018890Y014034D01*
X018895Y014022D01*
X018897Y014009D01*
X020049Y013319D02*
X020599Y013319D01*
X020599Y013069D01*
X020049Y013069D01*
X020049Y013319D01*
X020918Y013590D02*
X021168Y013590D01*
X021168Y014140D01*
X020918Y014140D01*
X020918Y013590D01*
X021268Y013590D02*
X021518Y013590D01*
X021518Y014140D01*
X021268Y014140D01*
X021268Y013590D01*
X021618Y013590D02*
X021618Y014140D01*
X021868Y014140D01*
X021868Y013590D01*
X021618Y013590D01*
X021968Y013590D02*
X022218Y013590D01*
X022218Y014140D01*
X021968Y014140D01*
X021968Y013590D01*
X022393Y013540D02*
X022393Y013790D01*
X022943Y013790D01*
X022943Y013540D01*
X022393Y013540D01*
X022393Y013940D02*
X022393Y014190D01*
X022943Y014190D01*
X022943Y013940D01*
X022393Y013940D01*
X023493Y012840D02*
X023493Y012590D01*
X024043Y012590D01*
X024043Y012840D01*
X023493Y012840D01*
X024367Y012815D02*
X024367Y012604D01*
X024369Y012591D01*
X024374Y012579D01*
X024382Y012569D01*
X024392Y012561D01*
X024404Y012556D01*
X024417Y012554D01*
X024978Y012554D01*
X024991Y012556D01*
X025003Y012561D01*
X025013Y012569D01*
X025021Y012579D01*
X025026Y012591D01*
X025028Y012604D01*
X025028Y012815D01*
X025026Y012828D01*
X025021Y012840D01*
X025013Y012850D01*
X025003Y012858D01*
X024991Y012863D01*
X024978Y012865D01*
X024417Y012865D01*
X024404Y012863D01*
X024392Y012858D01*
X024382Y012850D01*
X024374Y012840D01*
X024369Y012828D01*
X024367Y012815D01*
X020603Y012710D02*
X020603Y012960D01*
X020053Y012960D01*
X020053Y012710D01*
X020603Y012710D01*
X020603Y012600D02*
X020603Y012350D01*
X020053Y012350D01*
X020053Y012600D01*
X020603Y012600D01*
X019397Y011889D02*
X018847Y011889D01*
X018847Y011639D01*
X019397Y011639D01*
X019397Y011889D01*
X018638Y011891D02*
X018638Y011641D01*
X018088Y011641D01*
X018088Y011891D01*
X018638Y011891D01*
X018643Y011540D02*
X018093Y011540D01*
X018093Y011290D01*
X018643Y011290D01*
X018643Y011540D01*
X018847Y011539D02*
X018847Y011289D01*
X019397Y011289D01*
X019397Y011539D01*
X018847Y011539D01*
X018647Y011189D02*
X018097Y011189D01*
X018097Y010939D01*
X018647Y010939D01*
X018647Y011189D01*
X018647Y010839D02*
X018097Y010839D01*
X018097Y010589D01*
X018647Y010589D01*
X018647Y010839D01*
X020710Y010589D02*
X020960Y010589D01*
X020960Y011139D01*
X020710Y011139D01*
X020710Y010589D01*
X019443Y009917D02*
X018893Y009917D01*
X018893Y009667D01*
X019443Y009667D01*
X019443Y009917D01*
X019444Y009414D02*
X018894Y009414D01*
X018894Y009164D01*
X019444Y009164D01*
X019444Y009414D01*
X019442Y009056D02*
X018892Y009056D01*
X018892Y008806D01*
X019442Y008806D01*
X019442Y009056D01*
X019443Y008671D02*
X018893Y008671D01*
X018893Y008421D01*
X019443Y008421D01*
X019443Y008671D01*
X018487Y008854D02*
X018487Y008404D01*
X018485Y008391D01*
X018480Y008379D01*
X018472Y008369D01*
X018462Y008361D01*
X018450Y008356D01*
X018437Y008354D01*
X018287Y008354D01*
X018274Y008356D01*
X018262Y008361D01*
X018252Y008369D01*
X018244Y008379D01*
X018239Y008391D01*
X018237Y008404D01*
X018237Y008854D01*
X018239Y008867D01*
X018244Y008879D01*
X018252Y008889D01*
X018262Y008897D01*
X018274Y008902D01*
X018287Y008904D01*
X018437Y008904D01*
X018450Y008902D01*
X018462Y008897D01*
X018472Y008889D01*
X018480Y008879D01*
X018485Y008867D01*
X018487Y008854D01*
X018142Y008864D02*
X018142Y008414D01*
X018140Y008401D01*
X018135Y008389D01*
X018127Y008379D01*
X018117Y008371D01*
X018105Y008366D01*
X018092Y008364D01*
X017942Y008364D01*
X017929Y008366D01*
X017917Y008371D01*
X017907Y008379D01*
X017899Y008389D01*
X017894Y008401D01*
X017892Y008414D01*
X017892Y008864D01*
X017894Y008877D01*
X017899Y008889D01*
X017907Y008899D01*
X017917Y008907D01*
X017929Y008912D01*
X017942Y008914D01*
X018092Y008914D01*
X018105Y008912D01*
X018117Y008907D01*
X018127Y008899D01*
X018135Y008889D01*
X018140Y008877D01*
X018142Y008864D01*
X017792Y008854D02*
X017792Y008404D01*
X017790Y008391D01*
X017785Y008379D01*
X017777Y008369D01*
X017767Y008361D01*
X017755Y008356D01*
X017742Y008354D01*
X017592Y008354D01*
X017579Y008356D01*
X017567Y008361D01*
X017557Y008369D01*
X017549Y008379D01*
X017544Y008391D01*
X017542Y008404D01*
X017542Y008854D01*
X017544Y008867D01*
X017549Y008879D01*
X017557Y008889D01*
X017567Y008897D01*
X017579Y008902D01*
X017592Y008904D01*
X017742Y008904D01*
X017755Y008902D01*
X017767Y008897D01*
X017777Y008889D01*
X017785Y008879D01*
X017790Y008867D01*
X017792Y008854D01*
X018134Y008204D02*
X018584Y008204D01*
X018597Y008202D01*
X018609Y008197D01*
X018619Y008189D01*
X018627Y008179D01*
X018632Y008167D01*
X018634Y008154D01*
X018634Y008004D01*
X018632Y007991D01*
X018627Y007979D01*
X018619Y007969D01*
X018609Y007961D01*
X018597Y007956D01*
X018584Y007954D01*
X018134Y007954D01*
X018121Y007956D01*
X018109Y007961D01*
X018099Y007969D01*
X018091Y007979D01*
X018086Y007991D01*
X018084Y008004D01*
X018084Y008154D01*
X018086Y008167D01*
X018091Y008179D01*
X018099Y008189D01*
X018109Y008197D01*
X018121Y008202D01*
X018134Y008204D01*
X018862Y008148D02*
X018862Y007998D01*
X018864Y007985D01*
X018869Y007973D01*
X018877Y007963D01*
X018887Y007955D01*
X018899Y007950D01*
X018912Y007948D01*
X019362Y007948D01*
X019375Y007950D01*
X019387Y007955D01*
X019397Y007963D01*
X019405Y007973D01*
X019410Y007985D01*
X019412Y007998D01*
X019412Y008148D01*
X019410Y008161D01*
X019405Y008173D01*
X019397Y008183D01*
X019387Y008191D01*
X019375Y008196D01*
X019362Y008198D01*
X018912Y008198D01*
X018899Y008196D01*
X018887Y008191D01*
X018877Y008183D01*
X018869Y008173D01*
X018864Y008161D01*
X018862Y008148D01*
X018859Y007846D02*
X018859Y007596D01*
X019409Y007596D01*
X019409Y007846D01*
X018859Y007846D01*
X018631Y007855D02*
X018631Y007605D01*
X018081Y007605D01*
X018081Y007855D01*
X018631Y007855D01*
X018629Y007504D02*
X018079Y007504D01*
X018079Y007254D01*
X018629Y007254D01*
X018629Y007504D01*
X018862Y007436D02*
X018862Y007186D01*
X019412Y007186D01*
X019412Y007436D01*
X018862Y007436D01*
X019601Y007488D02*
X019601Y007238D01*
X020151Y007238D01*
X020151Y007488D01*
X019601Y007488D01*
X020287Y007475D02*
X020287Y007264D01*
X020289Y007251D01*
X020294Y007239D01*
X020302Y007229D01*
X020312Y007221D01*
X020324Y007216D01*
X020337Y007214D01*
X020898Y007214D01*
X020911Y007216D01*
X020923Y007221D01*
X020933Y007229D01*
X020941Y007239D01*
X020946Y007251D01*
X020948Y007264D01*
X020948Y007475D01*
X020946Y007488D01*
X020941Y007500D01*
X020933Y007510D01*
X020923Y007518D01*
X020911Y007523D01*
X020898Y007525D01*
X020337Y007525D01*
X020324Y007523D01*
X020312Y007518D01*
X020302Y007510D01*
X020294Y007500D01*
X020289Y007488D01*
X020287Y007475D01*
X020201Y007113D02*
X020201Y006863D01*
X019651Y006863D01*
X019651Y007113D01*
X020201Y007113D01*
X020429Y007056D02*
X020429Y006906D01*
X020431Y006893D01*
X020436Y006881D01*
X020444Y006871D01*
X020454Y006863D01*
X020466Y006858D01*
X020479Y006856D01*
X020929Y006856D01*
X020942Y006858D01*
X020954Y006863D01*
X020964Y006871D01*
X020972Y006881D01*
X020977Y006893D01*
X020979Y006906D01*
X020979Y007056D01*
X020977Y007069D01*
X020972Y007081D01*
X020964Y007091D01*
X020954Y007099D01*
X020942Y007104D01*
X020929Y007106D01*
X020479Y007106D01*
X020466Y007104D01*
X020454Y007099D01*
X020444Y007091D01*
X020436Y007081D01*
X020431Y007069D01*
X020429Y007056D01*
X020198Y006764D02*
X020198Y006514D01*
X019648Y006514D01*
X019648Y006764D01*
X020198Y006764D01*
X020432Y006666D02*
X020432Y006516D01*
X020434Y006503D01*
X020439Y006491D01*
X020447Y006481D01*
X020457Y006473D01*
X020469Y006468D01*
X020482Y006466D01*
X020932Y006466D01*
X020945Y006468D01*
X020957Y006473D01*
X020967Y006481D01*
X020975Y006491D01*
X020980Y006503D01*
X020982Y006516D01*
X020982Y006666D01*
X020980Y006679D01*
X020975Y006691D01*
X020967Y006701D01*
X020957Y006709D01*
X020945Y006714D01*
X020932Y006716D01*
X020482Y006716D01*
X020469Y006714D01*
X020457Y006709D01*
X020447Y006701D01*
X020439Y006691D01*
X020434Y006679D01*
X020432Y006666D01*
X020201Y006413D02*
X020201Y006163D01*
X019651Y006163D01*
X019651Y006413D01*
X020201Y006413D01*
X020387Y006240D02*
X020387Y006029D01*
X020389Y006016D01*
X020394Y006004D01*
X020402Y005994D01*
X020412Y005986D01*
X020424Y005981D01*
X020437Y005979D01*
X020998Y005979D01*
X021011Y005981D01*
X021023Y005986D01*
X021033Y005994D01*
X021041Y006004D01*
X021046Y006016D01*
X021048Y006029D01*
X021048Y006240D01*
X021046Y006253D01*
X021041Y006265D01*
X021033Y006275D01*
X021023Y006283D01*
X021011Y006288D01*
X020998Y006290D01*
X020437Y006290D01*
X020424Y006288D01*
X020412Y006283D01*
X020402Y006275D01*
X020394Y006265D01*
X020389Y006253D01*
X020387Y006240D01*
X020195Y006034D02*
X020195Y005784D01*
X019645Y005784D01*
X019645Y006034D01*
X020195Y006034D01*
X020151Y005463D02*
X019701Y005463D01*
X019688Y005461D01*
X019676Y005456D01*
X019666Y005448D01*
X019658Y005438D01*
X019653Y005426D01*
X019651Y005413D01*
X019651Y005263D01*
X019653Y005250D01*
X019658Y005238D01*
X019666Y005228D01*
X019676Y005220D01*
X019688Y005215D01*
X019701Y005213D01*
X020151Y005213D01*
X020164Y005215D01*
X020176Y005220D01*
X020186Y005228D01*
X020194Y005238D01*
X020199Y005250D01*
X020201Y005263D01*
X020201Y005413D01*
X020199Y005426D01*
X020194Y005438D01*
X020186Y005448D01*
X020176Y005456D01*
X020164Y005461D01*
X020151Y005463D01*
X019193Y005390D02*
X019193Y005140D01*
X018643Y005140D01*
X018643Y005390D01*
X019193Y005390D01*
X019193Y005040D02*
X018643Y005040D01*
X018643Y004790D01*
X019193Y004790D01*
X019193Y005040D01*
X018139Y005134D02*
X018139Y004884D01*
X017589Y004884D01*
X017589Y005134D01*
X018139Y005134D01*
X018141Y005235D02*
X017591Y005235D01*
X017591Y005485D01*
X018141Y005485D01*
X018141Y005235D01*
X018089Y004789D02*
X017639Y004789D01*
X017626Y004787D01*
X017614Y004782D01*
X017604Y004774D01*
X017596Y004764D01*
X017591Y004752D01*
X017589Y004739D01*
X017589Y004589D01*
X017591Y004576D01*
X017596Y004564D01*
X017604Y004554D01*
X017614Y004546D01*
X017626Y004541D01*
X017639Y004539D01*
X018089Y004539D01*
X018102Y004541D01*
X018114Y004546D01*
X018124Y004554D01*
X018132Y004564D01*
X018137Y004576D01*
X018139Y004589D01*
X018139Y004739D01*
X018137Y004752D01*
X018132Y004764D01*
X018124Y004774D01*
X018114Y004782D01*
X018102Y004787D01*
X018089Y004789D01*
X018148Y004436D02*
X018148Y004186D01*
X017598Y004186D01*
X017598Y004436D01*
X018148Y004436D01*
X018097Y004084D02*
X017647Y004084D01*
X017634Y004082D01*
X017622Y004077D01*
X017612Y004069D01*
X017604Y004059D01*
X017599Y004047D01*
X017597Y004034D01*
X017597Y003884D01*
X017599Y003871D01*
X017604Y003859D01*
X017612Y003849D01*
X017622Y003841D01*
X017634Y003836D01*
X017647Y003834D01*
X018097Y003834D01*
X018110Y003836D01*
X018122Y003841D01*
X018132Y003849D01*
X018140Y003859D01*
X018145Y003871D01*
X018147Y003884D01*
X018147Y004034D01*
X018145Y004047D01*
X018140Y004059D01*
X018132Y004069D01*
X018122Y004077D01*
X018110Y004082D01*
X018097Y004084D01*
X017271Y004070D02*
X017271Y003820D01*
X016721Y003820D01*
X016721Y004070D01*
X017271Y004070D01*
X017597Y003719D02*
X017597Y003469D01*
X018147Y003469D01*
X018147Y003719D01*
X017597Y003719D01*
X017597Y003359D02*
X018147Y003359D01*
X018147Y003109D01*
X017597Y003109D01*
X017597Y003359D01*
X015447Y004834D02*
X015197Y004834D01*
X015197Y005384D01*
X015447Y005384D01*
X015447Y004834D01*
X015127Y004828D02*
X015127Y005389D01*
X015125Y005402D01*
X015120Y005414D01*
X015112Y005424D01*
X015102Y005432D01*
X015090Y005437D01*
X015077Y005439D01*
X014867Y005439D01*
X014854Y005437D01*
X014842Y005432D01*
X014832Y005424D01*
X014824Y005414D01*
X014819Y005402D01*
X014817Y005389D01*
X014817Y004828D01*
X014819Y004815D01*
X014824Y004803D01*
X014832Y004793D01*
X014842Y004785D01*
X014854Y004780D01*
X014867Y004778D01*
X015077Y004778D01*
X015090Y004780D01*
X015102Y004785D01*
X015112Y004793D01*
X015120Y004803D01*
X015125Y004815D01*
X015127Y004828D01*
X014747Y004834D02*
X014497Y004834D01*
X014497Y005384D01*
X014747Y005384D01*
X014747Y004834D01*
X014397Y004834D02*
X014147Y004834D01*
X014147Y005384D01*
X014397Y005384D01*
X014397Y004834D01*
X014077Y004828D02*
X014077Y005389D01*
X014075Y005402D01*
X014070Y005414D01*
X014062Y005424D01*
X014052Y005432D01*
X014040Y005437D01*
X014027Y005439D01*
X013817Y005439D01*
X013804Y005437D01*
X013792Y005432D01*
X013782Y005424D01*
X013774Y005414D01*
X013769Y005402D01*
X013767Y005389D01*
X013767Y004828D01*
X013769Y004815D01*
X013774Y004803D01*
X013782Y004793D01*
X013792Y004785D01*
X013804Y004780D01*
X013817Y004778D01*
X014027Y004778D01*
X014040Y004780D01*
X014052Y004785D01*
X014062Y004793D01*
X014070Y004803D01*
X014075Y004815D01*
X014077Y004828D01*
X013697Y004834D02*
X013447Y004834D01*
X013447Y005384D01*
X013697Y005384D01*
X013697Y004834D01*
X013252Y004621D02*
X013252Y004410D01*
X013250Y004397D01*
X013245Y004385D01*
X013237Y004375D01*
X013227Y004367D01*
X013215Y004362D01*
X013202Y004360D01*
X012641Y004360D01*
X012628Y004362D01*
X012616Y004367D01*
X012606Y004375D01*
X012598Y004385D01*
X012593Y004397D01*
X012591Y004410D01*
X012591Y004621D01*
X012593Y004634D01*
X012598Y004646D01*
X012606Y004656D01*
X012616Y004664D01*
X012628Y004669D01*
X012641Y004671D01*
X013202Y004671D01*
X013215Y004669D01*
X013227Y004664D01*
X013237Y004656D01*
X013245Y004646D01*
X013250Y004634D01*
X013252Y004621D01*
X011329Y004897D02*
X011079Y004897D01*
X011079Y005447D01*
X011329Y005447D01*
X011329Y004897D01*
X010929Y004897D02*
X010679Y004897D01*
X010679Y005447D01*
X010929Y005447D01*
X010929Y004897D01*
X010529Y004897D02*
X010279Y004897D01*
X010279Y005447D01*
X010529Y005447D01*
X010529Y004897D01*
X010936Y005835D02*
X011086Y005835D01*
X011099Y005837D01*
X011111Y005842D01*
X011121Y005850D01*
X011129Y005860D01*
X011134Y005872D01*
X011136Y005885D01*
X011136Y006335D01*
X011134Y006348D01*
X011129Y006360D01*
X011121Y006370D01*
X011111Y006378D01*
X011099Y006383D01*
X011086Y006385D01*
X010936Y006385D01*
X010923Y006383D01*
X010911Y006378D01*
X010901Y006370D01*
X010893Y006360D01*
X010888Y006348D01*
X010886Y006335D01*
X010886Y005885D01*
X010888Y005872D01*
X010893Y005860D01*
X010901Y005850D01*
X010911Y005842D01*
X010923Y005837D01*
X010936Y005835D01*
X013581Y006000D02*
X013581Y006450D01*
X013583Y006463D01*
X013588Y006475D01*
X013596Y006485D01*
X013606Y006493D01*
X013618Y006498D01*
X013631Y006500D01*
X013781Y006500D01*
X013794Y006498D01*
X013806Y006493D01*
X013816Y006485D01*
X013824Y006475D01*
X013829Y006463D01*
X013831Y006450D01*
X013831Y006000D01*
X013829Y005987D01*
X013824Y005975D01*
X013816Y005965D01*
X013806Y005957D01*
X013794Y005952D01*
X013781Y005950D01*
X013631Y005950D01*
X013618Y005952D01*
X013606Y005957D01*
X013596Y005965D01*
X013588Y005975D01*
X013583Y005987D01*
X013581Y006000D01*
X013939Y005994D02*
X013939Y006444D01*
X013941Y006457D01*
X013946Y006469D01*
X013954Y006479D01*
X013964Y006487D01*
X013976Y006492D01*
X013989Y006494D01*
X014139Y006494D01*
X014152Y006492D01*
X014164Y006487D01*
X014174Y006479D01*
X014182Y006469D01*
X014187Y006457D01*
X014189Y006444D01*
X014189Y005994D01*
X014187Y005981D01*
X014182Y005969D01*
X014174Y005959D01*
X014164Y005951D01*
X014152Y005946D01*
X014139Y005944D01*
X013989Y005944D01*
X013976Y005946D01*
X013964Y005951D01*
X013954Y005959D01*
X013946Y005969D01*
X013941Y005981D01*
X013939Y005994D01*
X014286Y005995D02*
X014286Y006445D01*
X014288Y006458D01*
X014293Y006470D01*
X014301Y006480D01*
X014311Y006488D01*
X014323Y006493D01*
X014336Y006495D01*
X014486Y006495D01*
X014499Y006493D01*
X014511Y006488D01*
X014521Y006480D01*
X014529Y006470D01*
X014534Y006458D01*
X014536Y006445D01*
X014536Y005995D01*
X014534Y005982D01*
X014529Y005970D01*
X014521Y005960D01*
X014511Y005952D01*
X014499Y005947D01*
X014486Y005945D01*
X014336Y005945D01*
X014323Y005947D01*
X014311Y005952D01*
X014301Y005960D01*
X014293Y005970D01*
X014288Y005982D01*
X014286Y005995D01*
X014629Y005994D02*
X014629Y006444D01*
X014631Y006457D01*
X014636Y006469D01*
X014644Y006479D01*
X014654Y006487D01*
X014666Y006492D01*
X014679Y006494D01*
X014829Y006494D01*
X014842Y006492D01*
X014854Y006487D01*
X014864Y006479D01*
X014872Y006469D01*
X014877Y006457D01*
X014879Y006444D01*
X014879Y005994D01*
X014877Y005981D01*
X014872Y005969D01*
X014864Y005959D01*
X014854Y005951D01*
X014842Y005946D01*
X014829Y005944D01*
X014679Y005944D01*
X014666Y005946D01*
X014654Y005951D01*
X014644Y005959D01*
X014636Y005969D01*
X014631Y005981D01*
X014629Y005994D01*
X014979Y005984D02*
X014979Y006434D01*
X014981Y006447D01*
X014986Y006459D01*
X014994Y006469D01*
X015004Y006477D01*
X015016Y006482D01*
X015029Y006484D01*
X015179Y006484D01*
X015192Y006482D01*
X015204Y006477D01*
X015214Y006469D01*
X015222Y006459D01*
X015227Y006447D01*
X015229Y006434D01*
X015229Y005984D01*
X015227Y005971D01*
X015222Y005959D01*
X015214Y005949D01*
X015204Y005941D01*
X015192Y005936D01*
X015179Y005934D01*
X015029Y005934D01*
X015016Y005936D01*
X015004Y005941D01*
X014994Y005949D01*
X014986Y005959D01*
X014981Y005971D01*
X014979Y005984D01*
X015993Y005944D02*
X015993Y006494D01*
X016243Y006494D01*
X016243Y005944D01*
X015993Y005944D01*
X016373Y005955D02*
X016373Y006105D01*
X016375Y006118D01*
X016380Y006130D01*
X016388Y006140D01*
X016398Y006148D01*
X016410Y006153D01*
X016423Y006155D01*
X016873Y006155D01*
X016886Y006153D01*
X016898Y006148D01*
X016908Y006140D01*
X016916Y006130D01*
X016921Y006118D01*
X016923Y006105D01*
X016923Y005955D01*
X016921Y005942D01*
X016916Y005930D01*
X016908Y005920D01*
X016898Y005912D01*
X016886Y005907D01*
X016873Y005905D01*
X016423Y005905D01*
X016410Y005907D01*
X016398Y005912D01*
X016388Y005920D01*
X016380Y005930D01*
X016375Y005942D01*
X016373Y005955D01*
X016429Y006259D02*
X016879Y006259D01*
X016892Y006261D01*
X016904Y006266D01*
X016914Y006274D01*
X016922Y006284D01*
X016927Y006296D01*
X016929Y006309D01*
X016929Y006459D01*
X016927Y006472D01*
X016922Y006484D01*
X016914Y006494D01*
X016904Y006502D01*
X016892Y006507D01*
X016879Y006509D01*
X016429Y006509D01*
X016416Y006507D01*
X016404Y006502D01*
X016394Y006494D01*
X016386Y006484D01*
X016381Y006472D01*
X016379Y006459D01*
X016379Y006309D01*
X016381Y006296D01*
X016386Y006284D01*
X016394Y006274D01*
X016404Y006266D01*
X016416Y006261D01*
X016429Y006259D01*
X012163Y007471D02*
X012163Y007621D01*
X012161Y007634D01*
X012156Y007646D01*
X012148Y007656D01*
X012138Y007664D01*
X012126Y007669D01*
X012113Y007671D01*
X011663Y007671D01*
X011650Y007669D01*
X011638Y007664D01*
X011628Y007656D01*
X011620Y007646D01*
X011615Y007634D01*
X011613Y007621D01*
X011613Y007471D01*
X011615Y007458D01*
X011620Y007446D01*
X011628Y007436D01*
X011638Y007428D01*
X011650Y007423D01*
X011663Y007421D01*
X012113Y007421D01*
X012126Y007423D01*
X012138Y007428D01*
X012148Y007436D01*
X012156Y007446D01*
X012161Y007458D01*
X012163Y007471D01*
X012163Y007771D02*
X011613Y007771D01*
X011613Y008021D01*
X012163Y008021D01*
X012163Y007771D01*
X012163Y008121D02*
X011613Y008121D01*
X011613Y008371D01*
X012163Y008371D01*
X012163Y008121D01*
X012122Y009409D02*
X011972Y009409D01*
X011959Y009411D01*
X011947Y009416D01*
X011937Y009424D01*
X011929Y009434D01*
X011924Y009446D01*
X011922Y009459D01*
X011922Y009909D01*
X011924Y009922D01*
X011929Y009934D01*
X011937Y009944D01*
X011947Y009952D01*
X011959Y009957D01*
X011972Y009959D01*
X012122Y009959D01*
X012135Y009957D01*
X012147Y009952D01*
X012157Y009944D01*
X012165Y009934D01*
X012170Y009922D01*
X012172Y009909D01*
X012172Y009459D01*
X012170Y009446D01*
X012165Y009434D01*
X012157Y009424D01*
X012147Y009416D01*
X012135Y009411D01*
X012122Y009409D01*
X011822Y009459D02*
X011822Y009909D01*
X011820Y009922D01*
X011815Y009934D01*
X011807Y009944D01*
X011797Y009952D01*
X011785Y009957D01*
X011772Y009959D01*
X011622Y009959D01*
X011609Y009957D01*
X011597Y009952D01*
X011587Y009944D01*
X011579Y009934D01*
X011574Y009922D01*
X011572Y009909D01*
X011572Y009459D01*
X011574Y009446D01*
X011579Y009434D01*
X011587Y009424D01*
X011597Y009416D01*
X011609Y009411D01*
X011622Y009409D01*
X011772Y009409D01*
X011785Y009411D01*
X011797Y009416D01*
X011807Y009424D01*
X011815Y009434D01*
X011820Y009446D01*
X011822Y009459D01*
X016043Y012740D02*
X016043Y012990D01*
X016593Y012990D01*
X016593Y012740D01*
X016043Y012740D01*
X014488Y014316D02*
X014238Y014316D01*
X014238Y014866D01*
X014488Y014866D01*
X014488Y014316D01*
X009993Y013940D02*
X009993Y013690D01*
X009443Y013690D01*
X009443Y013940D01*
X009993Y013940D01*
X010043Y015490D02*
X009593Y015490D01*
X009580Y015492D01*
X009568Y015497D01*
X009558Y015505D01*
X009550Y015515D01*
X009545Y015527D01*
X009543Y015540D01*
X009543Y015690D01*
X009545Y015703D01*
X009550Y015715D01*
X009558Y015725D01*
X009568Y015733D01*
X009580Y015738D01*
X009593Y015740D01*
X010043Y015740D01*
X010056Y015738D01*
X010068Y015733D01*
X010078Y015725D01*
X010086Y015715D01*
X010091Y015703D01*
X010093Y015690D01*
X010093Y015540D01*
X010091Y015527D01*
X010086Y015515D01*
X010078Y015505D01*
X010068Y015497D01*
X010056Y015492D01*
X010043Y015490D01*
X004245Y016447D02*
X004245Y016641D01*
X004197Y016689D01*
X004100Y016689D01*
X004052Y016641D01*
X004052Y016592D01*
X004100Y016544D01*
X004245Y016544D01*
X004245Y016447D02*
X004197Y016399D01*
X004100Y016399D01*
X004052Y016447D01*
X003951Y016447D02*
X003902Y016399D01*
X003806Y016399D01*
X003757Y016447D01*
X003854Y016544D02*
X003902Y016544D01*
X003951Y016496D01*
X003951Y016447D01*
X003902Y016544D02*
X003951Y016592D01*
X003951Y016641D01*
X003902Y016689D01*
X003806Y016689D01*
X003757Y016641D01*
X003902Y018999D02*
X003902Y019289D01*
X003757Y019144D01*
X003951Y019144D01*
X004052Y019047D02*
X004245Y019241D01*
X004245Y019047D01*
X004197Y018999D01*
X004100Y018999D01*
X004052Y019047D01*
X004052Y019241D01*
X004100Y019289D01*
X004197Y019289D01*
X004245Y019241D01*
X008593Y021290D02*
X008593Y021540D01*
X009143Y021540D01*
X009143Y021290D01*
X008593Y021290D01*
X009343Y021290D02*
X009343Y021540D01*
X009893Y021540D01*
X009893Y021290D01*
X009343Y021290D01*
X012243Y019990D02*
X012243Y019740D01*
X012793Y019740D01*
X012793Y019990D01*
X012243Y019990D01*
X012893Y019990D02*
X012893Y019740D01*
X013443Y019740D01*
X013443Y019990D01*
X012893Y019990D01*
X014593Y020290D02*
X014593Y020540D01*
X015143Y020540D01*
X015143Y020290D01*
X014593Y020290D01*
X020554Y020734D02*
X020554Y020984D01*
X021104Y020984D01*
X021104Y020734D01*
X020554Y020734D01*
X023201Y019841D02*
X023201Y019591D01*
X023751Y019591D01*
X023751Y019841D01*
X023201Y019841D01*
X024493Y019590D02*
X024743Y019590D01*
X024743Y020140D01*
X024493Y020140D01*
X024493Y019590D01*
X024483Y019380D02*
X024733Y019380D01*
X024733Y018830D01*
X024483Y018830D01*
X024483Y019380D01*
X024051Y019241D02*
X024002Y019289D01*
X023906Y019289D01*
X023857Y019241D01*
X024051Y019241D02*
X024051Y019192D01*
X023857Y018999D01*
X024051Y018999D01*
X026493Y018990D02*
X026743Y018990D01*
X026743Y019540D01*
X026493Y019540D01*
X026493Y018990D01*
X006536Y005860D02*
X006386Y005860D01*
X006373Y005858D01*
X006361Y005853D01*
X006351Y005845D01*
X006343Y005835D01*
X006338Y005823D01*
X006336Y005810D01*
X006336Y005360D01*
X006338Y005347D01*
X006343Y005335D01*
X006351Y005325D01*
X006361Y005317D01*
X006373Y005312D01*
X006386Y005310D01*
X006536Y005310D01*
X006549Y005312D01*
X006561Y005317D01*
X006571Y005325D01*
X006579Y005335D01*
X006584Y005347D01*
X006586Y005360D01*
X006586Y005810D01*
X006584Y005823D01*
X006579Y005835D01*
X006571Y005845D01*
X006561Y005853D01*
X006549Y005858D01*
X006536Y005860D01*
X006168Y005840D02*
X006168Y005290D01*
X005918Y005290D01*
X005918Y005840D01*
X006168Y005840D01*
X005794Y005795D02*
X005794Y005345D01*
X005792Y005332D01*
X005787Y005320D01*
X005779Y005310D01*
X005769Y005302D01*
X005757Y005297D01*
X005744Y005295D01*
X005594Y005295D01*
X005581Y005297D01*
X005569Y005302D01*
X005559Y005310D01*
X005551Y005320D01*
X005546Y005332D01*
X005544Y005345D01*
X005544Y005795D01*
X005546Y005808D01*
X005551Y005820D01*
X005559Y005830D01*
X005569Y005838D01*
X005581Y005843D01*
X005594Y005845D01*
X005744Y005845D01*
X005757Y005843D01*
X005769Y005838D01*
X005779Y005830D01*
X005787Y005820D01*
X005792Y005808D01*
X005794Y005795D01*
X005418Y005840D02*
X005168Y005840D01*
X005168Y005290D01*
X005418Y005290D01*
X005418Y005840D01*
X005068Y005840D02*
X005068Y005290D01*
X004818Y005290D01*
X004818Y005840D01*
X005068Y005840D01*
X004718Y005840D02*
X004718Y005290D01*
X004468Y005290D01*
X004468Y005840D01*
X004718Y005840D01*
X004368Y005840D02*
X004368Y005290D01*
X004118Y005290D01*
X004118Y005840D01*
X004368Y005840D01*
X004018Y005840D02*
X004018Y005290D01*
X003768Y005290D01*
X003768Y005840D01*
X004018Y005840D01*
D18*
X005513Y008256D02*
X006013Y008256D01*
X006026Y008258D01*
X006038Y008263D01*
X006048Y008271D01*
X006056Y008281D01*
X006061Y008293D01*
X006063Y008306D01*
X006063Y008556D01*
X006061Y008569D01*
X006056Y008581D01*
X006048Y008591D01*
X006038Y008599D01*
X006026Y008604D01*
X006013Y008606D01*
X005513Y008606D01*
X005500Y008604D01*
X005488Y008599D01*
X005478Y008591D01*
X005470Y008581D01*
X005465Y008569D01*
X005463Y008556D01*
X005463Y008306D01*
X005465Y008293D01*
X005470Y008281D01*
X005478Y008271D01*
X005488Y008263D01*
X005500Y008258D01*
X005513Y008256D01*
X005513Y008856D02*
X006013Y008856D01*
X006026Y008858D01*
X006038Y008863D01*
X006048Y008871D01*
X006056Y008881D01*
X006061Y008893D01*
X006063Y008906D01*
X006063Y009156D01*
X006061Y009169D01*
X006056Y009181D01*
X006048Y009191D01*
X006038Y009199D01*
X006026Y009204D01*
X006013Y009206D01*
X005513Y009206D01*
X005500Y009204D01*
X005488Y009199D01*
X005478Y009191D01*
X005470Y009181D01*
X005465Y009169D01*
X005463Y009156D01*
X005463Y008906D01*
X005465Y008893D01*
X005470Y008881D01*
X005478Y008871D01*
X005488Y008863D01*
X005500Y008858D01*
X005513Y008856D01*
X010336Y006385D02*
X010336Y005885D01*
X010338Y005872D01*
X010343Y005860D01*
X010351Y005850D01*
X010361Y005842D01*
X010373Y005837D01*
X010386Y005835D01*
X010636Y005835D01*
X010649Y005837D01*
X010661Y005842D01*
X010671Y005850D01*
X010679Y005860D01*
X010684Y005872D01*
X010686Y005885D01*
X010686Y006385D01*
X010684Y006398D01*
X010679Y006410D01*
X010671Y006420D01*
X010661Y006428D01*
X010649Y006433D01*
X010636Y006435D01*
X010386Y006435D01*
X010373Y006433D01*
X010361Y006428D01*
X010351Y006420D01*
X010343Y006410D01*
X010338Y006398D01*
X010336Y006385D01*
X010636Y011615D02*
X010586Y011665D01*
X010586Y012186D01*
X010636Y012236D01*
X011357Y012236D01*
X011407Y012186D01*
X011407Y011665D01*
X011357Y011615D01*
X010636Y011615D01*
X010243Y014515D02*
X009993Y014515D01*
X009980Y014517D01*
X009968Y014522D01*
X009958Y014530D01*
X009950Y014540D01*
X009945Y014552D01*
X009943Y014565D01*
X009943Y015065D01*
X009945Y015078D01*
X009950Y015090D01*
X009958Y015100D01*
X009968Y015108D01*
X009980Y015113D01*
X009993Y015115D01*
X010243Y015115D01*
X010256Y015113D01*
X010268Y015108D01*
X010278Y015100D01*
X010286Y015090D01*
X010291Y015078D01*
X010293Y015065D01*
X010293Y014565D01*
X010291Y014552D01*
X010286Y014540D01*
X010278Y014530D01*
X010268Y014522D01*
X010256Y014517D01*
X010243Y014515D01*
X009693Y014565D02*
X009693Y015065D01*
X009691Y015078D01*
X009686Y015090D01*
X009678Y015100D01*
X009668Y015108D01*
X009656Y015113D01*
X009643Y015115D01*
X009393Y015115D01*
X009380Y015113D01*
X009368Y015108D01*
X009358Y015100D01*
X009350Y015090D01*
X009345Y015078D01*
X009343Y015065D01*
X009343Y014565D01*
X009345Y014552D01*
X009350Y014540D01*
X009358Y014530D01*
X009368Y014522D01*
X009380Y014517D01*
X009393Y014515D01*
X009643Y014515D01*
X009656Y014517D01*
X009668Y014522D01*
X009678Y014530D01*
X009686Y014540D01*
X009691Y014552D01*
X009693Y014565D01*
D19*
X013368Y013415D03*
X018364Y013509D03*
X021768Y015465D03*
X017637Y015859D03*
X016447Y010891D03*
X010652Y008972D03*
X009218Y010371D03*
X017559Y007144D03*
X020879Y007715D03*
X015723Y004431D03*
D20*
X016807Y002207D02*
X017107Y002207D01*
X011397Y002207D02*
X011097Y002207D01*
X008693Y005125D02*
X008493Y005125D01*
X009763Y010611D02*
X010063Y010611D01*
X019508Y010615D02*
X019508Y010815D01*
X020278Y020065D02*
X020278Y020265D01*
D21*
X022430Y012639D03*
M02*
