%
M48
M72
T01C0.0080
T02C0.0100
T03C0.0157
T04C0.0217
T05C0.0256
T06C0.0276
T07C0.0295
T08C0.0354
T09C0.0394
T10C0.0472
T11C0.0630
%
T01
X5868Y2365
X6122Y3210
X5780Y3302
X5548Y3482
X5868Y3615
X5668Y3790
X7368Y3115
X7618Y2365
X8718Y2365
X10868Y1965
X12718Y2765
X13418Y2715
X14018Y2715
X14668Y2715
X15318Y2715
X17618Y2365
X19868Y2365
X20618Y2365
X21368Y2365
X22368Y2365
X24063Y2309
X25118Y3365
X26368Y3615
X25118Y4365
X24368Y4365
X25868Y4865
X22418Y5065
X21618Y5065
X22018Y4515
X19868Y5165
X19368Y5465
X19268Y5265
X18768Y5432
X18598Y5072
X18218Y5015
X18318Y4315
X17068Y4425
X17178Y3735
X15418Y4215
X15648Y5085
X16118Y5265
X15668Y5475
X17108Y5845
X17368Y5815
X15443Y6590
X15218Y6715
X14648Y6625
X14458Y6625
X14278Y6625
X14518Y6815
X14518Y7015
X14518Y7215
X14518Y7415
X15018Y7415
X15343Y7165
X15593Y7165
X15593Y7415
X15593Y7640
X16468Y7715
X16618Y7915
X16868Y7915
X16818Y8365
X17018Y8365
X17218Y8365
X17418Y8365
X17968Y8075
X17968Y7865
X17958Y7385
X18978Y7095
X19223Y6989
X19450Y6919
X19720Y7184
X20300Y7134
X20270Y6764
X20868Y6785
X20878Y6375
X20578Y6375
X20298Y6295
X19720Y6084
X20080Y5644
X20468Y5565
X19618Y4765
X20718Y3615
X20918Y3615
X14168Y5565
X13918Y5515
X13448Y5840
X13458Y6025
X13238Y6020
X13233Y5835
X12968Y6215
X11618Y5865
X10818Y5865
X10218Y5865
X9218Y5715
X8918Y5865
X8293Y6240
X7518Y6815
X7418Y7015
X7318Y7215
X7218Y7415
X7618Y7315
X7718Y7515
X8168Y7365
X8286Y7646
X8223Y7909
X8568Y7771
X8918Y7671
X9088Y7671
X9088Y7471
X8918Y7471
X7868Y7065
X6968Y7040
X6068Y6865
X5118Y6665
X4668Y6865
X4168Y7115
X3868Y7365
X4168Y7615
X3868Y7865
X4168Y8115
X3868Y8365
X4168Y8615
X4668Y8515
X5118Y8315
X4668Y7965
X5118Y7765
X5418Y7921
X5118Y7265
X4668Y7465
X3418Y7615
X3418Y8115
X3418Y8615
X3868Y8865
X4168Y9115
X3818Y9315
X3418Y9115
X4668Y9015
X5118Y8865
X5418Y8721
X6443Y8431
X7118Y8571
X7118Y8821
X8318Y9046
X8518Y8821
X8868Y9221
X10598Y8745
X9868Y8615
X10118Y8365
X10468Y8315
X9738Y8285
X11368Y7550
X12068Y7115
X12418Y7315
X12468Y7665
X12698Y7665
X12818Y7465
X12998Y7665
X13168Y7415
X13748Y7415
X13748Y7215
X13748Y7015
X13948Y7015
X13118Y6915
X12868Y6915
X12768Y7965
X13238Y7935
X13763Y8175
X13918Y8315
X13918Y8515
X13918Y8715
X13238Y8440
X13038Y8440
X12838Y8440
X12198Y8565
X12018Y8425
X12025Y8728
X11968Y8925
X12202Y9015
X12047Y9240
X11847Y9240
X11647Y9240
X13018Y9365
X13018Y9565
X13268Y9415
X13218Y9115
X13018Y9115
X13738Y9495
X14618Y9290
X14618Y9040
X14968Y9040
X14968Y9290
X15518Y9015
X15418Y8815
X15168Y8215
X14968Y8165
X15468Y8165
X15668Y8165
X16768Y8915
X16968Y8915
X17428Y8935
X18698Y8625
X18738Y9055
X18738Y9265
X19018Y9545
X20068Y9205
X20058Y8965
X19998Y8715
X20003Y8375
X19318Y8245
X19018Y8325
X18698Y8375
X19138Y7475
X19538Y7665
X20438Y7575
X20748Y7575
X21868Y7465
X22618Y7615
X23618Y7615
X24618Y7615
X25618Y7615
X26868Y7615
X26868Y8365
X25618Y8365
X24618Y8365
X23618Y8365
X22618Y8365
X21043Y8310
X20988Y8715
X22618Y9115
X23618Y9115
X24618Y9115
X25618Y9115
X26868Y9115
X26868Y9865
X26868Y10615
X25618Y10615
X24618Y10615
X23618Y10615
X22618Y10615
X22618Y11365
X23618Y11365
X24618Y11365
X25618Y11365
X26868Y11365
X24618Y9865
X23618Y9865
X22618Y9865
X19338Y10815
X19338Y11015
X19348Y11235
X18715Y11240
X18368Y11215
X18018Y11265
X17818Y11365
X17968Y11765
X17564Y11969
X17368Y12015
X17018Y12015
X17868Y12515
X17618Y12615
X17518Y13045
X17868Y13045
X18518Y13115
X18768Y13265
X18018Y13615
X17467Y13565
X17268Y13565
X17068Y13565
X16118Y13262
X15898Y13065
X16128Y12635
X13868Y12315
X13858Y12115
X14018Y11515
X14018Y11315
X14018Y11115
X14008Y10915
X13645Y10693
X14518Y10915
X14508Y11115
X14508Y11325
X14508Y11525
X15018Y11515
X15018Y11315
X15018Y11115
X15018Y10915
X15718Y10915
X15718Y11115
X15718Y11315
X15718Y11515
X15718Y11715
X17118Y10915
X17018Y10665
X17448Y10665
X17818Y10465
X18368Y10865
X18917Y10655
X17298Y9915
X17098Y9915
X15718Y9665
X14078Y10220
X13881Y10195
X12168Y10065
X12048Y10415
X11878Y10415
X11708Y10415
X10918Y10265
X10418Y10065
X10118Y9815
X8868Y9821
X8668Y9821
X8668Y10071
X8868Y10071
X9418Y10271
X9418Y10521
X9418Y10771
X8468Y10965
X8368Y10615
X8318Y9821
X7218Y9921
X6068Y9771
X5668Y9321
X5118Y9365
X4668Y9615
X4168Y9715
X3418Y9615
X3368Y10215
X3368Y10615
X3518Y11115
X3118Y11115
X3118Y11615
X3518Y11615
X4118Y11365
X4118Y11115
X4118Y10215
X4668Y10215
X5118Y9865
X9268Y11615
X9318Y11915
X9218Y12115
X9468Y12115
X10318Y12665
X10518Y12665
X10518Y12865
X10118Y13115
X10118Y13465
X10118Y13815
X10268Y14215
X9188Y14360
X8118Y14365
X9118Y14771
X9818Y15115
X10518Y15665
X11368Y15915
X11968Y15765
X12518Y15965
X13968Y16015
X13968Y16515
X15868Y15965
X16068Y16115
X17018Y16015
X17168Y16215
X18185Y16015
X17868Y15715
X18818Y15815
X18818Y15465
X19243Y15315
X19243Y14965
X18818Y15115
X18823Y14765
X18828Y14545
X19243Y14615
X19333Y14015
X19018Y13919
X20768Y14065
X21068Y14440
X21918Y14047
X22718Y14365
X22918Y14365
X23218Y14115
X23218Y13865
X24043Y13565
X24268Y13565
X24268Y14415
X24068Y14415
X25918Y14565
X22768Y15415
X22768Y15615
X22548Y16065
X23618Y15915
X23818Y15915
X24678Y16035
X25418Y16515
X26168Y17015
X23618Y17615
X21668Y17465
X21468Y17465
X20538Y17305
X19116Y17165
X18568Y17265
X17718Y17315
X16518Y17315
X15420Y17932
X14703Y17605
X14560Y17932
X13970Y17456
X13268Y17765
X13268Y17965
X12702Y17782
X12468Y17867
X12018Y18165
X11618Y18065
X10868Y18342
X10118Y18315
X9558Y18315
X8908Y17955
X9318Y17765
X10168Y17515
X10318Y17665
X12518Y17365
X13933Y18482
X15268Y18690
X16018Y19215
X16868Y19165
X16868Y18965
X16868Y18765
X16880Y18515
X17868Y18465
X18218Y18867
X18968Y19065
X19218Y18797
X20218Y18715
X21968Y18315
X24118Y18865
X25218Y18465
X24368Y19465
X23868Y19716
X24368Y19865
X23268Y20465
X22368Y20265
X22168Y19815
X21918Y19815
X21918Y19565
X22168Y19565
X19768Y20115
X19868Y20315
X19668Y20315
X21211Y20859
X22018Y21065
X20518Y21215
X19718Y21215
X16818Y21015
X15818Y21165
X15068Y20615
X14818Y21165
X13268Y20915
X12968Y20315
X12118Y21115
X11118Y21065
X10918Y21065
X9818Y21065
X9618Y21065
X9768Y21615
X8468Y21065
X8218Y20915
X7268Y21515
X7118Y21865
X5943Y21190
X5568Y20915
X5368Y20765
X5118Y20915
X4968Y20765
X4343Y20490
X4318Y19965
X4068Y19965
X4518Y19515
X5543Y19590
X7368Y19610
X7908Y19027
X6868Y18957
X5918Y18887
X6918Y18265
X7220Y18265
X7643Y18240
X7518Y17765
X7218Y17915
X4968Y17365
X4268Y17465
X3418Y17415
X3418Y17215
X3518Y16865
X2618Y16665
X2618Y16465
X2618Y16270
X3418Y16065
X3418Y15865
X3418Y15665
X4568Y16015
X5368Y15615
X6618Y15615
X7618Y15865
X9118Y15865
X12068Y15365
X12368Y14815
X11918Y14265
X12411Y13808
X12118Y13615
X11918Y13715
X12438Y13335
X12950Y13283
X13238Y13125
X13208Y12885
X13238Y12655
X12448Y12362
X11818Y12645
X11118Y12765
X11168Y13265
X9743Y12915
X8118Y13315
X6618Y14365
X5368Y14365
X4218Y13815
X3668Y13365
X3218Y13515
X2619Y13111
X2019Y13086
X1508Y13571
X1058Y13571
X1058Y14421
X1558Y14421
X2118Y14365
X2568Y14715
X3493Y14390
X3480Y15177
X1558Y15171
X1108Y15271
X1208Y16471
X2568Y17115
X1208Y17621
X1258Y18471
X1318Y19365
X4268Y17965
X4268Y17715
X8818Y19315
X11838Y18895
X12943Y19190
X13268Y19215
X6718Y20915
X6520Y20763
X6368Y20915
X4343Y21490
X3518Y21515
X20118Y16115
X20468Y15865
X21558Y15835
X21768Y15165
X21018Y15265
X19243Y15665
X17318Y15115
X17068Y15115
X17618Y14565
X16068Y14165
X15943Y13915
X13968Y14048
X19248Y12505
X19238Y12235
X19338Y12005
X18708Y12005
X20818Y12615
X21843Y12940
X21743Y13490
X22068Y13515
X23418Y12715
X24168Y12715
X25318Y13015
X12168Y12065
X12198Y11704
X11438Y9815
X11268Y9815
X11098Y9815
X11706Y8409
X16568Y7415
X16568Y6765
X16868Y6765
X13228Y4925
X13228Y4745
X13018Y4745
X13018Y4925
X12148Y4865
X12148Y5045
X11948Y5045
X11948Y4865
X11018Y5015
X11368Y5215
X9568Y5007
X9243Y4432
X9043Y4540
X9493Y4325
X9593Y4115
X9793Y4057
X10218Y3865
X10518Y3615
X11568Y3665
X11868Y2865
X8593Y5065
X6557Y5040
X6353Y5040
X6243Y5590
X6068Y5965
X6318Y6265
X5668Y6365
X5118Y6115
X5318Y5915
X4168Y6115
X3868Y6365
X4168Y6615
X3868Y6865
X3418Y7115
X3418Y6615
X4668Y6365
X3418Y6115
X3418Y5615
X3418Y5115
X4235Y4765
X3418Y4615
X2868Y4365
X3118Y4115
X3668Y3665
X1868Y3390
X1318Y3040
X1118Y3340
X1168Y3765
X1168Y4115
X1368Y4315
X1618Y3765
X22618Y6115
X23618Y6115
X24618Y6115
X24618Y6865
X23618Y6865
X22618Y6865
X26868Y6865
X26868Y6115
X4868Y12865
X4018Y12765
X4018Y12565
X4018Y12365
X3268Y12915
X2619Y12611
X2619Y12111
X2968Y11965
X24518Y20715
X24818Y21165
X26418Y20965
X26868Y20615
T02
X4918Y1715
X5143Y1715
X5143Y2065
X4918Y2065
X8618Y2065
X8843Y2065
X8843Y1715
X8618Y1715
X19268Y1715
X19493Y1715
X19493Y2065
X19268Y2065
X22968Y2065
X23193Y2065
X23193Y1715
X22968Y1715
X19038Y12915
T03
X15740Y3692
X12354Y3692
X12354Y2038
X15740Y2038
T04
X15185Y3475
X12909Y3475
T05
X23133Y20965
X23802Y20965
X18704Y20974
X18035Y20974
X13586Y20976
X12916Y20976
T06
X3715Y2611
T07
X26596Y13687
X26596Y17742
T08
X25601Y9916
X25601Y6766
T09
X2657Y3669
T10
X5042Y17834
X23042Y17834
T11
X10068Y2315
M30
